<mxfile host="app.diagrams.net" agent="Mozilla/5.0 (Windows NT 10.0; Win64; x64) AppleWebKit/537.36 (KHTML, like Gecko) Chrome/139.0.0.0 Safari/537.36" version="28.1.2">
  <diagram name="Page-1" id="DpXMwA9bkCM602BRB6gF">
    <mxGraphModel dx="1246" dy="676" grid="1" gridSize="10" guides="1" tooltips="1" connect="1" arrows="1" fold="1" page="1" pageScale="1" pageWidth="2000" pageHeight="1200" math="0" shadow="0">
      <root>
        <mxCell id="0" />
        <mxCell id="1" parent="0" />
        <mxCell id="wOMFnB0pq9KEX2PWQIk_-1" value="" style="image;sketch=0;aspect=fixed;html=1;points=[];align=center;fontSize=12;image=img/lib/mscae/Data_Lake_Storage.svg;" vertex="1" parent="1">
          <mxGeometry x="1224.62" y="660" width="76.09" height="70" as="geometry" />
        </mxCell>
        <mxCell id="wOMFnB0pq9KEX2PWQIk_-3" value="" style="shape=image;verticalLabelPosition=bottom;labelBackgroundColor=default;verticalAlign=top;aspect=fixed;imageAspect=0;image=data:image/png,iVBORw0KGgoAAAANSUhEUgAAAIUAAACRCAYAAADtnXuxAAAAAXNSR0IArs4c6QAAAARnQU1BAACxjwv8YQUAAAAJcEhZcwAADsMAAA7DAcdvqGQAAEw8SURBVHhe7b0JuCRHdSb6555Z691v791Sb5JaO61dQjvCQmhByHgBPMZgj43HDzzPfjO257MZe/z8/DwznnnewDYYGDADxhgkgTASQkK71FJL6pZ6X9Tb7bvXrSX3zPefqHtByN0tq7pu0y043XGrKisrM+LEH+f8JyIyQvN9P8cpIYn6m+UaMmjQNH32cw5Lm0EUGLD3HsDhu/8GjWe/hlIew0gqaGEKbqrBSy0YmgHfNjBdMtEo6uhr5bCjFA6TkWXIeMmWFmMqa6EXQ0gcH/CbKJ95PQp3/RrsNRcCdoZYT5HDgAkdes4fMQ+SL36EzpdTXU4dUOStWcU7SKl9AYNUQJ4mMIwQ0fMb4d/7VfjP3s/j49ANHb1ZBTEaCGAh8nqhD6+Ae9pq2EuWwejrRaxlcBo+9L37Ee7YBn90D8J4DKHWgKuVUZppIbVz+ChBW34Riu95H0pnrkfuefytBpPA1AkOIuQH5RQHxqkDCrbehC1eszyCQj6nsNlikSeoH3wF/qf+HA4BkekhK7KMzA9oGVqAUYKxYhXsCy+HdfZlMBevgeYOAqnJVi+1lyAJppATEMGLjyN84jsw92xHos/AbOpw7AotRoYgCWGsuxyVO38J5hnn87qOqvyUQJWr6PJXNCkfJJ3CcgqBIkIq9t00aSUAi2AQoOTTo4g/93fY9cw3MdQcQSkzMW0V0XIsWFGA4tV3oOecC4B1bwH6l6KeWaxJwJVrREBUAmpyeUTob47BfP45xN99BMELD2DEClGoJVhMANYLCaacCnovuhHlmz8ALF7FvOhIaLEkWcwXDQ/dWjudytJ2zKeCJMIj2LoponyxFGjW8crmF2A/+g/o9WcwZZbQdB1UWcHFTEPfZdcjv+t98C+6Aeg5nWCwUOBvPT2BbvvISjPiWDBAgPT5Nkx7MfL112Lm534e2lU3oQ8FWMkUZpwYYULLEMSIn/tnTG56DvlMQ1kGnT4s1XJlvZhFguvUl1MHFKy8KKVLoIEwhXPqbNs7n0bxa3+HMb3FyjbRFxuqUiZZrOLltyK+6zdQHFwNy+uB8EEprUEKYPKPQThorHSN76RhWzb/CD2wiygvWIXsPb8M69J3AqFJ40RroBFoBIHWbCD+1v+Atv9J+OQtKXlFkWDjKeQYJLdMp7qcOqAw6Q5Yc4pPsPIwcRjTzz4DHNqDKNJZd4wI8oCVY8M740J4l10Jb3g5aQMrldWuTPpcUn/kqFgeXkw+yjWpDVGIzQ/F6jAql1+NnituQG0qJoRIOIXsEpDGyCFMPPYAHFoqZRn4W2KUl5lF3ikup04JWNnS3OsGtW80kGx8GsFTT5F8+nBSGyEjkMTNYAwsQc81t0M7dz39fOfG3GDLx1nnwb7j55EPn40oZshqxOS1GqzAxtRjDwKbH+LnnCEqz2UIrOUGQSvoOrXllAFFLoGGtEb6b39yL5rPPYLqyAH6dB50C8gj8oSeXhgXXExSeSlCq4cmv9230ZFoKWKzDKy6FEO33AW/0IMiyCt0Wh7NQX9tFFPf/kfk4wcQJXQZuY+EtxMsnepyyoAiZksUKSYB4m0vItrxHLy8yVrQ6NsTOgLyg4VrYF1xDdL+RRA8RKyiTivJ13OlnMy2oV9yBSrnXUZjYNNaZEhIICoW77tpA6LNT6CohTyzfS/lnU5xOXUshUXDzNyaoxPIn9uItLYPgcNqTw0SzxY0ug3z7KtgnHY2gwxyhTghDxAy2ZlIf6X8NiQIop5+DFzyNoSVRchIJEPDR0COY7YaiJ79NmPaEYS6o0iscjunuJwyoFBMTmjm/sPA9p303y00nIwuxWRISVO/dDmqF14LzexlZfI8O4WlnH1nYscmAv5LtACu7QGLzoRz1jk0BTEyPULDcmFkjGL2bEK4bTMSw6XREmsWtS9wCstJBYo8pwk+SnJY+ZpfR7zrUTSmt8JrFGnOh1kRIaYChouXXYJk8XJaCAk2Q9XCVWjQactVQYlOpyQVbQELlsK68DI4vYsJihwmQ9U889AzdhCTz38DqU9+Ix0V/KHk91SWU8ZSZBkVPj2B4NBOpOkMzbQNK3NZgAgJXYe77HQk0qJVfRBIgojjqBu5nbgQFUuQt6SlApxlK2EOr+S96ToIGVMzyF0ixAd2AYf3kwTrvOWPo48TJhHJZH7oANL9+8khUiQFhp9GJIOWqJx/Dez+5YSBqkmKwYLxvTTcDkUUI1UMhpkScQhInMHFsFecBxdlAjCDpcdomTzz8Axd2iuCnePB4UkjpwwolK/esw3ZyEGYpAwpK8XgMd0tobT+Rhg9S9qnsUQ07jT4JJsyYNYpMCQE5kskaNB15UTy6iCsNethOv2MTiKYeoLEsmFPtaBv38GwuPljUJxI0ZszSPZsQd6aIuc0kNJvZ9JxsXgFsOYC+vlC20goUEg3Nt9ox1FFaczr0G2Qy4hkSY4WL6ctWQNteDkifp/QUkGz4UZE0IHdyCdGoGVCZE5tOXVAMTaK1r6tyKQiMptJKsuGdtZ5SPsGVf1b0nukRsukYGL21dvORAa6+KKZ0pMqd4qQagm0/iGYq8+Ebjg8wntFGgzePJ7Zh/TgHgL2ODrMThI5ZUCRj46gOfoK8SDRCJ2DzKQyirDWngNfTESWQo9brMXZbkU6eBlp71joMiT60GXQhCGvbUgHNkHgkuCuXMmXIkJGIQiZHyOH748jHtlHC/MmB8Vrw8K51Fa6OkG9EaafyWQVth1ycdXCOkkJKyCXykxlVFJTs5syJo3HrMMHYKUhDJrxlKTTyH1oAxVoi9YqtyGjlZnl8nxL/UaoQEZecaT7/GtSrkAxKybDTM0hT7GRUGPRkpWwHReFkMcMltdiDvwY+qEdyAKGzby/9FYIDznStd9oClkSmT8m2lX9/TKhRCV+KVXQZemoLQkMvpcbAkNMt86KM9k07ZTmlJXaSbJYXj0mgQwi5QpM3kOOoxHC37udvDGBTlCw3qFbBMqCYaB3AbyY56a0FDlbdpzClM+zyegwaby/w1ebSVq/Fuf8TArL49bgIkYiwwSJS8BIY2CeogTp+H5gZpL3jWBEBLC6FssQSWJMFLFss9d/I8lKM97JgC3j/woIontCloqXiKfb0hkomJGEGcoEDZJJaRIBD/q8XEhfbGQdpZiJJQcKBmKTflom67IlJkkNIU2zTJRNCBo/ijCdkmxWFyKiGacnOaEpLxSQDCxAU0vhJ9KrSiDmIfL6NLK4SYvFyhLaw9eUSJdIqZ3k85GveawkNsv0+SYkj2K5VbXxf0z9CyC7LZ2BgsjNWDHyKmaWATt9LaN6psylqSWqO0lC3HMZfiZnyNgOZYJuFASYmZhAfHgvCZ0JQ2eieU6cKorL1gJeSZ13IhMIRHP5aiQlk8TXYZ6Yey1EMj2OaIrAIFB05l/cnrxTZXvV799oynQCgZhQSfg1P4pboW2irrrPYToChVSKrbenzIu1ECPRYJphZpu8oknL0UlyYrYJMbMsp8NUSGgyaXnM6RbS2ghza8CkL3cMHvOK0Ar91EwAO6LbOoHJYGvVeoYQ0zqEdAkJG4iMieRhBHvGhx3Qpsl5sQmLrzJTzGL57Jh6e9V1/rVJDHKTYGhSvy3qlzaJtZDDZWjuSudal6UjUOTyzIWgl+Aw6N8kXPOY1RJa9H0ttKyooxQ5pKlOBvI31Ok+WiaLXwioiEmyf7ZEmtFE+iYS3semPy+WUOG9Azs5oQmRj0KlD0Xm0ybB0ch7aDOR0rW1ElJCs8EvfLqLAL7VotWP+ZqodKTrvV5K9QhF+NSxeliBhkLsh8wil+rrqAqPKcecza0ijSOImK6IgHD4vSETTHyGgvSnmJlBnjCeL8iExzcuNMZqKDyjFQr1VHUjW+EMpp57Btk//SHCZBgOj+npFPQFb0H19g+jtWYJbFqUEylawCqp7UXjbz8CbaaKJK0hcRuI8oUoX38XihdfCaNQFAXSmuQkxeIO+ZF/pDLfqEjEpUk4VS4BlSpNKF9Np803KayKrkpHoJAxhogZsWIy7c3PAc8+i9boPjT8JvJI5jO+cZFy6cJPGMHkdEupRqauZ3QjIWYOHYDh76SVqLBlUrNpA6kzDHPZOkyXbfQ2u+9XjyUBeYRGDpG/dD/srIcZp+ugj0hRhlEehFntg0U3J1ZNHlrSaFVz1lzOMLL9lMgbEwnPM+rGKThwli6Fte5CGGdeQl7VoyJT9fhKF6UjUAiBillZrd2Pwrj3S/CeeBSNeAp1Ek4JS3VxL52ImnJ9ZFGAOapIO+yutMPuo0nbeB9J1OjsMX97dDnaNVM5Lk/CyWSiHvKocy5H9cafhrH2UlqoQkeN8FjSWe2xteZThzD1+GOYfG4DGq0ZBK4LzbDZcqRgnaZO5UjXmu90NDnSuceXTOrUyaQH14ZWbyB59kVM3/9tZAzTaX94TnelM1BkCbKJEVjbt6LMMIyhCHzyAI2kyzMFt3LZDpI4x6OlY4p83+10hPzNJvn26HLs36pOniMl9b28/sskljmXJ+PIJWzDQGViFNnmjUhmDpF8k9N1WSQnb1hy+sq8VUepMYUeK2V46NK3WWqkWqzIkYt2fOlEy5HyMJeOJUc6fy51Kqkuk5N1NNjgUtuG55Lgk88xBiYkThJLock0d9NFmkVoSsYYkhUTDxbNXD1rsGEzju8osVUcJR1bZlthVxPzc5R07CoWS3K03x3pPrNp7hG2IyXeTrxyFDJMjxmaOzEChvC27jBiaw/td1Pkrm9cWIE5QRG7BtErT2SnKEQmHBbcV89aiNI6SZ3Kka51vEnkSMclvZ4c6Tevl0SOdLzdG+ESFQUZjZMeAOq8ZYhFduFFJ0nnlWRUcxiWeWVGBTYvQsZNqxEZGsMjh9+LSeskdSpHulY7ydiA6g6GzH6QvkDxwXR//FrGdjN+044YVPeTSpnqOp6NaOS5ApYr12Wsp32dY0cmctcj/2vn6Sgi9f+9c16bZHGUFB65nMVwWPo7bLsEOB6/674cExRHMuOSJKO6Sw7hlMmKGTvzKonRwpSVoZgxs7NKfuOpUznStdrJy+iDcwMOdSs9gXJMfHRK/yzdxzoD/fboRPtVp8YlaQoYMdKU5jqPFSDA1qlbOXUgFXU0kfvKff5lkpEQTTjXkdJsfo+UJGcybJ7nDZXvnO664g6gXmADNHye013p0FJQDJP/bSJHVEkRsLD5tVvEySPTVHedUVGoe8xeAUZKkEQWKjIukRLYBI2WUNHyCAHJsqbZNA4OLEZTasY2AWIROGopI+lzZWiYH6M/ZT5kzspIg2y/p0uh/jWJ9FQj7a50WDpaDALCcFy+bxMoFahJ791ROrx+WGLLhByDLd1MEDFSkrGEluWjrs8gsWVYmw7BkudEAgR6k6F1g/66Dj9qIQ4DNvBUje+IRZF5mmkqjaD7FXFsmQUF/6qRZDZEwybALeqf/K7b0hkomDvNdGA7BV6BjEJyKyiWUFUV4OSRnmgSxdYEtMYEUn+aldqgQW5RsT6iuI40adFdBGpMpWhnqFLPfR5BL8sesIyalC8lK4lpvpWrEftx4kEhNkIshbAecXY2+YSuQHGSRB+q2g2X/wtULr2x6nyhEMaarDBzMolXRO5V+TqA3B5mJS8iWVuCgr0c7oJzYC04C0bfWmTeErSSXkzUTBw8nKBGruQzwkoMuhjLgGVKUEnLkvgkoie2jDLcoAnPmX0vLtsiKAzbJcC7D9CO1rwS+qM16tC++nFMf/1zbEU+rNzFqO5jKI4RqV7Nk0OaeS8Ki5ahsOYs6MtWAMNDcPr7oVdJiMkr1PoBLZK1mUmE4+NoToyiWZuGeWAn0slDyKYPwUnq8GgxcuEmwj9JVNWE3hMk6uk46tbJTUznDqpmhJ5L3430V/8zcrrxbtuKzhdCa7UQff2TaH31b5EHVCoVVtMa6E1NxMccvOq+yNzOmOY+zmIqLkUia2L2LYC26HSY170b5UVLYMtzpoWimo0QKw4kD/ioBwEgA/0yzwtpBEQBX3wYh3YA+3eitnUzkr3bkclaGH6dNZS0Z0LNDvrNucsf7PzuTKVHk5StUNMj5tNEK2MkZYTouf5DwAf+I8n+SWIpVJnjEOMPfgH6F/4UxpSPBgmchRlecZA+WprTiZNSbKBe9BAyT0VWrL5gEdIr3gHnynfDW3Sa4jzyzIb0QUj1ySPI0rrU88Asi0wO1lWYySomqNSDPo6l5ouYtTrykVcws+UZZC9tQLJlExKfHEWm9/P/HPylz1JErjL3t1si2pS5JoyFFKRJlWH/7H9B8e0/T7JJMqwL4e+edN6kaT4Ni6RLWQVRyNxrWzknUhqWhrg5hSItRDK4At5t70PvTXei2L8UOlu+PN6XanRr8jCPxhAzSaHVYgQycZ7WLTR9xPxelj5MZSaVUUSRYaopU8D0HsSnnwnt9neh+IF/i8It74U5sEiR6kRmeYseDOnl6DYUvi/f16jQTf4lj5PuABUZz4Mb69xSUCH1J7+K7DN/rB6wbToZ7LzGrwaY9e6P3B1LAsbs7sw0rKElcG55H3DdXUDvMCsVqLNepR1ZQQ0Y3QPt0B7ooweQTkwis0sqisoZ3mWFCn/TB2twmMSzH2mlxLbp0BVR89S7wWSx3PWxg9A+/TGEGx9Bs9mAQ7cl80cychOZ86GLa+kyPMRGGEI0CVjkET11jNIH/zvyq+9gyE2Xpxxg96RjUGSMMqKN9yH+5P+N9MAUWgoU0/xqkEWQ5X5OnISslFJMhv7Wa2G//yNIi2vh0Q9Pe0CRLiPetQ3xE9+Ftoku4NAWxP4ILUMLvXVWqO4gZmgdFkpIB4ZgLFwIe2gQeMvl8JacBrswxPKWyJsYbjs6IjEef/kbaD52H2ozM7BJqg3pIaX1kaUY5wMUEoJKN7d0rMkKgIabo+fDf4bw0rcTtt0HRUfuQ6IP8c6mjH/QhQiS1Sin8qwn3n1YJLrZMEPMq34CM31L4ZIw6DRWJboH5xt/hOizv43wS/8DzpMPoDo6BpvhZmD0Iuj1EZWnGFUchFXfDnPnE8geuwfB3Z/D3t//T/D/3z8B7v4KcPAFZJVx6M443K3PwT/wCoIwJADo5WmlTALDYup4xtnriNIoiZEMjUn4rzFMRqGgoCd10W3puBQZFWDYBIVkcBYI86OS1xePrci56BLYZ1wFDwVE5BCwxmFv3IiZv/888o1PMkKZQNqfI+yVxcxM6M0cY7GLscQlPXaRmgVYtgeXLd1JIqzl+fpz92PnJ/4Qu/7i91H/8seR3vNpTP3vP0Nj9zZWSK7W9VQunbUjrqM9LtR9ETjMNTbpplCDdLy3AKLdz9ld6ageRSGqh83ykMskVjZLkwQuzduEaz5E7inXbithThHSg5qplfOMs9YjMaooSVSpBQgajBi+/k8IRvk7sx9x7xDGXB3jaY3RxgyW6gEWJL3ojftRjHvos8sMNYsILRdNm0DR6mgWZuAV6Wb2bEHyd5/HxCc+gWjT4zASH5Z6KIlcQsgt+dXR5rN2Q9p9g/JHelRTgpruwi2oyjtpQCH5kKf7MmeIvrgPpjVNrxaoLRBCRXy6LykDMYGAZFnMqIogM3lKrYVg8UI4Z74Nic1KMqZRSIvIX9iFcOc3oVXo6LQQph+iHBj8juSRoV2N/j/RmwRMA5nVYnjaQpq1oDOklb4ODWUCvUoiRysifpskRSI/6dU0CQBZh0LnqzwYJenVsO22pDJCazK/WQCHeWx5JMIkwy4N4nwMznV+RSpCpq7rdB/ylLfAWarrhzEgVlx9EeDI6Kb0PdDX1qcRbH+OoUJzHtrRD0PagFOPCcy6bbEZIvNRvg5B0a54zZI5FXQhDJWk1026fufPgRxd8iXn8uZtQxrr9PMzk0j3bKZVmA8aduKl3a8mdlKWWDBgu0WWtz06euy5HZ1J55ZCevQkHHM9mjeTfKLdq/fDWFw0Lw1QO20lSYH0yEfenFL9Cm8GS6GsBC2wYhTUtVUsQ58dX+q8Ao8uHVsK+Sd+zmCMnwko2ChlnSnxsydaLMbuUhK5swNZ/FRH5PagJU/Gt085pUX1YypLIdMUTNiFMstLUBDx7T7O7krHQFNZkdCObD1lK5WRPGmrzLZ8c0IlG9uuGLrkycjq0IslmMvPYSQhnTpvAliohsZmSPcsawLatsxjaVvG+ZDjsz6SMRI8WcVGMi5ZF7o5H/KqSF39bX+QYzqCvVvhB+3puQxHoJercFefA7N3kGe3J+a2fyV5k/Tqa81ejyI+W1pjO7XPOGlEZbM91TgvFF81dN/9fHZUg5INWUpIFuxoDlVQiCOGbgF5hQSO3Z8JJNLe8FEqUypYKpqiS+dZAc6m3cj2fIXf0434g6gXqsBbL4F54a2I9Agx3YuW5ZAF3OWfKDTT55YEYWKBVOeTWnHdRP6qDrmTQWR0VLq6C2gyZG5h/LQziQ+6bJ06V/a5u3Lczbo9WieXaWduHsjw68pMcwyFl3fCqY2h7uZqAKyU9qL6rjvRe9H7gb7zZaQfdjCFImYIqxhTVHSUlZClJSB1oCcGrDiDwxO9qEXFnDyRyxw8RbXSgyxLG7Srbs7idVeOAxTMInNkyLMHDAPbPo5G94eACp28q3b/d4AXn4eh1ZXyDLOK6UVnwfvZX4Z9608jvuBS1Ct9aPoJ7GaExQSBbmpIqN/IyBDqCUIjVQu9h2bbFZ48IrlpP52imw5MWYNco2WbJ2PWISiYSeEQzJQp8zTVVH+TmRQDf+Il4e3NwwfR+sY90F/ewCNN+JIlanFqQR+cG2/A0M/9HzBv+RAaZ1yJsNAPLWggD0b443FatzpbYEK3QZCwJcreHfMx9/F4RGxCSpdtEBCGI8/WqDY5L7nsCBTtMKhN3iynSPdhtaeoqayf+DaW0b+6bPWtTU9j5ptfRrTlMXhxDdWIniOPUbar0Fe8Be5N78PQh/4DSu/7BUxdcTFyr4fgJgBkl8IWlcHk+DpKocxwOnlAITqV3MgOzprtqoY4p+b5MMzG7/zO7/ze7Ps3IGxHaY6EQDBrIwgeewBpEiryKWMDJ9obu0aV0QfdhumjMXEI+cgYyiVWuOdQeTJgUYRwyNxzofUNwTl9LcoXXIHy2otQOv1chMUBTMc5/DBUWzU4dCHymOCJh/eRRcGTgEho+pxyP6xr74Api8CZMsei+8S+c1DQfUjvmlkbhf/ot5AJKDIJEGXg6sSKlRQQ5C34hRh6WEdp9wTGtu1FbUkF2dLzSHnkaQ15qEdWg5EJux65ZR8aS1YDZ1yAyoUXov+8szCwsJ9lamGsdpBlmX3AabaVzrXX79sPefd9uzh3znxI+86i2RxOtR/m1bfB8HoJCqkHor3Lt9VaLVmb/o2JTPQQPmEwm/7YPgR/+utI926AHvTRL/vfU9TJII2zL8biS66DdeE1aFaWIjFNeMygreYW01/YwiHaC5V5DK0xOgbs2YeR574Df+sjsPc9g0JGy0EXlOQmHBJSWYpBek3Vw8syTY7hrjxmbc22ZjneTRHbaxqyG5GGYO0lGPyPfwStvEQtQ960fEZU3X3Q2Pjt3/7tDiwFWwydmQA0DZrInr4f8eRBGCnNsywK1m3oHoek+3eisf1lRDu3w6lPEhAxgcCKcyQwdWEwcpIxEnlMIGK+ox4PzWU9GFi1AMWhJWhpveQaKVzZUiIP0CCHEhuSEUCxLBJPF2oQILLNhDgcNWLcZZHrSl+KllLvC1fAvfI6kp+KItIJCbL0vXRTOgKFGFEpuxQ/Y1yfb/gOwrFX1PZNmibjDScPKFAmCOpjsPfuhLl9C4IdL6F5cI96hDBh5coKfKZtqun+AStZfLSjC8MnD1l2JqxVZyOteAj9MSQz02q5RIeWQp/lHHMP/UpPtFjPtna6LQIKalWGEpavhnX5tcitMl0cQc8wutsLl3RsKRTtlf80rdrG71LRO+AIqTvZQJFL+Ea/K4uU5jNIJg5A27Ub9vMvI9/2AtLtLyCZ3s+W3oLj2nAt2UzGZAXbqKdkIlUbhTXLYfQvQFwLURifZksI6CZl5jYtBIGU0kpIU5axibb/764I6OSxQUGds2odtIuvYpFKtMzzA4qOO6+k8OKHdctRIZLMVWofl6MnjyQNjzgt0/QWqVhaAVuDZTYQNnZD2/Mwsie+gvCLn0DwqT9H64ufRrzhQVqW/e3lpM0YlbiJtGGitPZtGL7l59E892yMsYnW0xCRbPhCEyHhq4z/zNcD1m3b09a3XXAZZX2/v3U+eoY67Kdoi5hMWZJAZ+ycUiliSrufxeOTgbCJCq1abjuYtjxMmA5CAtn2PIyVDDS9DFYwBfOlDfC/9nlMfPJP0fzb/wpz84MozNCqZB4K1qDUBrDybHi3/jTK55zDSNdCk+GrzD5T7kTAQX3MV/edQE3ck+nKMwazoOg+/pR0bClE1IYtogbDYv7ayhALcjLJrmXjGKuMk1uGWOw7WNCi2Y0KmKZ7KNVJImsuGtRw1KPB7vVhNbYiee5e7P+L30Pj0YfJQIuYoFecSBlVFWxU174Vw+esR7m/V7kNnW7EkikESQZHo+NRnXjdFaVZaYEijJ4UQNqf5gWCumrdbzAJYiPGx5begJk3MbF0Naq5h8iYIIMvz1765JDBWhVFv8jQUUPdilQIl+s+CnnEMM+HrPtuy+zomGFp5CBPbMSyL9jhXQj+hnTrr/89+idfZl0wKgmKZP0mght/Dc21V2KBXKtGV8TfZORS09K9LiFBl0WXVXYYJaVRgpm+xXBj6jirM4IiVZaNRbosnVsKIZoaf84kU8Nk3EOJEKI3gZT1AsI0wa6nH8HYt+9DdWYMRXqQKKErohtaum49ouIQtEIRaRor0mmbZBck3t0WtkMKIxBDniElqVSNU/Q9P5S+I1BIRtqZkb8yJU+6kg210st8ZPKHIU7Y3lsknDwE/5H7EW/8DglrjW3AomlhKdddDH3pOiSMVqSB6DxuyVNy89AoxFUIhRVSL9Mf6dOoZ+ktUbfuunQEChGp/Pa+HyYsr0STTF+nwqY3h6VwWMkmuVKFDbOwbwfqzzyIbEqIJyMaOaGyEJWzr0CDvl56G2XqgIwHzcscVda8bLYjK9fI5je5Cn9lRizlpAMFfy5E03YZ8imyKZbizQGKxEyRxBGclEQyasHfvQX64f1qqWkaRFYKK2jNeQiJEt2Q8R7qgt/Nl6UUS2E4NqOPEgEiR7o/EDYnxwGKdkROPbTXvlKWQo7MA3R/CDKdySb7tAKZhchxEDfrwL6DdJYZZPGYSOqkd4ihLRtD0lKr50g0Nj8hqeiasLNJKl1PgULupFQ9D+ruGBRtaStA+irmiOZ8+LgfhsROigpJZBzp8C0XnkdfPk1gJBE9etwuOU14seSq5ZASug6ZS/k9wt1lEeskRFOetfkBLJwsoBCkys5AyAOaVn52PNQWLEBfzLBJdoWbB3EjGR63SeaKKJMEygaHiRmikPk46FYxqchXhio9fjEJYMp6ESSBSUo3kCQqxbMpVRGCFKAN6iNJtaFjhiy/OdyDPApRzGLyCF0tlC5WUhlvedjF1NW4iQyMyZpUeTIP7jPXUWHU0+jvQ+gNq+d4vbSFmKBMZce6LkvHsFbma06pKlRi9DFPrUQk0mtqEk2U1pjrFH6UEpgltLIyVgcHsFhnhece9sclTJn9yFwbUXAIFkM4WT9CQjlZQ0IWGZHwMSUBaDvAI0vulODPTEGf2gdXlkaSKKO6kEV1ELDcquqDAFHNV5vLgUCTjRbUkjfzIDKuYlizob/cgllv10H3paOrSp4UJCSAlv+ycIfntlUsPVvzIfLkuCUVHyFgpYY9C+GdcyXKV9yGbPhs1OAhigOUZcsDNBFKF3Sxn7+bLeJs/QsgpAdSwMFov33wCCLLNssqlf0yrR4R4r7FwKLVjDRk7RiCgCQ0PbAH+QytZe7ynJzAlWUCul9RAkBpcBa5jXqKWqTdeSFvZl+7Jx2DQjpzFVL5Ibeo5GKJhltCpe5nUkQPqXbZo9PwaEL70Hfp9Rh81wfgvPcjKP7Sn8C7+f3Qli8lBuqwk0m1JXUWkJiRLM6BV+Y8xCldCV3K0W1EW8Qoe2T7HssW0GoU1q0HhpYrcInrMJMmJl98DA7NOkhGhXzK8ljpPBRfQCGby1nkNe0oT6TdnT4f2u4M1syVPF8soBACJP3xMsDU7rrq7JKvJwWrjzVFry1LDXgVlM9kOLhqHcaGhxCeuQ69t/0shn7mo4guuxMTfauRGzb60xlyiVi5CsmZ6qbnq4BDLTQyq94jiamHaJJ/HCZLyVdeiLIMVxP4Qkek+wgjO1Db/AjzpdF6ybwM0kxaofnoppBLZsy56FhWI1S3mC3LfOi7Y1C0c0bfLK9sTZYChch8YFdWwDPUVDeLJrqoHm1PCcw2qbN0kq4qQbP+Hajc9ZvoueujiM+9HGOMHoRPSKgcxTErNCMnaHMLWYXmWDl1spraarK19CL0Xv2TwLLT0TLoHnhrq+7Df+pBOJM7WEkxz1NQo1PRmafuV5L0UaQEgfSwyqisklk3PR/a7rwECgGzhIvoNRhDC5rbwOi+1M0IekF6DBvIpw6g/vyTiHdsxWBIeNCtyDxyNYd1oA+9V16HBT/36yh84HfQf/pKVMps7azNKAyVhUjpPiJakGPlNQ8nUB5egIWX3Yby+hvJWWTCr0wgYolnprH/mYfRozfYKALEMr+BAJWOrfnopxALrNyy3Saa7XwfixEdn3Q2m1uj4WUmU2bQJuemYcPY1EHoT34LVhbSt3Z3zqCI59ISke1LN3LCypnatx3Wvs3wwn3IVl5Dt8KWpJEvyBYOBKjdswBuaTmiG65EfMYF0LxB5E0CYnoCeTwJw5GowSRXYfga+HBkv/KYnIP8IDHL0C//SWjv+BnkN1zPm1dR8m24rRgtfQbNz/wB7JeeY66KrCCxOqwmqTSKckldbhmOWjuzjGT9TXBWrlORlGx1bZDEBEJAZ8/rlnS4Nrf03rXjcysL+NnFoafuhvVfPwqLrD+2ur+NEaGGjBXo0lRbDM2aBEdLNlajFVhw4bXw3notonWXMlaogJErCjLr2onJKTxF2I2kAUyPAHu2I9ryEvw9exAc2E4Gx/zzmlnBRj7Qj8qatSidfS6w+DzWxjCbfgGH4haJNDlKYwytBx9G696/gTa5fzZnPyhi6rtNLMycvKjQD/N9H0Xl6jtVz2ZMjViJDd80ujyX+zhAIR0qAgozpVI1F+PP/zOMP/4oELWQyvyELkss96KyhXuroSACw6dfbUQxGsYE+pafj4EL3wb3/OuQLV2FpFBSrdaRziSa9xZb1NwC7S5djslst8xJtd8HfQrUqrk64wqbDF8InWajKCFIAjTcgGT1MPTHv4v08/+E9PBWuqojdxq1LUV3QWHQUuTlYdj/5jdRuOKdtBTSp8rAOGZkZBnqgepuyvGxormyi8Vwqcx52pREJCUXkF5DWYo4lafTAiqF0UGVfKZiDyHZsgUzX/wEGn/7MURf/SukDBe1qRpCmomY4HGIjTIry2VKnRxBlcCgSfbcYZSrS1EsL0a5wPdmBaXIBCkMplk+30tQGn0FxXvvg/+VL6E1uRmZISsKS+GPlLov4qp18gnLZWMjeJXCJc1Tn1DnloL+TFqvlYfMm4Ng77OI/+DfIZmZ4rcyTNZdkSsKnbQIOnk6TUYwk4zkkzryZDsJRiSyroSwnNgsIl22FM6Zq2Gccyvc3l7YJKAyS0aRNpZYF/CSbILmVzoZgkw6xgg8Xkd8tE3ymrbqSMhd4kcegrbhSSTTe9F0ZVlFA0Z6jPbUZUsh5soaXoHyh34L2rnXKasW858VGggdHc7sWd2SDtfmZhUpUNC/07clkq3DLyH42K8gnCKRo7nrtkgoGYaMGOi2TBItTZMOqJAKknUtmZ9IWlFJkUxfi0nCGihlDEN7lsJYvBTaqrOQLFmDrP90OD3LUSoNw3eaRDUrV3pkpSwEGgjqaGwM6dgmhLu2Idq0Gfq+vTCiGYKOcKcrUkshd73ijy5CrZ0lq1H9xd9BeuZVyryTUsPyCQqPVrB9WtekI1DkbFHytFKkySBQSHCQ8DFmb/3uL8MfH+UJQj67K1ks4wo2refc8sMEiBYQHCS25hAjigbsvAWPINGZn0S2e0pJSBk2FsgPCiSluukhq5SAoT7oAz3wHALGLSISFyNWw68jmxpFc/QA8okDsP0G3Y6sJix300ha5VmsAhLpr1Cb8p4YkQcR3eVrCYr/hHTN5cp5yJpBVougKJwkoJBtHWR9KencKTLaaEmINDWG+h/+e3h7H+I3qs+vqyIdUO1h6bm+EKF0bXgog08wyLZrajVc/stgUm3yDLz8pYfI2rOiclZwxgPyMI+RyxLShhr1lY4t6WtASrDRlcjzodJLKWMl7btJHqQXgpZCQnJ15MRIlvnI156P6gf/APpp57AhZu2J09IvIk8EsXF2U47hGI8hEpPrMqCkPvAirAy2RLtYYXR3ZFZ+vKLGL1RFSBdZu5usXUUSUcgT5cwSFSVgkHWgpNLkAWiJg0RlMoUtJRDUOho8T2PolCS0cmFTPQ+bRz60OFQTb+Waap1KRiNqRhWT3E0KnKvZ2u0O/ROVhGA7XpEBl6dywpyLGhS41ZsuS4egkCigHd5JtuVJBIfWotDbQ18rxfixdFNkUrBX6CUnLpArUb/EgYw9fQ81XZbOQCHCTM0ZLXmVx/P1nl765lMHFOJm1CDZEdLJJKqH2JUY2lMTh2VUTjrk1Nt5ILwdWgr+V+aa2DDFnNGBaBbywWFEDAdPGVEtTQpzhHQSSWa7jKIG1T7nc0sd0BuS47SB0W3pCBSCTQUK5qi9bg0jEcuAufQ0OP2L1Tmngoh6j5VOFjHKZViLFiN0PCRSY6J8/hd8zMduRB1ekUBQfRUSGrW7qhL6EGsp4//hpe1TfixdE0tAsXAYsdteR0OJgELS7MduSoc9mm2kSsrEXBBbEQmQEdaRPH4f/L/6PxFmJfo9E04+w4gkQKoX4GcOTLOlhrFznq/+zYZ5asi5TaffxMLIjKRAo+0XLqDWtWBzl1naeixLqMg0wExVfKXci+YMoyGrgL6b7oBx54cRkWyK27CkQZLJiSuRLTVFf92UDq/GnLVtFy8gj8pJPwAdiW5DW7kO7pnnMWLV4GYhC1zEdFpCI/PgukXEqawHyXhFOIjmsGCO4iOxxuhbRivfxCmR7mlGZzJTK6beEnll45DnUzM2mtglEGw2HOqx1MhhBgyHl6+Ads75yLwqTIJInkVRIbJUgWqcfNNl6bBHky2daa5jR0R1/kiMHzagPXsPDn/xE/D27AAKCzCml5CELfSiDt2WAbN2tK2SgIvKkbIZut++2JtWWHaZCSS64yeJcsRCii7DSEeLFiMrJRhoBug5HKE2uAjp++5A6abbaGEJDtHV7O9eLd2OljoGhQBAMjOX5oTQQDz9CoJ7v4jwO/cgGtkPk+h3SUTzoAlT9gch4hO6EDGfCui0OO2NIean4+ukEY06YLmTRJYQoBswTcgGdaKCPKbm6Dp8M0IQhHCdRei/9nYYt92BZNEq2Fl7Ks2rdd1tMMzJcYNC5NXAkGGqgJXrHTqM5LFvovbgp6EdeB5Fu0Q3UUUqYxhy6g+wJOElIt3uxT/ZRFRNaq4mEtNKzM63lM+y3Z2VxqgTJDNLliK/5DosuObdcIfPV+rJjO/rW2S+ACHSIdFsA+PVr3OuRGYeyRipKz1vkyNIN96N2oZvIti7D/5kzII3lMkUByL+UcYj6HFnf/vmBoXaZJ9JNCYWUuhiys9COoVj24Uqek47G+5lV6N1wUVI+5ajksp6XTxf1nWclfkEhEjHoBARQMwlAYXKrFyNVkR6MGSa20zQQjZ6AMVtm6FteQ7B6G4kfoDIZxQS+iSohAJ/K1tCt7LuD7mfTGKQUMvavwmjh0hcqKnBLLhwi0Xkw0tgrL4A5WXnAovWAqVi+9FMeQhK7Er+L93HfElHK+6+OmNzlkKOyXsxi3zDIzSTrOyAahAj6QQkkVOHaD0OIKELiUOGqQzDZABK9vVUG7PI85pvYtElOqN7UOEoW09GLmU6FmxyLr1nEBhcTHMh0wjZwESFVKUM0ctbWcbxRElHoBB5LWLnwCFydDTznJzgkBf5xN/MJQGS2eUh4JNNpJjiMkTmdPS9VyGc8zALvhPpCiheDQiRo4OCojpeXi2zv+0oF6eYiFqOqhrhZB12G3VZjhsUrwbE3PtjgmJWK+rva057k+wte3SRWWFCqmfLrVzt9+RNAoojAULkWKBQHJQi58wBQ16FjXeUkVNJpF+GSWROR9/Xlehj7v0PVzoGxatlDhD/GkshPfWvlbnT1fjHm1hkGt+cHAkAJ0vpjxsUrwWEyLFA0baQ7Vh97lV+K7+QTZrezCJlFUb1Wv3M2YiTBhRH7aeYPSqdKyLqQW9mW3oSpEzyMG2gh/AmxqAfPIDm1H5+58ORFW1sDYXqCuQ9S5BVB5A5DmzpzEp4vdmHx/TpUWg7HmcIVgTWXAXfMODJdPs3sUi7mbOUP4iLUxAU8q/dQ6/JdrDqKyOchL/jKRiPfBvelq1oTE1ASzLYcYpWMYHZuxT5wuUwzlwD46x18E57C0KUYYpiCI5g05PIvvb/oNC/CNb7/hhxpQDrZNHKj7gco2kSCmqsvj2SJ/RIwCCRtJm0WKmPI/pff4nW/Z/FeGMnsGIZKusuh7vmYhQG1iJv1JA9cy8an/p91D7+R4g2Poos9ekgBGA5Ur+B2tghTB8+BMQ8/mNAnDRyVEuhRjAJhbafp9vIZWskAiJlM9+/D/EXP4v6o/ehtP50hDffgXTZxTBLVWR2DKfWBMb2wNn6HMKHH0XYtFD5yV8FLruSF5DnME0Ez3wHtc/8FozSAAZ+7a+QLVoAXTs5Om9+1OWolkIgIVPt2k/KyItYCxIJ2R9698swtj0K47QVsG/5ZRTP+Un0FFaglPTC06vIe09DsOZa4OaPwvnV/47Kh38buGY9RmS8S0xCRrhFMVMETZappbNtP0/xYzkZ5KigUE9BiUmXumKaezpLVoVr7tuMmeYGBOcvQX3laaiLMZFkteheWnDTmppeVicA4uXLkJ65gkdlhYkJJl6DJkfWmPAcD7Zsi8330q3zYzk55PVrQkAx62CEcIr/D2vkC3YZVv9pKBtluMk0AmcCNVqCEL2IDRMly0SZpxt5rOYkFuBhUczv1C11GgthFzIIptNQyPQ0QeCP5WSQo4Ki/Tgem3+bUpAFSOKH3ELi9tH0F+AfrgG1CE5cgRuWUfI9OIxZk8yW6BMJrY0KX2VZDcaiedq+qmAsySO1fGGW0nbQcjgKchLb8JdygrgstcqazNIKeJQHZHlCGUidfZEnWsFAOJP9RXlMBlnzVI75/L6lviFK+Snje/Ic2X6Sh1SXSsqMiueSjEo4JPeSBqCSPNIr/+jiJGURryv5ki9nz+OFk6SBmB/ljpKPtoiTleA8QpTw5nJ9niQb8ImnzBidpfytnKMameRFMkQ9SPGEcamCRGx4kM38qRO5hnwRyHkxf8uGyX/y03ZeuitHBYWsFiOgyGVaoZ7B4M2NzEBslWGvPAOyCXv84mPASw8z002Epo3Y09A0G5DH9AVEBv1PThCpeIMAyXRRiEiiLIhcExnP1AREdDWJjAzIBNcYgRaqokfMB2HXVpaIXIDaEEBI1ck7PRAFywp61KUKY5hfnqcThPKchFxDKTAgU+JxWVeD/g2JIbZKako+8zwej3hiRleZ8iSNP5adjCUsD5hZNb1eFsqU+mf+JWdq8TN1cVYSr5PGPMoyy5SBSJi5cCVZQU+PIEtaMGeEWXujW9lSUoogDzS3S5QLvJlHFeMRElJcdVNEttyI75U+28eUItS9uytHXwiNFaseSVPNqp0NEVluWZYczGoz0Ldsgbb3WbSM/Zjqpx0pVlHICsgMCxZrUZvt1Giy3tWio6xstRW2zPJ+ZS+S5x5VC5S5V92OZsFBsUlITPD4vucRHtiEfPIwf5KjUOiDxsoOqX1WJSydkA1lSjz/6TYryYNmUtXJBCOjPdC37uX1D0Pn7zNzAgW9AFMrwee9MzMl1034XsMUaihPHUa6ZStmXFZKwYUXsTprEzB38Bo7d/N6TK1xGjqyHtmEJW8vhSBt3ZJFUmJL1bvsjR6pWeqsu4aG0ugY7MOvoLXvBcyMbWWYdxie4MMmEad71WSTfbkQwdWSPctlniovJM/Iy/JLmKYt2PcKsgO7YdZeRpTu4H1LrIAyy8zfE3xawt8ZbAlzldMlOWpIKgdl7qBMNP3e4/g0cYZkQtaR2vkyat/6WzSfuYefI3hLz0fvGW8FVq5DeNZSaJVBtRW0kTiqwyoh+KWssmiXloYInn4Q4Wd+H9XqEmjv/134Zh3ehofQeHkTK4IVEpCaFgtoDg9jyZW87jnvRrCoFy02x76U5IVENnHYivnZkVUyXvgW9I0PIn1pG+r7R2nRmsjKMxjsfwucdVeideWNmF68kozHZMUnCBg6j5MWL7n702h+9TNIb7kDpfNvg75tN+KX/oGV+RLC8UkCO0ShbxGs1Rcgu/AqGBdcBlQXoEkTX2blGD5rhA0n8GjyGVK7rcOINjwK+7uPA6/sRK22H00WutjbA3PJWXDPvwHGuVcD5YrSqezj2lJEWx7UBuz4MIynHgUeegSNPZswmR6EbWqoOkPIlp+PwqW3QLvwGoS2Rt1msq4tgdKun27JUS2FAh8rU8YlBBSSZHealJ81mZndPwRz9SI4/b3ondbgvrgb9aceRGPjt+Bv3Yq8NQLLY6suEg1szdIHERNLwjk028TkxA6EL92HSkhe0qBiHv5HjD70ecSHD7OSC3DdHrakENO7n0a84yGYM0NwVy2AWahCp50PNALWotNpTsB/+H9j/O8/Djz4TdhRE+lwFWkP8xhPIdm6H8nmx+BPMk+9FRQqqwhSgylmS3dgPfwtpM98FQWbVmjLQTTvuxszu+9hC6T5rzjIeggiWsVo42Y0d7zM8o/CGxpCXh4gyI32rFK2cDZ8WohR5A98FjNf+xSmnn0Edl6HO0SKLRHWwTri7S9hZtfzsC1aq9XLETkyn9WGy/wo19SYhnn/5zD9j3+K+gvfhkMX6pVLBEs/9JGI5fgm0kMbYFcqMJasQ8xGodEtyRS/bsox19GU3kwZvFHbE6kD9IV0yiHNd8BCWIVeOIvXQDvzfGD1CgT9Yg999G+ZBp5nS9vyIl1QHdaiPqKhF7Y8WyhkkBZ/5vAOpM9+C9qhgxgfqSEa2Yqe867BwO3vh/aeDyG6+V3wLrsKlVIFtV0Hke/cBX3ZkFrmR8s9kl22LLaq/NEH0fzL30IxCNBz0VthvueDyN/9QVSu+Fn0nPtTiNcMwDu8D+WnnoYzHUCjtcgXLGDJclgkkMGebTg0ug/xzCFErDCjoKNwy62o3vx7KN34AeDtd8A8+0KYlg3j0C7gxcfJGyIUV52FwK2qfdKFc+j0lcmGBxB+/u9hzNCVXXs9/Pe+F9Ht74F52U/AO/Nytc735PYNqI1sQ++CHrXWd8uqtDfkj1poffefEH/2r+kaZxDf8i44P/mbKN7wa3CuppW8ZBWK3jT8bRsw8fJOuL0LgNMWyZM0tL4nEBQi4utEBBQKGLQYAhbJhiOzYgya+N7FiFeeh8o5F8Nbdwm0FStJKmM0925Dk0rP/ADu4CKgt5/EVZYk4rX27IPz9GOIJ0KMD67Bymsvh3Pjh4Hzr8T04HIExT54vcMwqovR8oso7rgXIz0V9Ky4ABqtSESflLz8ONzPfR5hYx963/leaO/+FbTOfiuywiD0QhlatR9YcynchXRRk1NovbIDcYGG+rQVJMUDdB45pjZtRPYywTA9Cvv001G94+dhXftBBEtPQ1qVHtp+JENrYK89HV61BH3fQaT09RorVF9xJoFFFbBi4kN7EN/7aYQjh1C56iaU7ngfkjXXIvWWQyuz7EuXA8uXkbgyOtn2PMzxaTjLL0TcT4DKQqk7n0Zy75fgMx+lW+6EefOHqUd+31NGo1KCNrwY9tK19NQ6pl/YgHLcouU8h256YZchwSqeff2XohAgbFk6u4VoynRSUYDUqHBjMmah3axh2fdFgBIXlxAcV6B2y+3QPvhBeHf9FM2wjeibX8f0Q3fDpzmP5TdUTIEuwGWYarJQfVfcDO32f4Ns9blIzBJK5AsDjBUNCROp/MJbroYpLG18hABjgMmM5HzNX94M0Pc31l2D/MpbMLNoLaNLA6UkoW8mj6f5leggPe86TN92F+o9DpIXH0V+iORNykeTZechBoIxDLDFFs9/B7KLbkVAqxZrDRr2ABW6O3pB+D3LkV52HcL1NyINGeBufJj5byqSKdYv2b0FCd1DvmIprEsvAirDKDNcH5yMUakxL0ET0fBCFC+/Ft7iVahtYWPZtV2ttJPLWqRbX0Syky5u1Sro669BobgYDg9nyWEU/N2o1OnC+y6AcfFPwF2xHNkr24Etu+B8LyzrnhyboUj98Y8Ef2IvdCpHLbHEV4m5Ve8FQeFS8wXhGhKL8zeerHo7dCGcm34J3k13opjXkDz8VUTbXmbrpBeWkIuepKW3oC/uxaKrbkBaXi0rJsGkZXLIznNGComQWhIqjb490fvQP9FC3gxIIslV6j6sbVswXaih+pZ3slWRxDFHBen7IDHzae51ElK12BHzZpy1HqXTV8HYP4Lw4CTscFyB0yokqDGMjhYuhL2KlVmimyPprWRFwp6/tgNmQZZJIqeqLoJ5xgWIehiOb2c43nqprYcoZaTxEqLmDCyfB559CcHXv4T6N/4C8YP/E+E3/gr5174E88ufRfz8U2wYjCKCBonkk4ijCUVWk0MH6A7H0MewOXv8KSRf+RtM3vf/IfrKZ+D8wz8iuftTSO75NLTNj6KcUQfjNbTGaLVO5M5A8mifgEFMoyU1KLEWX0IxFEy2PBMpcbacyzMDtppU8+lbSb9YCYlJhTNE7bn0Rrhr1sM6OIFoxxNob9WUKwKrkCbd5yR1sj30sSQnQ8+ofPFmfEdwUKmTY2ytOaqr17KxymP6zC0jgpSsXF2NWWxIvwUtkmUMwhgYJB9gKH1ohOEjSZ6tw60l6M1LCPoYDSyUrap5ut5eeEVIpCG9U4k8PS/rXzFkHVis9hPrqaVojE9AAiFoLSRN6d6PCY4tmPn2FzD9tc/CeuhrrMj/RbfySUT3fgL+P3wK2Te+juKuPShrRVg2w0sjZ0RVx7SE01oT8eh2jD30Bej3/E9Uv/hnML70OaQPfBkz9/8lml/+BLQH/hnmyCgiZjEsB7Sa0pvRXTk6KCTuZgsR8yiWgVxKMeScKDXJF2QNzZgKj+RJaokuhMmzYiyx7dI7RxVK5BouXINs+AxUWwmK03u+1/ch0BAroziL6uQ5Niggz0aIGdKlwtkyGaPLZi5CsmLPZl6EIVB44fa0PnkjFo55lMvnRUYz8o30Z4TMgnSts1VKTxZdjvRHxSWeK8aP3wlwVVebAr+UW8BCi0ULJONAVkRopswJT40N6cSSXll+Pncd8p94B1y6K+fmu2De+E5azJtRuv0WVO+6He4t18O74x0ovfcX4a2/nqij1hKf+swYulboQi+CdtO7oN9+J6zbb0Vy151o3nkHjNveQQJ8O7wb3gPvXb+Cys/8O7jrrmA+u79y0DFqgixCGhlbp9AHEZOqc5vjMNMGdSVdxxJrtDv41NNP0mxawj6EfzCGFiBRma2QF0hytjCX11RVJ5dX11dNf7Yf5Fgiynf4A1aj6nLWTXmApg91XrpF/1qQAFEqj9nVGbwLC8pY+RZ9eYsV7TBUdcdoJYQ8DpFk0j25EaHLMLVFC2NPTCMdP8irpxCLLF3wDYG2PCXPexPTBH2CoD6KVout0+tDmQRbdhSQnlqLIWpMK5UsPAvVGz+I6i0fQXjVh2Dd9n/BuuM/wHj7ryG44yOYevcvofluRjW3fgCNVZcgICBd5mWYkUyPb6Hccx4G3/brCN/5McQ3/xbsd30E9tt+CdVrfxPWOz6C/O3/FvpP/DLc636OVutC2A0xVd2VY9aG1JkhD+hIY6HlaI7swq57vojW3X8Pe/xlFGnyKlSLPOsoi9UqcUxorBQZy5A+/OJBMv69WzAhK+bSYqhNTMSkCxhoKViPlFnLcQyRB5NVPM8cx/LbQgXWilUYyQpoPHSv2qnHTVu8ZAw/CejOSDIJY48tsQSGyPs2wd+5G83KEMIhRiMMD40ohO8YaLIAxfEp6JueJ6k7KHeDRYsQEYQCDF4GrimLmR5C/tKT8KdmMLOaoXjPUurIYHEYrpIQNxk+t/buA5okoARTUHQwUyyiUSB4rR5etUoAkLuYw4hkpTvXgkdirZV7GeEMwE8nkdL9mAYtsWfSOPainJfhZnRtWi9qnodWH1O1iElaR79ErRVeT3NvXI4KinbYyQrkGWIoxC7Y0TSi557A+Bc+hek//y/AfX8P7eBmlNIpnheiwYqQJZDVSERApBzei8b9/wD3wAvQ161BtOatvCovKGEtk7IU4k7IM14fFu3vJS+xTMYpV9F7wXq4K9eh/OLjiAUYYzukS5BEk5ZK7STA8+T5VFZk6xtfQKM2gvIZF6G6cB1Ci+7DpTNhFCN2xQinETz+XSTf/Q4rdb+6UUUrqO9lZNhsjCF44kGYj96PXocW762X03VWWBoDJvkBFp8OaznTjo3Ad7/EvGxB0ZJhrxRxHpA8E3jMSqlRh1vfTaIbwKOKzLSOkHltrb0MrZVnY2rfoxh76uPQ6q/aOkKLCF5myJ5GMdxHN7yfDbKmxoZadJHdlmP2UwjJZGNGSN9tmGw9roGBqWnyg4bqRBlnSNU4sBt5SLPMWFuAE7G1ZvUa7AP7MLbhIYw/8I8YzH0Urn8n8stu5RXlaXMWZGQ3kme/A9314Fz2dqRuL/kmbybehS/CYQWxGsPLaKqG4mP/xDyUkV56FbL+Rbwfc1ckgWyEKL78GHYdHoUfJCgXPGqafIBhYzQyiWzH45h66B5MPvsUvGUL0Ut/ba5YD5+VJKQ03/Q4nC0bWM4Mk/VQ3Uv2CbHYQtVSx2jCHN2P+NknMHL/3Sgf3IXCuRfDuPkOxGY/85zzdsysaSBtjKNAa5McPEA9pHAqJVo3cqlGAGOULmdkJ6af/xp2PXkf9Ihh+aLFMGzmlW63aPehMlFDtOkJ1Ca2okTg2ygjkk11aK/y4CCSVzYi+db9wLc3MBQV0rtCzUtRiuqiHH3sgy14rot7TmSbpSBg8EwLYD/yFdS3PId4z8s0bwzZBhciHliGqFAlEaXPH9mH4MBemsYe9F37ThjXvwvB4Omqe9mkRcELD6H2V/+NEUEZpd/4Q7qds9t0n7cTNQgYbVE2FdocOYzi796J0QXLMfSLH6XFOQ8+w7oqCUvO76IH/htqz2+CdugwSkNVaIsWoKF7kEa+dOfjOJDRlK9dj6Eb3oXyOZeSm/XxDm3eMfPlj8H+4ifhLj0fk0uWwt/0FHoZrjoLLkFjsIK4EKJ8iFHO9jGEhQKSS8+Ge9MvwFpyFoGgkS/5sOlqGGxh+vAYrK//NcJn78ckXUhlsB+9jFbIphC0qMvmXsSH9iMzFqH37XdCv+N21EpDKDF/huyTsn8jJv75S0iffgAlciF34WnwB05Xs+HN6QPQRwmMGiMVupzh2z8A5x3vhe8V1XhSN+X1ezSldl4rlX7gjEtgLl4Lu3eh2imY7AsZ42b90CswD49Q6VT7aWvQczUBcfntyAmIRqqpTeEk0G2wRTb2H0LaPwj7/IuhlwZUhCOgEGciJoPOS3kNsRaNl59Aiya6es7FyCsLIHur2+KG2FL0VStJIBcwr4wi6nQDB2meD+zE0NQI9i85H5WLb8DCa26Fs+YtSEuDbP8GPRYJMa/d3Pw4sm3bUDzrChSvvw3uwEKMay6qB7YjO7gTrYkxWi0P2mkE7VVvh3bdrbCHT4faCpKWTcZIhCfJYmYOrZ65ZIBlHYLHMKZwcBz5vl1oTm2jZTqAerGEdNn5qF52Dez1jBwWLGEYTzcnURhtklZYitLC02EPDCBg5ppj4+RCB+Dsn6bncKnrBbDOvgD6JVfAfMtlSAYXsCzC37orr2spXgsKOSbzNWX3O1uWEhAmPn0Y6dQBxPS7aSi9fFRS/wCMwcUwCRrNqdLMMOvSCUBHmjKEjWtTMLdthmkTAmeuQ8vub+/EQ1InW75ltD6OhKnyG2nymx9EUOglhzgXqVdVcx8kRHUIsibP82ZILCdGmZdDaNZGGYWkKHls2T09MAeGgB4STKu9eTxvoUImcceNe/4EKclz4bJ3w/3pXyCXoBus0SpM7ENcl7khBHIvG0H/MMIqCWKpBy6zJVOFJDRtw5d/yYsMIdGUpNFgwzjM/FAfLGfAMF4n6XRLZfLFfrq/IWSlPjUMLw1BymuywahGQU4WB2N0Y2ww44dgTM6QyNPV8bdGXz+0gUHqkGVyST7VkkcskFpHrHvyuqCYEwHHHEBk/4kMMhvKURuxyVHJloSEmgyYUVlqzQnxPPxSNnwWvyi9AXbK0I2tLCHJchmySL8BHAvTbOVVhmcS7IilEFfVDlLEdPDkrMXEu5hFNUNJ5mdIP4XF6CHnteW5FOFAqjNFBt7Y8lKeLqvcZ7woryBGR+VTdXHLTKrIQOtr/xnR3V+CedVPw3n/r8LyyiTAGeKElkjmg8gPhbO6QnBZ8fytDApK9KTuRxGrKMs9ibdzyWukdnMih82DP2cEFPJaEp3xe5IMTNLtSA6rwpolMVOB6fOtTEp0+Z30n1LPzLCk2PBZXvISBt7SGyK/lSLIjDCxltI/1E1pl+p15LXWQhMfGJRIdhjusVBF6shhMknuIKvTkDc4YUYSyKphXTqJFKSPkGCLo+akULIhT8OVZRLpemSmHP9J/YvixJgagii5rxyjEgO7gtApIqSW5Dybv3f5R67lqG5FWQlHOtXIV3jTzKlR0YyWeK2IVkfj7xxWnikglP1I1J4kMpvch0WS7BEpAp2YQI1onTSD3zvMvC09MfT3EcslPaVpe0aalEI9EcNKM3IGvzrdGMlh6hZ47yLvIt1qBITcU65lUTds2CmRLkWSfKuaFYSrXl6Xd6/AofVwebpN3cnYh82GKXupewxny0JImSX5XiIXgxZX5mF0WyR/R5Q5yzC3bNEPAEO1tLnED7ITkOyrVaQySyYZMT8XiBbZ9kMsHN/avqa2cZTVbaQv0ZLN0vhPF3Mwu/KbKh8vJy/qvmyNMolGnjkRS0BsyL64MGiSpItMFCstFz6tVUKl6hUaiapKgVai/aAfJoI8jSCO2QploxfeXRZAD2R8xSREJLwkUVR5SQlkWhWHlZCwZdatADNegqanI5ld6lEyl0ve+E/G9nSCXKdPmoUIavx+iqntCakLmallOghcXpMWJyewzDTi71h+nWe5VCKL78YaqvTEJhuIqhXpfygwz9Sl2EJZGEkdnyXjonuZoeUqq9hdkcsfVV5rIUTEpQRGgokilVZoIvbqyG0WjsSPTURVjhaV2D5s1Gi6x1moupshEYos+86JBZA5iYk8LUbwSKWy8qXSlczdUoFDqp6n84+we7VwmkyuocrFdCrbKo1MmhXNr4zcqtifranQNDDckvy0ryU9oDIzShY0FTUnuguflkYiA9/P4KtV+1gGniMK9+o9KPt9rJsyW6vLFkzgycQb1oHMpmznTIQZ5ttM/CHf9BF4/XFA6ykWU6wMmzWPS1lEnSYLIjuZ2TQxMkdUJudEfJ/LUDPNblAKUaN1mpZ5nYSCRutg0iLrBEBMtzTN80bp1xoSys4BpMtyVE7xoyCj5DpDn/o48q98EvU7bkLhp36DrXoAEXEhGO5+Gzw1ZB5wduqIq/iFTJxlKzbJC2jSbZolV6IFZYJ+NOVHGhQyrotKD2r9C+jze3iE6qA5l50H/6Xj/NGRH2n3UScnKW/bCux4HvGq5cDqC2g5JCQUAixn/GhC40caFNPkdj3qsawZMlMHTYskmcfluRuZ83MEnv0jIMD/D/4C9pIo9pFRAAAAAElFTkSuQmCC;" vertex="1" parent="1">
          <mxGeometry x="705.63" y="580" width="64.21" height="70" as="geometry" />
        </mxCell>
        <mxCell id="wOMFnB0pq9KEX2PWQIk_-4" value="" style="image;aspect=fixed;html=1;points=[];align=center;fontSize=12;image=img/lib/azure2/analytics/Azure_Databricks.svg;" vertex="1" parent="1">
          <mxGeometry x="968.59" y="621" width="73.88" height="80" as="geometry" />
        </mxCell>
        <mxCell id="wOMFnB0pq9KEX2PWQIk_-5" value="" style="image;sketch=0;aspect=fixed;html=1;points=[];align=center;fontSize=12;image=img/lib/mscae/BlobBlock.svg;" vertex="1" parent="1">
          <mxGeometry x="695.48" y="660" width="84.52" height="71" as="geometry" />
        </mxCell>
        <mxCell id="wOMFnB0pq9KEX2PWQIk_-6" value="" style="shape=image;verticalLabelPosition=bottom;labelBackgroundColor=default;verticalAlign=top;aspect=fixed;imageAspect=0;image=data:image/png,iVBORw0KGgoAAAANSUhEUgAAAUsAAACjCAYAAAAD1zzFAAAAAXNSR0IArs4c6QAAAARnQU1BAACxjwv8YQUAAAAJcEhZcwAADsMAAA7DAcdvqGQAAHwnSURBVHhe7X0HgF1VufW6fXpN74UACYTQe1WRooKoKD7EAgg2qj+goIJKERUQ8KGIvT0V4SmCdJ703ksCCek909vt9/5rffucuXcmE5ggJCGeNbPvabuXdb5vtxMqEggQIECAAG+IsHcMECBAgABvgIAsAwQIEGAYCMgyQIAAAYaBgCwDBAgQYBgIyDJAgAABhoGALAMECBBgGAjIMkCAAAGGgYAsAwQIEGAYCMgyQIAAAYaBgCwDBAgQYBgIyDJAgAABhoGALAMECBBgGAjIMkCAAAGGgYAsAwQIEGAYCMgyQIAAAYaBgCwDBAgQYBgIyDJAgAABhoGALAMECBBgGAjIMkCAAAGGgYAsAwQIEGAYCMgyQIAAAYaBgCwDBAgwJPTZV//Tr/5HYHUsFApmBmNr/0xs8CncAAECDAnRochBx1g+g+S65ehYswx9vd2IV1agYdxoRKqnIlZdg2IojRgSCMnhVoqALAMECLBB5PNArrAK3Q//FX0P/h359rnI5/KIxWJINo5G004fxKj9/gvp5smkyoTnautEQJYBAgTYMDoWY80Df0DHA79EQ3YdcqG49wCozHWgPVED7HQMphzyZUQm7W73RShbo4QZ9FkGCBDAg1O68zzmihQps31IPXcTeu++ESPTbUiHkwiRBX0TCUVRle9G61N/Q8u9v0Sxd61cIkNfcvJtK5PDArIMECBAGXIkvAL17z4kVzyN3J23IZrvQIYadjwaJUumEQpnafLoi1cjX6zDWDJn+rkb0frwLxDKtpJs6dx5tlUhIMsAAQJ4kPIcIikUEM12YMWz92Fd6yJEY7xdJFsWqyhR6kKGxFmMIBKOIRqJo5gvYvUTtyK95HkkkEaENrY2BGQZIECAMoT5R/W5czV6Fz6DUKQXYUqRKJIgi3FSadToVMaRK23TejQSQeW6F7H48TuQ61hNbT5jo+gFU+23DgRkGSBAgDJEkCLBZdYsR+WyBYjGc2QJ64Hkv5M8fbi+yyJNwUxtKIPYy7ci9fI9VMezKNCClHpj060AAVkGCBCgDCQ/UlzfiqWoSHUhQm3beiBDMv7MSxknN9o9zxSpnlf1rcbKx25FYfU8xApp2tl6KCYgywABApRQTCOR70Z+xRJEY2mq4FS5TYIMlUzYMyE9cwbhCPLhSuQiFYi2vIq2x/9IVX4pCVOeZmns5F2NgCwDBAhQBpJaxzqkVi5FJFKktJilkRruRsmLVMlDlDKljEsrL5I8nQlT7Q4jXwyjOr0WnS/cga7XX0Ao9TaMiw9Di9c0pfWM4svj24WALAMECFBCnpRQTGE1VlH5jpJsbNYlDY9UtQskymg2i9pkOyKFnBEk2RMREmc4VORRg0E5RLrWoOWxG5Frf4n8q5mXbwUkbq1Blylq/meeMcnzbsGPEeNLv3O9CNEU84xPjhJvpkCS7uM9r6/1bUJAlgECBCgDyaVlJSrTXZQeS5KZfgvqlyR5piqb0dk0Cxmq3UUSmY37ELIftQGfEOJRoGfFK+iY+yCQ7KAHb4W0wk5iDYeRk9RqE5IiCJPQo6kCIj3dQNsypFcvQueSV5Bc8iRya59AOr0MyVgE6TDtM1jG8G2RMIPljgECBCgh2470v36Ntjv+G6HCGhSpims+peZXFsOU5vJpRCftg6YZB2PFQ/+DeKYV4UgYYUp+BRqRqYiRLqCtNbpHzMb0D5+Dim0PJM9t/Npx+RfSmqA8Ca+H0mKhB31ti9GzfC7SLUsQXfgkOjs7kUqlyGZhhOqakZiwAybt9l7Ep+2HaGUTMtEQogWRuJv9KTJ/KwjIMkCAAP0oZteg/ebvIf/I3ynVdSEfTTuyJPFJDUchi+iOH8LIw89A272/RuuTN6M5nkeyQDsRqr8S5fgfInFGwiGszVaifpejMeGoc4G6MdLVGYr6MZ2U6KRHc0IJkJBbSqsRjaRTui12r0Ou43X0rVmNzmXLkF03H7nW1xHrW4d4rptuizYIFRYR0m02H0UmVIHKhtGoP/QsVO3yPqRrKhGn4h4qVA8gyo0lzYAsAwQI0I9U30Ks/f1ZiMx9AbFcHPn4Kt51ZGn7WJIEG/b/NGqOOA+5NUuw8s/fRP2qJ9ATqQaiGRJKiHZFQhpgidB+iGQWQf0Hv4HqPY4BKpr4KOukzCKJkgyZIwUV8llEMj0o9HUg27Ycoa6VyK54CR1LXkahYwXyPa2I5/voI0mUpK0R+LARr0blSdHq1iSTFS38CLLZPBLbHI2Rx38VfSMnIIEs1fd6s+uT5MaSZdBnGSBAgH6oH7CwbjVihRS5LMk7jpDMkIgy4SpERm8DJGoQHT0D4/f5KFoioxAxFZxW7E9SotYBkShJSNlMBnMfvQnFlvkU/ST+xZGV/5k1lBJfRHbRg+h98kas+cf30XLTN9B60/lYefNFaH/wl4gvuh+1Ha+iKd+KmnAGiVgYsVgckYi3ksjjO58EfSMibe1Yjr6+VouLLdf8NxGQZYAAAYzghOy6NQh1t5MYUmQHkWUJkuaKlfUoNk5BIVwBxJoRmXMYGmbuR2FP49OOKEWSjl6dWh6NhFG3aj46nrgdWP00uhbchZ6nqMLf8wOsuulsrP3zmWi75TtIP/l75F67D+GW1xBPdxrdalZ8hfosqWZnwgkq0zGTHo28FR8Soy51ZASNKCne2jEazyMe1Zg5pdAcJV/F7d9QpAOyDBDgPxrqKcyShPhLwsuvfBX5dB/Jx82lDFn/Ig2vNW+xEBuJUOU4hKlCI9KLfP1kVB5yCtpGzEJUU3WKrh9SbsPGSyRMntRGU+h99i+UGs9B281fR8vffoDOB/4ILHwWsY4lqKTkWBFOkVhzlAqLiIU1ss640aNUpALZsLb3EBmbz3Z05844/tS6dinhfYhnezGmcRLilTW8UwC97YdPmBtLnAFZBgjwHw0RhiRAIJpPIpLqsvmLmm4ZKoge+JySmo6a31jR0Ix4TZ3nTvbCqJoyG2P2Ohq90UYUClSB7ZFoi3RG9Vw0J7INpdrQteQFRDqXoSLdjQqSc1Qj2GGq1BENENGEI1Sxw4gyaGrcdizyngTGCMlTo+4WtMVYNCjfNSHeu233EkjXTEDdzH2AymZE9UDWjVHfOpQbAQIE+I+FI51oMYVQ7xr0rFtt3Kj+QBv9FngtKaxIlbhm7CgUq+KU9iTnxRApUOqMVaJmlw8iMvUAJNOkWtrNh0iAPIpgnH8yIRJg3NR5U5cNAwms//YAuJsmCXrEXYLzWbCpTYUievINiOz0AWDHQ1CMj4YU+TwZU+NBpXA3HgFZBgjwnwzxjollWSDZjp7WNVRjy8nIm94j3oxGEG2oQ7Gy0naszJI8NVVcSxxzo7bD5H0+gGhlFXI5bc+2AWphUGGSngaENkRb7r4jRfclSR5JcqJnPdO6dB+xYtoLS/dol/aqR2yD0Xt+COmmKbZenbIq486nkdIA0FtBQJYBAvyng1JgIRRHJrUWhdw8RGMp01jV1xgm0Zg6Lk06UoNw02RKadW8LzXbH1Bx5JPb/kjU7Pph+kVZLtdl/OX6FtXHKGmSpEWiKxZjJMwYYiTCMLK8nzMplGIhwrks7+eR7k0ik2EoFeNQPWZn1DRNR0H9pCI7+UYJU2p5hCSvwZ0I3SdyPUiN3AZNH/gCMHlnm+dpUXPRc0Kpd3wrpBmQZYAA/8GQfJcmaWRCCfR0ZZFPi4DELz6RiOScCcdqEa+ZQqKromIrRb0E8ZDIcPT+RyEyaTd0FeLrDaC4sXL6G4rZqHaOjBzWiqAsiS9fw7iMQjI8Banx+6PxoJMx9ujzMfLY81Fz5GfQXahDVZpqfF49qvJHNFxAjn6pHzPJGHVWb4eph3wK8Z32QDgaRdTEYUdySo+mMZWT+8YiIMsAAf6Dob0rI+hCIrkGsdULUZlJk3x0P+JUX49YNK8xUtGIWP00I9NYnuQxiAwj+kZP8yw07nIkcpUjvLsO1ucpdVoD67kkEpke3iNR145DcswcROYchTHHnIvJn78a9Z+9BNUf/QrCBx6O/KhmvHL/HUguX4pcTMSep4QpwnREX9DO7STcdKweow/8FMI7H4NMeKSxty29NFJ9exCs4AkQYCuDm2IjwitJfxrLFvQsn6eUSLKKptqR61qN5Jq5SK9+Hb0v3oVoy+s2ZUcuc3ScC0epFueQy8YQ3/Z9GP3pq4DqZnpE/9SdqT5Lqt1UphEnaYWKVKnbFmLdXdeh+NxN9CCDQrSSGjbJl8dMognRmmbUjZ+ByKhJSIyfjkTTOID3UDkS2WidrRJK5PuA1c9hwS3/jfD8B1GfyyOZyFE6VDqcdFqVpRKfz6EjUo3xh52IqoNOQL5yspvppBiZSKnJ61LcB+KtEGhAlgECbI1w3GjIUVQsFjOIpttR7G1DvrcHXYvnIrn0eaRWzke+dTGQXoN4NEvlmOqryJRskiEZZsNxkmASfZlKNB1wEpqPPgfuC2YkYCMiR5ZGrwwjXEybFBle/ASW3HgJin3tyFePRMXoiWiYvD2io7cHasci3DgBsXil80u7AxmtaxoQqY1qeahnLZb84xpkn78R1cU23bW/cJHEHAkjT1OdZtqyJML9T8ToD53iSByVJFtFjr65zsl+ZizLEv9W/3E4CMgyQICtCGrOIhUNlqDQRwGwE+muFmTXLUN21Vx0LXwOmbVLEOrtQDjdRWLsRTyUsRFmjRxrDbimA2lIRoPk2VAc0WIvuqP1mHLU/0N8rxPJGnwaFrlpzXiOJKQBIhGPVHp9SoIE1tuN5OIXURXKAvWjka+oQ6SmBsVYNelVHz8LI0rV3tGVk4SFPOMfXbcEax/9K1bd+wuMiXaRlLXTusCU0V0hFEEyEkJfNITJOx2G2iPOR6F+qpG1yNL55eWDD56Wk6UP2Siz9YYIyDJAgHcV1Fw1oixpkYTg9SnqqOtMJkNpKwV0LUdx1WsoLHsZ2ZVPomvVy8j0dlGlzkKrpDWWLdLJRzROnUFCBFmM0fcE7/vKO6F7oV501ozAtid8B5j2EQXGe6bj8k/LHH2y1Oi2PnemHdPjiOSoljO8HNVk7UUZl4ouPylJ5ki2NuKuawOpjPHv6+tF4Y7vY+1D/4PaUMo+UxErdnl2aCvcjjBV+tXJejTs9V5M/NhZKFZNp//NomDnnzFaQJYBAvxHwm+kWhEDbV/GFi45LmvzEAuIJXuoTi8lMb6ClrmPoLb1UeSSfcjThPKUHI08CHoUJtGJXAskSOev0R3JUrZEZPSbJJoNF1CRrkRlsQWrmrfD9if9GKGx+9M+fZJnYjufgnyCpYe6LX9t5Q7pRaPeBU3j4b2I7U/paNVUZItAQdYQ6VyO7idvROc9P0Yk22trykXcIc0B9dDNOEnQrBy/O8Yefz7jc6B1n8oveacwnKcuBoOhu87OxiMgywAB3iVQQ3VfwyEN5HNIJFcgveIV9C57BWntFL56IYqtSxAvdJE4KNVpn8ewVF3JkSQO4zVHFyJLDca41u/uaTljPirftZaa7khK2leykIgju9tHMOHoCxCq3kYOHOOYM48sbQ6kju7Szu1Cvqpn0xFXhFclCiMZMgJZkmk824PM03/B8r9dhqpcJ+Pt26If3gRJ7cqeyTP947bB5KPPQGTaUShG3QYZFpzZ8yMg6K496YeeDrwzfARkGSDAuwAmPMnkssj2tiG39Am0PHUzuhY9h1jvajSR1KKFDMkob1JcJppAXpPAfWogmWmvyXKY5Ef60AoZ0YA20ijEI+ilQpsq1KO2aRJGT9gGdbPmAJPnIDtiJmKhxhLb+MzhM1D5fTvXifojRcTuociyBI8Q0yTKufdg5d8uRV3bi8jFa+mmRKk+bDf0MTti9FFfAHY4jIQ/kio6g6LXMuVhOvTffFsQkGWAAFskyhu9gwgktO5lLL/7t1j7+I1oyi1HIlFhcyALeanQPIbVc5dHJOxts+MRpCnhJEU2eP+WjRar+RcLIaQpsUUSlageuz1Co7dF7ex9EJ22I/LFqUB1FdJFkjGl1GhI09EHUVA5Nw2AS8P6ZOkcSOUHJeTcggfx+l+/i9q1z6MiQuk2HDc3JdA94xmpqkXDUecgPPvjKMYbKDn3UPKtcTYGRMon5AE3/20EZBkgwBYFRzA+oZTOSX5L5mLFrdeiY95DqIqlSF59jg4GMIWTyDT1R8So+zaDplhAMZehT0XE62rQ2ZdCNhRDtLIBNaO3Q/3UXZGYuCNy4/dApHG85xt/5RFh/Zt26Uawnc/OrA89LT/295gyHpooLjJjfPJhZJa/gNV/+w4iix5CNOokYX/QStDkeKACPfEqjD70BFTv82lejnH9lEqXZ3UgWb4zCMgyQIAtCmqO5YZEU8wilO1C742XYcVDf8KYSi3vKyCjwQ4jF1rzmML2mST6+YasEtfmubkcMqE4wlUNSNeMQWLMDFROmoPE2O0QHT0ToZoRJKF6c2JUaEtt6InnUZ5kq7C0ZNARn7uvGPooKc7lqrbgkyt/NUBFypHqH17zPNbc/XN0v3QXaoq9ZsNsKwzaKZrdMHLRkWg44KOoOfB4FBumMRx9otes9sNcOud+tr3tCMgyQIAtCmqOfpPUehsqrrk+5FoXY+VVJ6CubympIo9kJIZcJG/EImYw6dHckLJENBpF1j6QJJxMpBqhxikkxm3ROG1nRGfshFB1E3KJRsqrCZIpSVQDQUaO5olFQZKkERcvFRM90lCRs+Tu+zEV3ogsnU0aiYSFLAprFqDjX9ej9elbURVyfa39gVOaDefzNtJPMRh1ux6H2vd9BukR02lP0+Y3DwKyDBBgi4NPQxpJVr9eGu2vPYHOG05FbbGVEmXEdg6PIu3RFn9p3c55NKmM7nK1IzBq+10QmnIQQmN2QaxhDEKVTUA0jrzUatOoNU6uP0JUYHwl/0iG5qHdoH8iS/fnWbIYlh9LZOnfKYfukfzyORQ71yFz2+VY+swtqLH79DWcsqOQj0RQnU3ZVxoTsw9G7fsvQJhEX2C6NVlePZ+bA6X0BQgQYAuBT0iOovSZ10ghR0nLfeShECGJhkvk5UuVzvA+JbUiFfV8ugc9re1IdXVSmEualFig5YxGzCO0WSD5yBgBeZ7oxx8BIvRE8MPyLBlKZ4Ph2xto33wjSbeuXYmVz/0LiWwHwyaBGiGX7OmTFtqAMjxyO9S/5wQS/TbUxmOOrCxCfqw2LQKyDBBgi4QjEKMQqtR11VUoVjUjR25JFJKIF7WssASz3c93/A3nEc+0Ib/wKXTddwNW/vUirLjlh8g9dwuKbS8illqNWKYPYXnI/6Hgc+Z61KQbb4mv6Igqdpxp6W4cSf/1GYkkiX9wWvSSCNs2b4jUGMlvCYhcRHjnAQIE2KKgvYLcphahYjeiqxehd9XLqAr3Gle5jSwoeXqDOoKjV03QiSJPaSxLjTVUSCHW24L8ypfR9fK96F60EJFUJ5KFDLJxSpbRKkQ0CbxfwnPk5JYwunN313vmHQZjiFv9cNxaEO8jURFFFVYjt/AFRIq9tilGeRqkblfms8h0tSFbVYPolH0RirrpRM6W6y+1s01IpAFZBgiwBUMEZdQQq0dFVRztHUvQ296FWKTSyCxaoLpqAzoyIlBnbGsyEolUbNt9RyPnprpngd6VyCx5ErmX70J8yePI9PSgIhFjGFoNI7sVSJI844Uw/ZAbR3buzKdP/14J/v3BkDuNpTuyoy36n4hth3WrnkemYyESmjxvX4X0oT7UAlXvIvLtq1E9ZjrCzVPsUxZKnPnkkWRAlu84pHf4Rb3pMntLxuBxvi1F9fnPhqufRpaa31gzAnUVEXStWIRI+zo0SH6MqAcyhTxJzV9v7cjS1W+PUsyoTO37NbJTKCCfySDd0Yae155Hx0uPI7LqVURyLShURRCpqiPJ9tGdtt1wPuhXPjqf14ezMzRci3NEa78kyGixDZ2L5yOR03px0qnip0esi7YmnCaVSiITq0HdlDnIxWppz9k13yxAl65Ngc1Mlm5CgpXrpkkvwYwuIwYLfxNl9pYC9xEo5r0qJY+q/vkcJY4imxsbk5vMLKjmujOfTAMS3ZRgWXhHMUMuEkW0biIax0xEd18SbS1tyFNdjWnAh3ZsutB65eOVG/+0UYb+/N3P9RsNZVEV6kYsuwZ9K5/D/OeeR19vDKOm7UwLlWQIkjTLXgQs+36MhsKGnzg49yK5ItMSQaK+FpnV65BZtYTEnEGY6rhQLGg3dNnTlPQ80p2tqBi7PSqaxrv06d8zkkI3VZ3czFOH+HYrhm2kDzbONzjRZVF7s1iaU/3IoipOxIzd7fdWVYrQtvSWbF6ZHWdhayQCv3gL+bxt39Xb24vOzk7MmzcPS5YsRjdVsAKJMpFIYNasWZg+fRqamppRXV3Ne5WURKjIqbHQD2tqfhZthXm1ZUMlkAQyVTylxNf5KrpefgCtT9yJyIq5rMa8p29zS9W2siGJsNzc+m+jKDvK5Hiw0tOa8Eie1xlkqQZH4tWonPlBNO3/WYQm7oZcOI5qm5zuQteJpD13vj7MzyGg2uO1PP5KMlRrjyCU7QaeuBXLbrkC0ewyxKJRhLU+XWRptkKIMj3ZcAS9238U0485HYU6rS5SF4NPkvSH55sCm50scyzOSLobhWUvIrV2lWLE+zQ2faCkLr9ZNJVxtvUU3065ikZEq5sRrx9NlYLKSjSOmCboyj9lLCUozXd17pzqovtbG1kqz/r6+tDe3o7X5r2Chx56CA8++CAWL16CdDplRvPttCojzwyprKhABc2MGdvhiCOOwL777osZ22yL6poaRJR/UuGsEuvgH90hwKaDylUvv0iuF2hbgJ5XHkHyxQfQtXY+CWiNfQM8RiHE/UkqdGQpUwix7keyiLK8Y5RRQoUQOmN1wJidMXXfY4DZh6NQPQrZbAHJJOtHPo36+nqT+qzHcaOJybVft+uQKFCGlYbkbBsWtSzCqr9fgp5X70U1SVsfqLBv9ciWrNFZOlxANtqM0ceehsodj+H9ZtfWLS6yp0q4sfHaeGx+yZKJFFkuv/169N33MxaKslKkppz0j66CDAfKuA7UoqpxDGrHTEFk9AzUTN0JtSMmAjVNQLyWLyNtcqqS0D8z3UYCtw6y9NVr9UmJJO+++27cdts/8X/33sUGkEM8ro/cs+FYfrJKMslyE4lSEuctVcJUKm1bZI0bNx4f//gn8NGPfgyTp0wxt+ZAePdn1bsc6sLSZroqa0pr7euAZc+jY/69aH3tYVS0r3TNh+UVkbRJAUFlXghRciNZhtQHmqtEuGYiKuZ8FA17vgeFEfrMbS3y2Tza2trw61//GrN2mGUvzlg0Rjfl5DRcqJ75kqVX5/gb0ucheIyl2pF/8TbMv+2/Udu9iJKkrEkWlSXnIkvBKVWIoGr7gzD+6PORb96W9VQvb1omm7r4/IeQZTjZjlW3/hiF/7sKsZgKhY98svQw3GiGqWLr05gaOUuhCoU4TXUjiiO2wchZ+yAy8zDUNo1DOMaGb1WNxlR2vTd5Z6MqwpYDP39EfOlMGi88+xx+9atf4r772Hha21DB9IrsXDX089I/d9fOC9cY5F82I7UujH0oYZ52+unYZ599kKisoEXm0bszm7YKqJjUcqSsOhriy65QSUmT2lhqOXrXzEP+lcfQ8tqTCLcuREWuk4qaqEmlTxdZtg0KE4mZe2Lkzu9BfMIhQGUDegtR9HR24oXnn8ZVV12Jp55+Cr/85S9xxOFHWJ3wSWk4bcSvVa4boHTtyNJkXCSRcFJw51Ks+9sVyOoDZ9EKtly3Y5KqmfoulUalN1QchdqPfBsVe5C8WZ/d2DpbrUfi73Sl3KwDPNqQXskt5DuRXPAo8kufZu4q8a466GhvTlnmbREaS8oyUdMKJKIXqRra0e7rnA/5jDlufdNRFkkk045i23L0vP4M8stXoCKcQmhEI/oSNXSTQJLu7aPtrjSHVRm2FIjUZHyJsqe7B3fdeQe+d9klVLn/hUwqZep1LBb1Bm8kubt8dcblaXmaTYJQXij/ebp0+VK8Om8uJk6cgEkTJ8q6Z18n5iTAJoSy3Cs51m9nJCkW2Hby8RrEmyehYtJOaNh2T2TH7IB0qAqp3jQJk6SaSSE8+T2YcOCxqNv3WOQn7oIQta1kOoOXn38eN/zsp7jiih/gtdfmmzT5+VM+j7Hjxrr6oDAH1ZXBUD2U0W7rIrmIVOoQVWto/TdjXaQwpMapT9qyUastR2JVfAnHsG7hs6jItrAe++FYiEYHEf6Ecxn0sD43bbMLslVjSbQZWogp8V7oG47X24HNTpbWk5jtQHrB48gue9YRnZGfI0vBvvdBo8mqOjeC5DNHkMpwHb1nZo9uRJrKcLrXgq5YuIB4IY3KNXOxcsGrCEWa0DhiCvWAKNIMU3aiYl1z9s5m+tsNX6rs6urCH//4BxLlpVi2bDHisQhizBcNYSmPBKt8rKY2f86Md5cVVL64tDMf7NyRpbBu3VrMe3Uudpo9G2PGjOUzVXhllnseYNNCQoakqrCVrian64VPcmKZWBnGKmyzjPjoqaidMhPVk2eir6oRI7ffBXWHfg6haXujWDkVuXwF1qxegZtvuhFXXvlD3HPv3awdanshjBgxAid//mQ01DdYmI7APP+HgP/i1m5B6htFIYdIPo+c9qh01EmV2n2vRymQ1KnTUDiKSFUVibwHLfOfpDBTkl7LQ1Kb7+5oRbh2NGrGz6I7Po04DXGgzXcGm5Us9a1h7XRczHUgM/8pZJY9w0xSA1ZV4FHN18sH118iowv/vvfQWbDGLoRIjN7ZgL8YCaEi2oZoJov2RavQTAeRsU0IVcZZbAlKliokRyKM1ZsYQWFvXqhSqYKm02kS5R9x+eWXo6enx4hSkqRnyaqmNTB7a5flrX/PLlz+2rnlgQe6V5/mmtVr8Mor87Dffvuhrq7e+jf1LMDmwfo5X14v3dOw+uermoCR01C9ze4IT98b2abJyEUb0NOVwSMPPIDrrrsGv/7Nr1m+qxGNx+gmQm2viEmTJuH4449HTU2tEeBgsvRf0oLu5XL6TIXTciLRELLtq9D64kMorp2HKn1JUtVFtGl+yI1f49he45Quq+uxasHziPWspV09EVx79IIk+SbR1dGFkdvsANSM9shy02CzkqUozVTfXCfJ8mmklz7LTNHUAsqbfoP2oGvtzGd5pobc35h1xzcECyvOwnJbDuitK4oQ6Jv5weuw+jXb0LrqZeSbpqJu3Hg+ruUTnyzNwZugLMzNjGQyidtvvx3f+c537DyR8Pp9lcPKKqVMUjnvWK4xjcoJWXJ9PsppPfFzyv2aHzQmuVOdEhYuXGSNYvfd90RVlZtaFGBLgSujfqh8aSR9RgtxElAV60E1otkoVi2cj5/96hp874cX44UXXzDrUZKkG+wMoY/1aM8998QxH9bos/On3PhSZDkidL9o0SK+UF/B6DFjbKOMtnt/iuRDP0LxlRVIv7YA2bVLEcv2ojPhf56CrZ31MRmqAirrUJVchT5KlxrAKUayjDvDUZgWQhEVhSSyyW6E6icgPnFXStAxE7pUf8PW5t+5+rhF1XSpEJrG4lYZMPkaxTPyEtGRAItRZCjSZyNJ5AvaSj/KYxz5fA1NtXULFyLdSBQ7EKP4r28MS8FWNqpQVLS5UCVVAaooEX0kqR2hh24iA6xFLENJzArfl0q3RPjxG2iWLVuCa6+9mm9cSs2a4uFqFo9SlT1lh/9R25qrgO7uXlPZu7q70Jdm5ctnaEcTgTX/1ClMzm/lm3vZSLKXe33C4NFHHze1XPslBtiS4MrLQaXmXatC+J2bNGsp8X3+tC/iuv++Hh2tWjoZdVqChJSi2gHbTS6P7Wdsi+rKSj6PeG1TXrk6aF052vVc8zA9s2rFMnzzgq/jr3/5k01JilbVorZuNEK5SiQ7H0L3wl+h64FvY83vPouW6z+ANX86HZ2P/RLdrz6BqpaliPMlXL/bSWge/wF0pFJU1zPI6vMYDNde2IxAMlKHhnwX2knCoSWPsc33amtjEqbqq87eOfg5u1mg4lT7t2KlKuigQtCbxP3pqSRCbb4XzYdQ01eNRDfJsZeNvLcXud4eFHo7gL5WEh4LPpNHqlhDUqygWzbmAW8/JZe+WsFL2gLa1i1E5/wHgXQLn+nNJJS72XKhN7ukvN/+9rd45plnbGK5VO/B6pGmAaUyGXT2dKOuvh5HfuiD+Pypp+LEk04ylbqiohI9zEv7dADd+tJDCVKx8jb1aK+99sL3L/8+pk+bjjzDDrClw7Whcsyd+wqee+45kwSlcQxJA6xCo0aNcpKmaQ8D/SjBaWKaanTBBd/AbbfdxvN2U+MRTtgGGHphSwDSZh2qV7FcCg3L5yPyzF1ou+lakuf/w8rffgVtf78c6VfvRd2MWsQaKpDIFVCX1K7oGvV3dToSoqrPOKeTPVjz7N2UUjsYM73glY539uW9WacO2Twr8lMxvRRdt12P3od/Tokvw0hVMkP0RnHkJa4MUYLMRaOoHjsbdRPmoIOkamNBin0+i77edvT2rEa6px2Jvg5EcxmblhD2piHQBxoWbFlqdZosxoBJu2HaR74OjJ/DcKXCbqhiCHpW/tw/fyM3/z4UVycblxKQy+fw+oLXcdjhhyHZ24cKVkz7hCgTaS8Y2lVjyFPK7uroxic/+UmccsqpmLHtNFTX1pq91nXr8MrLc3HllVfhkUcepvQYtVFQB9eIkum0SZSfPO6TOP300zF+wgRrILpn4sZbRikt73T+vT3w4/tuiOuG8ef/+SPOOutMliG1DvUvmjaiNJVekur3vv76n+LYT3yC8ouXbrPipZ20oa4Z0UdXVye+/vWv86X9O1RVVWHHHXfEz3/xa0yf1Iz8//0MK+75GQUdanFyqpcx225UfaCsX2IfTfXLUZrtKlQildCGISTxzFLUpIuIU2vsS6QtXqqNYcZXQmQmWoveSD2mf+aHwJR9ka2shXovXY19Z/BO+v2msCJgBuroikO5KXGa6Jc03amkzHyMCuI22yH8nuPR9MGvo+GDX0PdB89D3YcvwJhjv43pn7sas06+GiP3/gj6mqYhrZ1XCq7T2UpFoUid59tJJkwyToQLSK59Fcn2xXws1b1g6qhUfBu2c0PrLhJlcIqIOysZl4o3g9TcHK1m6EQvDBlRul4N5b7pHuuLKRdOOdb7tRSGKtAtt9yCNs2jpFTpV0ZZ8V8KUru1xPHLp30Fl1x2GXbcaScjSq0AyVLarG9sxB577Ymf/fwGfOzjH0dOldEjQDUkuZ86dQouu+xSfPvb38YEEmWeJK0VPW8dityGTAn+NBSVX7nZtPDjpRIZfP7uxLJly+yzsipln/tKcHms/uh6jYL7+T3YHh2qPrZ3tOOii76Nm2/+XzQ3N9tc3vb2NqxYvoJPo4iMmsh2W0X76s6xEJFj3emNxdATjyAZCyEVjdhmxE3VRYwotqGyew1i6YKNnPfaCHBZXaMXmiIVKmYQ6VqGlY/dhkiuz4hsvaS8zdisZKkqZ4mnMUJkvpix2z5JOUMNnG8Z3s/VoFg53ibRFqoakatsQq6iGdnaicjVbYv86D1Qd8TpmPzRcygxzkHGVus4OMlMNCcJk6GzIYaoLsSZ2d0rF1LVVMHQXjbJNxvJSaN7JAZthY8CKctMinaS9ENf1lNfn+vhGy4UAyM8OrIun0IfTZp1MmMG+jiVZ8L5FO300vTxLS47cuT8EbSU8d6770ZlnETpv/1Zuf18VIr7SJRa833KKaegoaEB0RhfAsxsEa31QVKKjFdWonnUSJz/zW/gfYe93zr3laYc07///vvh6quvxnGUKrXsUSOlcU3oX7+VDROKmIzLOXsxUf2Xydu6YJ8gnbH7JHbd2zzw40tTFidnyuO7OYh846E4qr9ZR5WlaSJlUBKUHi1xHD9+nEu67suonfrn/GtpbcFVP/qRTVeTRqJykr/t7R1Gllr/nR45iW20kS6cuq9+dHWdVrDdJZiH1jopsOSjFFpYx/NRvoijfBapRDSiQan+d7eFK6LUd9ELbIuxOCXUFY8BvavtuS8gvFPYzPMsXZ9zwRsNz2k0nOp3SAK1GqNlkn7Ubxm2TubIhN2QmL4XinGq6t5Ty0bmlIpdhZ3WJNf6kXw7VqN98VxEkhr4cJbdKLtOncsCpUsbRauejNiM/ZHu7EZ4ybMotM9HqGUJiq2UONuW2BrWUBvPWxe589YFCJE0UhUjGDrjZQVVUmPeCAoxlskiuobpXfMcCm1LGYbnt+d/sXUhIi3zEV33ErLdbYjX1rO0Kui//4YGFixYgBuuvwFJSgnahED3/fBNEKbRs4MOOohk918uS72aZ/bol1kyNyHUkgynTJ2Gu++62zbSOOWUL+DMM8/CzJmzoJVV/fCd2Ll/Mgwwj0Qyuaw29OjB2nVrsHTpUixbvgzL2bhWrFiJVStXoaWlxUjePo2qAiXUv+ZCGl4e/7sQYSgcxVcbkCT7eijBtzCey7GcktmyZcuxYuVKmhVYs3YNeqm2ivwVMz9+pWjyRMnwrl2KHPqtbDQYGolbBOVIyr1Q9NVEHf37fjrMBfNSL8C//PnPmDdvru0DoEfKYmfFj00REydOwmc+82mrB16ivMcSNYroICHecMMN+NWvfkUtxVPlzR9aooezZs3GLnvsjspiF/KvP40821CUdc+8Mu9kWcb56fxX2bpJbmFKk25uMFuXHpkdzy7vyYjok8VK1O70AYQaJ7geS7PzzmCz9llqM/kEBYZ8eim6b70eyYfUZyn1oNq9xbw+S0EduBrpje1zEuoPPQMFSpSWl/bMSVyOLFmU9oH5PKKtr6L1Hz9E8qW7EJVfRjS05yVZUkI+TImO1qNTP4iGj38bPa/PRccdP2bY69hiNEikAtRBqrsK17ktUCKre99pCO95AioYcAUrpgpvOA1ZanW8bSWW/v1y9C59kC9WTZfSH/1WEF5fkMbyw/EQesbthdnHnQ/UTqJLpdLhzrvuxCknnYx0OoMKqj/Wf+vBpknRaP7lvvvth5/f8EtKlvXWh9kP5bF36iPLuPz1z38xyeLgAw5Ggg3Kfc+5HJ4ry5fBz9aH0iKVv72tDUuWLMEzTz2JVWtXYdGSxaYS9vb0Iquleko7/auuqsLIEU2YMWMbjBs3Drvssit22GG2TY4WaYL14J2E4qt804yBFSuX48knn8CqFcuxkgS5dBnranePrXjx8y6eiDO+IzF9+nRb7TJnpzm2plr3KisqacOPr2iGv2V15I1SMrhp+nXL7R7Vg87ODr5w1lo8U0lqIfaGdLB2QDNy5EjsvPPOqKT2IKLs6OjACcf/Fx577DHU1dXJpheOc6sw1M2y995728ChBA6DXrL2H0Ib1exf/+rXuPbH1yKbpRZkQr/TaATd++hHP4mLLv4ORlS1InXT97HykRtZR9l+7aXrdSrRocsPtifGwWZvEBGNyBcoQVqUaMM8Vt6ZWGJdqAVqXrrXFxuLyV/4BTBlH8SVjmG0v7eKzUqWRhrM6ELKG+AxsqQKrG++KYPCHlkyikUK7BEWWMV+p6Du0NNJlo1WvMoblwRn7J43qFNM9aDnsb+h/a4rEc8uY+ZT7eRTp4bLtsiS5Jzmm2zCgWg67kKEurrx0i/PR3OR0qTRufyXrypMVW0XQoElmZ/zcYz/6EXk1HqbXjFcsjR2XvgAFvzxIlR1zaN2l3HuGI7SUrRaogiGkI3VoP79p6PpgE+hSCnWxcHh73//O0499VTW45CTLJmXVq/4oz8d7U1NcvnhFVfi8MMPZ6OpkgVz33/s99LompKfXgysliImH8oD89yZUjo33Nwl7ajhLCVBPv7Y47jnnnsw75VXsHLFCmTVteFJuZKGBL285K80Qw0eZNm4E3wJjBw1GjvNnoOPffSj2GPPPTGK1xE1OrkzL/y4EGWnGwOFrQEzpX0tJcWnn34at//zdrz04ouUfqlhUOWORqJGOBohtuyw/OKJos+DpDild/To0db18cEPfBDvec97MGbMGG9dPq3KuudWkBQ1FKweeMbPa0m56g/UPMY777gdLzz/AlavXoWUdo/KiXhkT/XHy0+a9x96qPU1N48YYbMXJMl/9JijsZxloGWwg6HpYBnmwdFHH4Vrr73W1GtLHP8VF3XR/P4Pv8fVVL87OzrdCLcCYphKV4T1Td1DO++yF66n5Dllcgydz96JJff9HPHelWjItyHU04FwlsIO3WrjnGI4y7aZo3u3Ck8vYFtR5pI9EEWNjoeRZZ4kcylE6vbC1C9fjOzo2UhYObz5y/utYsM1fRPA8oIJ1FHGGng/XNH3t0nCXbOaeTd1sHtm/OonKFk08RokGsaxBBMsS0kuqnw6qCBkaEfiPjM/nU6yMuYQGTMNo2buwQpDWTZM9UKGUqkmzrJcjWzNsHH1rXgVsfYlJlkO7vt5Q+TT6FvyArJtyyiwZvv9FnfI6KUgAiwwnoXqMWiatCP0WQGXrlIeqf9ReeZPDFdltufe0TU0Un4qjW9965t4/nmq/GzQZRlFlF+4XNTbX43Ez2tn+LTs+EZQuDk2zNfmz8fPf/5znHrKqbjoogtJlnebJKnYaYCIrxc7qg80zjAT8RiPUdMgtGIoEVf6Cray5I477sDZXz3bRnHvuede9HR2ufRaWv89yJ88VclVq1biLzf+GV/60pdwxhln4JZb/o6VVLUjbICKp3I5To1CL0ZN4NbLREdJ3iJSvbAS8QS6GLennnwS3/3ud3DaaaeZP9oBSmQ3JAEMAVeWJWhA5qGHHsY3vvkNnHzySfjd739HQn8Ky5cvQ2tLCyXGTpJXB8PudHNoafoofVZUJFieIjzWMca1ra3Vnim/NwTVERG8q9MuwiJgdTXcdNNNuObqa9BJP0w48KKpOqG8ECFrQvkYStgR20KIL/sdD8KsEy7BhE9ejOL+X0LXjsciOWI20vFmvpn5Qi1E0B2qRbpYgby+z6tiHTKfVNu1RU4aNczL2t48Rs4+EOGaUYyl6rUnXL1DcK1sS4RKweR7ZYKOHobIRDdxvWT4Y0Ykoje6OrKLlObkS14ExCNtyqWaK63ybSqVXBJd1Ug0bL83ohVO/TBb8msQQahhFNXX2DKfFgZW7DdFsgep5S+iKt/l+SsjqVSGb0a7x7cn4xObsDMwagrvqWJqIEEeOEybOg11tXU2si1/FH0NhOnorJFqvD6rVatW4Rvf+CZeeOFF53+56R9IM0cGL+dLt2htOFAjV2PUKP15/+8cXPLdi/Hi888j1UeNgZ75y9gUJzU2ty8hXz48lpso76nxxWgnRvJMML/TVDUfvP8BfPXss3HlVVdh3dq1RnJvFfbiIKRy/+tf/8LXzz0PFzKPnnz8cWR4z/ZApR3FWXFSJuglZlNmGK6kUUnPyqUQ66isRGOKL+sLc0+bKj/79JO48JvfwhU/+AEWvb7QyGE4WenqhYPi9/vf/x7nnP1V/P3m/0Vvd48jJYanvsII8yZOYkrohcMXj466r3m3WscfJ4FbQdLLtcyz7p7uAf6XQy+5TCaNbbbZhv77dbFoU4nuvfdeXPnDK9Cydh3zhR6W1RdBzaDA9B108IE4+7z/h6bx4ymL1AAVk4Fx+yE88yOoP/QcTPyvKzHpkxdg9Ae+gtCuxyA/bifkwhVUuFK2A1mBGqHqtFX2sgrPnGcYeWQYRlc+gfqpu6Fu78OZCSNYt7T4wmmU7xRczX2XQ9k5oMnYBQtZec3C5ouL0KJ+PmDmS7I0qU0ERbLUW0wEIzf5aA0qp85GVZ1G8HifUl6eBGY7pMhPH8y5RK4Lba8/B2T0gfjhghWvvRU9K+aiIkLVQ+FbnfArhsiNMWFUFWb1xB2A6mbGQX04A1KJiRMnYurUqZ7aVRa3MshfkZI68196+SVKmN/CKy+9RDcuLxQfc+qZgSFsDEjMfCEtWboQV155Oc4972w8/sRj1v9lk+XFJEyYQhRspVa/0R2F7NIv+UFwKfJ+vZoqdx2dbfjZz36C73z321ixYhmdeA2r3/c3h7SIDMttXcsq/OSn1+JLXz7FCFNdApLG4pRqtcdA0Z/cxXqgeCpuRjQDTCm+MgYvKiIcvTx+8+tf4wckTA0Q+SQ9HEitv/7663HJJd/FmrWrGDcSYVRaD8OSBsIXikl4iodXenbO8HW/qamx1OfMPFq3bl1/N8tQ0H0N6ogs6TnvOC3hwQcfwIUXXkRJe4Unqco7F57qmNwl0ymbhvaNCy7Adttva58NsnbFBhZFBlU0Cc2+YH3GtgcgeuCJqPrEDzDi+Gsw+bjvofqgL6Cw3RGI1I9GOptHOpOzl6HyS2FIA0SmEvnIOGSn742q404HRk8jWVIgYjtS7ru6o3j59entg1cFNw9MaGYMTBrSKdPmC2nrC2u6MbCAdac8S/rPNTcyz8zLxJDt08fpWZgsNdZ9s+A3RlUeG0ZhpShKUlQFkh5cNwWFSfuiL6dx8hi9Y6nTSOpzhlIfiaEiwsq3iA2sa6UV5rAge6ufQ2jdansP5q0bgGGac0kdWumqKSkhNNWMRc3kQyiujOSbl3EYmHwjoaOOOsoqc07f0OmHLMqoeH1HUiVjeOyxR3H++Rfg9ddft3woj7Wyp/y4PmTbrzI6+udKVhEvvvACzv/6efgFVe8UpR810gptzKDGzHy1rg/vqEakZFtM2egkzWiUvJBl6P0REAm4/HZhSXpjHKxyFPCXv/wPLrn0u1i5aoWR34DEvAH8UeKWlrU475yv4tvfuhBdbe3UFkg8IgCrL3lWBYXFSzuy0fJP81A1PKH0WNzN6NdFy6+3iqYZplVdGiLNG2+8ERecfz7WrlpNe6p5G4bIR6r3b37zG/zw+99HltKlpFe+5VSSDFEvevV4iiZE5LqrM0JxYBrUJTBixEjzS9BA4OLFiy39/r3ByLIeSRsbP36CTZvTi1jq/ze/+U2+mJbbMz/VWpSQYz7F+SLuTSWxy6674qprrsYOO80mKVKrY0SMpi2h+vBZNa81iyWOHAkuF6tApKYOkQkzEdn1I6g7+tuoO/n3GPXJn2Lsh76Jmu0PAxq2QbJqLDoizUjWjEd6h/1Q8+HPY/Inz0dy2mEoRKtNKXKpEYmr8niF4DLCnb4NeKPy2sKghDO6amH9meGgq3LDmuxZSyLbs4SE2cVzrQknMek5f9ybyp2r4seqKxFKVLtMZ+E3zDoQqVg98mFKRSRGfSfIH0UX9NEn9TOGelqQWvGy+TccaFfr3gWPURjtox/uM6auGKRGSHpk5dc0kHAc8am7IjGSUiUfqxqo8ZVD9f3II48w6UGd6iUJY2hoKaQGePR5iQsv/JbtWWjEwUyQ176RD75xd1ThyithKQylW2T9Aonya187l6ra3VQJ2USULi9PRBgGHtwLSee6R8OjiMt2SCLT2D6leqICpLH+ZStMWXVu1NWigYGa2mrcfPNNtmNOkmq+lSkb94bKwpU5ZUVKa0uWLsbJJ5+Im2/6q03ArqmuYrjOnYiMofKM9Ehy0p/zU/XKPREUn/L8lnuz54Vj/vHok2ZNTQ3+8Y9/2OCIVGmlRc/NlMGP54IF8/HDH/7A8kf9fzYAZnYVP5eNpiF4/ljYInqd86+qshJjx4wxNV1CgEbRtdHF4HiXQ1KnCFFxVR/r448/hjPPPAPLli4z7cTCMigfM9a/rUGnHWfviJ/+7HqMGjtGHdIWB63SKdWdEvRy8X3RmdE+671eKLFEBQnxEITe8zk0fe4yjPviTzDppOsx6cSfYfKJP8ekE65C04GnoNA4BWHW3bzaivLZIJ90vn6YbweU35sNlmFM29DFNhDKfNOiadmqAt3JmAdl0JWESgmX6F2OtQsft11OisVqpNR3yUriqpJsqmJRzWZjjyQoyieq6FD3w4hO3xe142YgRfE3mk8jVuz1fPdA4rXhla5VSC55xiq0/9W8oeBCK7KRdCH16oN889IuK0hUfV1eDqhLIEvpL1rMIhOKo3J7SpW1fBPzcURrbSWOlSFKlWYCVfFTT/2CEaUqd/+2bIPgE43IURKp+p8uvvi7NrKal1omSy6S/ca5GAq8KzuE/HvxhRdx9pln4snHn0A8QgmC8Yxpwjvt9ftrR6nq6hsuWD+cCL6ntwfdfb28ZppTGaSSaWQoAVl1l32RgRW288JBxKHGr367CG742c9w11130Q91hwywOADKgxzLWoNMX/3qV/HsM8+hsaEJsUgMuQwLWkRDe66LQA2PkibLWbKb+rolPUk602c3LO49PTY6rLQoTT5Rq79NcbeoeNFRutXPWUky+O2vfmNrqG3BQ5kdH0pzd3c3rvvxj9FJIvLnm9o7hn/qn3M5K5KRGs6cVnC0Y+HTaDBH07+0zZo/Qixy02i4pgwZsW4AUyZTs2JdevrpZ2x5q+a/xllnBjtR/ZP0u9tuu1MC/i3GTZhgU836k9R/MjRKdcty3fJcfdQRxT/Eeh8fhULzLIQm7on4NvujMHFXZKonIg2GEa2kE20AwrR77c5J9c4vZ95ebFFbtGWWPsM0qj9Fk9L5oEyUSmRDSKtiTNsNVZS4Iuqn0JuWvlglYh7pHWVqta4LXcjMuwftj9+EilQH77LC0z/JlspOP4N5l5UrioppB6N6+/ciFK/gc1a6ylrk21aid94jqKY7Vc98yH1D2UDnFlIuzSgXUbPL0ciRbKO8ZRsXl0FJ0VSHMDLoWfAskg//xAYteIP/DN9FSD8k+gji+Qz6Kqdj5PtPR7GpgaFQlTWf6BHtObXUxV8NZezYsSS9uVi4cKGRlALUX2mwy1n3kmxuVNFfm/8a1q5bhx13nG0Ny/nr4PLH5ZVzWGbobT4nNTWM5cuX4uLvfhdPPPE4pdaEDXz5pGObMfNMqmuUEkiSqrZIXfMltX748MMPw4c//GEc9aGj7PzQQ9+PSZMnm9qqzRhsSZ6IgC8AxYfBuvDluTszUkhnskZemhtoH9diGENBktmaNWtsc2SNrmsgRHEVC8gvEZDF2wxJnfYzJNea2jpst932OOjAg/HJ/zoeR37gAziCEv373vc+zGY6NBdR02hE8vLF9SErnxkPL+98otEMBhHnIpbVoYceahubGLw0CSq3Rx95GNdd99820OQ2oFAc/XS5vBApiqSlOhtR6hGP9uJmGOrP/vAxx5iEqRdzd1cXfkSp1j57vAFI+tx9j90xgWq4NIVX573KclWb8KOoshChU6OghL7LrrvgR1f/CNOmT1PE+8vKzs2Rc+VcO+Pntoz+BP/MOhXYHvm6pT2p/CJEzUhhO9cROZszrR3F3DMvHIFH3z/f/5L590GBzS/GTQ8Vmb+RRudt16PnoRuoXmnzixqqY8wQf54lUZkKoYVSS+17v4BRh3wexYTmWarvi3TDBiXCsarE1BQybSgsehztd1yB0NKnEZKoSclAW92LgJVgFaoQpXrdl6/HhA9djLi22U+4CqkCzy58Hut+cSIifasR43XO/+4EIWlP0q4GNdTx3HjKXxGbuT9i2jrOOkdL0I5KSbqvyLVgzd9+guT933MjlJ4fqjw+UeUYr5ikyJnHYfRxV6JYI7/itCfrOndv4HJIWnr0kUfw1bPOtvlzsZhISnb1MinZVew1h1OVS+lTo5Lbw444Eueee55Nqhb5+GQjOy6X3G8J9J1k2UuJ8JvfvAB/+ctfjOA05YmeuoB0qh/lG8PQrcamJhx44IFGkNvP3B5NvK7S53YVIfUEMi8kpWkVz7y5r+IPf/gDHn38cUqvymPmEu1ZbS17GbkYSoUL2QCEyKxC5DAEOjra8eMfX2uSaJYEa1xGD+2drLQquvzTZY7lqjX0+v7Qp47/NKZOmYLm5pF2T3mkOKivNU1C1zeOJH39zx/+aBJuC19AVRWVlo/yS3VFeW1pkP9010XJ8fzzz8c5553n1UUZd8hQgr3mmquN2DSA45ayMjyTEJV25inriF5AM2Zsi4MOOhCjR45yxEGragsKawKlykMOOcTlB+8teG0+rw+2eLs8Xx8iy4985BhboaSJ6wlqXHJsec8zpUB9lZLiZ8+ebUtht2VZKq1Km/4FOx+AUj30S0/+yZZvBCvffngXXnk7P50p2XMnLj06L/eg3Od/H1uGZJnvRNo2/32GFackWZpkRKjgRZuZSAWqKYpXTpyDULSCD1xvhUa2o1R9oql2Wy649pV70HH3bxBe/Ty9ybAxSFRXhtKyCp3G5a1T7ZM1UzBmj2OA0ZMZIVnUP0mLljpWLwNWvYxEKIuCKq7nj5yrgKQGqIFHRm+P6skzeL+ahGc0Ycb5pL5IVu6uhWh/4EaEuxf1k7Welv60oimEtnwdxr3v0whN3cXepkZ4fGgVgsbZHAhtp9VM8hFpSsrypRFzWAbn1lGoVXBamT9/AVavXm3SXlNjE8OUW8+uOR/oh67V7yfp7Fo2FvVzaU9E+SWjZiM7IglJlRnaPfT97zfV97Of/Sy22347ky5tojbLQLGUUbgx3mtoaMSUqVOw7377mso4d+5c2wxEEnGpMbgwlCcKU2lWpEXG6m9zjacExfeBB+7H1VddhR4SlZsKJM3CNXLZFlEoTiqbPSmlnsX4fu7EEzFz5g4YMWIUVUwSoNUBhav6GSZhxVFbU2sbjBxwwAFWDvPnz7eVMtZXWBYNizF/5F7p1pJBSak1WsrKuuxb0Oi5vqwoctP8Td+NZ8HeR5IolaeaP3sEX3a77bordp6zM+bsTDNnDnai0QooNyAj7wu2Ndtf/sL61+/f+tBLT3NLpa7r3IdLMzUfErdU9N122w0XX3wJdthhB2rDzBOLm2ePf+61UIqzM670Bt91TxwUrZKhD+af7Pi2vKtBdhwG2ildvz0o0f0WAjUwvzmUQ5v+SiXL96aRX70cmWUvILP8ReSWkRDn34/cU39E3+3fR8ufzkP61h8gsuZBulI/Yh0lPVYwV0P47xR1DdoI2ou5bvJOwEivb0fW/ExO1CG+7cFULWOImX3dX99I0uhaSKJPtTD+2oZ0UAp4KXW7d83ryKycywY3MNvV2M0nxi+WyiLROAWJqbOpuuupCMKHYmY3B0DutBrj/Ycdhq+c9hWqhVVGDoqFqMgdHZw6512xAYkwNQqsFSFXXvFDLFmySA+8cGiv32GZITRv84orrrCd2U311qteDd4LTdKTvjKpxH36s5/BZZddhve+971UO+ssTIOsen6KeGxyvUhM+UCpSROjTzrpZOs3Uz+r0mQEb0TnRcTCLPB5FC++9Lx1C5TiUYLi+/Of30A1fBWJUm5dc9avSWL0N0IVWaP1h1HF/s7FF+ODHzoKzZTYQixfSepOxbTomVsXB8ZHz3lTyx4//olP4NyvnUdprsLqgcWCP7LpnOiiwOcJvDL3JTz66MOU0t1KMR9SlzXRXHlq7vrD0i/jTMJq5AvlEwxLK4VqaqoR1+RzdYPI8DxB414u8sZNutdL0WZNOK82CC2l9FEiI5Wp6wvdddfdKMVfSFLeCVG9XPy4mT1LrnfUtTO65xuh9OTtxjvn88BWu4mhKq00qbLKbBB6xphGC11IPvdbrPjtp7H8Z8fTfAoreFz1u1PR8o+L0P7kH5Bb8TgS6bVuQrGKRmu/WWeKlBh1VLXXRvRxmupCConoBIzd+XAUR45HPqpid5VDJh+vQOWs/ZBpGg8N7wwFNQe9gYsLXkCxayVJXYMMlrJ+GI/kSYKLlyPUS8M/m/LBCNnkDxGFOu2ZCSk29NC0XZFtnsS4yi9VeBVTGUEMglVSmob6enzi45/Af1EVTSTYWKmqSaLQhHybPE3jiNkogk54pNEUGU2kvuWWv+HCi75pu9IoOBtgsRT6VdxB/Wi3/eMfmPvCi0ZqjLnFzNajh/PIhfJIF7SLUgFf/tKXcMEFF9ga71hcX/bz/rw8dlIsj0aULn2OlBxh1tbV4rjjjrO9OAUb8PHcu49z6apghL+W0vELLzxnAxkK24fU2ocfvB9PPf4Yw+ENSetS7ah/S+LXayVKkomS7D567MfwzQu/hW22nWEj0Mqf0sqQ8nItLxOLhC3BjDCNRx55JI7/9AnW56qsG5iD8q9A0qFGk+zFM888bYNklhDzS2TVh7b2ztJLxYO0GNWlHO3rO+7qk7RPwtKeyNoGGGlM4NC5BAT6qbwS0WmOpw0GOe/eAM6N550Zhat47rTTTvj2ty/icQ7rfcweuFBKcHqLu6N0l5vSE0F3lKc6bvkYWBqbGJZFKgi72jBYbCQWqtqsZLFCH8KU4KKpNkSTrYikWhFOtiGU6WKdTrF+uGkoIh+p+Jqa4yqP80ubAYss8qFK9MYakZixF8LTZ6EYZ+1VAypDgZVf01MqJ++M7nzMKtx64C1r7MW16Fr+Gh2lzf9ymMDa24KOBS+iguHIvnvAo3duu8OTLHPVIzBixhwSexVpUgMGw4cajfoFv/jFL+DTn/40K3OchMcH1hnuN1k1fJdO8YD115FY1C7VgO//13247HuXolPL89SPyF8Rprf1gRGoVDTtOKOBDZWNgzzyZCn6pQGGEz9/Ik75wqlobHSDLkaMHhGWo+SHD8+OZ6RWf+pTn6KK6+YM2u1+m0wLy03HfDaNV6myq1GXfNSWYW34/e9+h2wuQ1IVATo3IlQjFaK7pwcHH/pefPnM0236S8iT/r0omH2Xb74pQXRhQ4dMm176icpKe2Hp64hat10C88b8cXmlwZ7nSe5OkvPu82Wwbl0L2tvaTeUfAEZELlUPNZClfLGE6r73zGJmkXaPDEa6RVu94+pw/5M3gXnuGdhk9U984uOYOXOm666w2/yxSOl8IPz4DMytoVBu881tby64GvEugFf+zFZJQiRPShK2JpdGaq0anN/oTBjQiX/0QFmRvwVKPnG0FGrQ2zwLjQdRYmkcR6saWJI6JBfKFtc5H4nkUTXzEGSrR1njGgA1UrKNSWeR1Wh7+RkkeuXPoHW3EhxaFyK9/DkjjXJYXAsMS7NIcvRnxHaonb6r1hvRH41yehbfBD4Bqa9y9KgxOP20M/FxSpmZtIbRJJEwDM/ozWHzGL3ckXQraSAaZrx5S5On//d/b0I2ReJX/CyOTCePmmal5yalkHgGpYYmTIkpZf1mJ5zwGRvEYWl58VM4OpcRaYn4nFkfA+9p8Onoo4+26ToDobR4aaL/8+bOs/5N370+h/Hggw/ixRcpBZN8TJKXRC/DOCj+uj921GiccsoXMXasdoGX9CX3JaN4+/XCmYHwbelPLwqtrjrokEPsBWYVyUBbyncrB3WdVOP1BQutK8MssbDV/y1S0z0noQ0MU2SnMEaPHmUDN/LavQSdhOdsungwIbwiCnmTclewzPzVN2+GocpGcdMA1qpVbv9Il2qGrYNvzUWlH+WPBmCQvXcDXAlsJljgzDBJN2qI/WCFGJyPKnzdU2Xpf8ZSWK8wvIfyT/6bxOZukSQjiOXTyJGckhUjMOOgD6M4aUdkwpqQLHslqUu+WpyotlRNmIlY/XhTa80zTV0oW7Qva2x3SK14FRQJbMqJD1nP5ZLIrF2ETNtSkm8ptkZCjJ+mGhWiOQu9cuocQJ8upUsjN54NlzAFSW6SSBoaG3DuuedSwvyMNZSB0lZ/Nhns3G8c/NMI71VXXYnXXpvHB0pLybYazP3332/lIPhHH1KTtTHGZz/zWWxDghMhOZSHvpFgvNRn+f73H2bSVHmY5qvXoPXiXLpsmaXD4kx7GrXVbkcafS4RtNzIsMTzBZMqj//UCdh9t92sT04PHVG9ORSTfu/6TcgkryOOONziOrA20wb/dUfdDNqQQnM37SaJVXHUNnY5vpTKiUrw063+SO28VFnlJtKXsqM8HBcXQe46OzttO7fBfg6G7A5lR/dUh7Qk9Oabb7Z85U0XpCJgR7PaH3C5Lzpf39d3F4ZXIzYxlOfrl5ekAE8a4EN1xzgrpVJyBcIkkWRKld2paCK4QjiHQjaBvug4TD3yCyjs8hFEK0dQDtRCMao0qGW4Gn1UdZc8pp84UFeP8TMPRTGvFQySingwiVLxVFxC9qnR2o5VaJ//CK+1R7Ri4PyJFjvQ+sLjqEoUSdgaUlI65I8aLg39UjdAd7QOudlHIRetRtyWmmlep9RgJolJVCpLNDwEmCmmjjHQcDSKxuYRuPTS79ku6elUxhqgoBeDU9tkSMg8t/sMRHGrYmNcu2Y1fvKTn7Axd/KJ8k8hF/Dcs09j4cL5iFdoHhzVWNPjXazU0EW02j/xgAMOMtL0cpFwYZSga5GD8mGwYdlZAXtudKSRGq7vlecyKbq2XPHSwDNZpTuN1mYylKbtZh6rV67ASy+9bOTlz/u09NLoZaWR3XETxuOznzvRRvTdksGSFGmScL+msH5z8WJIyGfvj35rhFgb6FbX+Huz+sbLc/ml8uLLJZdjWvTQ4p7B/PmvsSxYbxXPMqh8rCuEt7WzvbQUmwjPP1WQcoHD3MooH4nW1lbbh9P1+b45fGIW/HqqnZd0/MUvfm7bA6Yo/cqes+uXhQvP/Zag6wH37IZ+XD4PNINR/mywz5sOQ8Vsk8GSzXy2fNP5RqOsdpTB909FV6QanQnnkc6x4mdr0TL9I5h27DfQvNsHkYo3mQ9Dha8KaQ1QTxI1qJy1C/JN00wSybOB5f1KYlIkj1o7nutBz/K59sW5AehchkzLYsRILCV3PNLrgonVlNjybKjjt0XdiFGUbqIkWFU+pzJZNDyUnw8Fv2LLqDGpPn7ta1/H6aefYSpprlxi0aHfQ7lx1UHPNWj1ENXXV15+mdds2rynhvbaq6/2T+Px/XEk4KbnqEHts8++aB7RTI/86tUfyFsHw9JXKKurqywd5Y3Z+e8bDUS4eZmaOP0q47tw4esmmZaqi7Nrdlie++y1t80gsPt+3qyHoe7LQ9+Uw+V/TW0tRo4cZRJZKboubGWYU0BUTry2lwNv06JW7/TnrciQ9/z0muRO4h89ZrRpERb2UFEYBHWbdHd3sVzdB/l8/33If0nV2ixY0HM/zH4oiixTLRjQXpeLFi3sT9tgqz4UysCQ3r3YrGS5UVBrZLZbIVuhuXPf2D2z4SWKlUwNIZePIRkege6mmah/zwmYdsy5iO3wfuRjdYhaY95QLaMUCPX3sUbHKpEctw1i42bbjt6aYq3lbzZA4P2hEKOKn0KhZRGgrdsMjkjTq15FuGslhduMqdpW+e25nsotVfWs1qPvg0hVLaU1jdl7cqlZdLb99L0ZyvNFk99ra+tw1tln4fQzzoS+uWMykOWZM+X2naE8SKLVvowPkzC1HFK5qi3StEpI0o/sldLgTJgkX1lZjb333sdJlT6LDivWbw6FKbIQkSuODr7/Lj4NjY1mTzGSXcW3T9vDqe/QULKv5zp7zyGHoMZ2BNeVj/JzYfC1n2qZwZBdNwdTU2u0wsbNPJC24f6Yy1buGiSTOu5D6q2WU4qUykmyBLcrkGYXuJkETtOychsqKoT6TbXbkI3Ol8XX3FheuZFurf0++eSTsf/++1veSOr2wy+3q35PvYS+//3v2z6d3u31oNu+2RqwWcnSe7FusMr5UCVQ5QqRkMJZmoxTP9SR3m9YuLYjjAoZFZQaRyHZsAOS0z6EigPOxrafvAT1h3we0QnbUlKstoqW0FQao6/1UcoYbXDBMKuaUTF9RxQTleJhq4A26u7VhHiuErFQEpnWecisWsg7TJ1Eh2wXsPBlhHs7kaf9iBJdVrtsagpJPVY5CtHxuyBUUSvWIWEyBmoMtKMVQObijTJpA/D5qq6hHmeceSaOO/54ZNh4tVuMJGTn6WDjUq/+SS2j1AoV3degg3atcQ3HrAxAjlKrvvCnPRQjERHAEJbeBH4MhkIy6dZju8nSg/125KeVNpJA3XXeljeuTzgl6KXgtiPb+LiuD/lR8kckqClNjACvaHhUnNxejU4SH9k8wqRxs0OjyexaaSRCMnIaFC1d1tXU2oCUT2Bm/IdDgfWonf6q0JRHQ4JhS7LcdtsZ1m2jclSULA4evFDsTGm744478Yc//N4bUNv6sVnJUlVI+d+v8srYSQlOblNFErGFEauegOi4PZCeuDcyE/fpN7nJ+6Fix8OQ2OlIxA4+GXVHn4OGY7+N8R+/EOPfdxIqpuyDYsV4khD9t1cwK2PRSXBDg6oo/5wqHEEskkDN9BnI141iXGK8q7e6i7R+wwXtls0Kl+pA56KXke/rZMLYKDqWoWfBS9DO6jlTr2W/VGG13C5HtxUjp9Gw0WplkjYCFFGKkL2G4GnrGw+6d32SVAvranHWV8+2uYSaq+c23VBeyPMyYyEx/eEo1q1ZR8lMX5ks2CoZbUIh9dbZGQjlhyTZeEx9rcrXoWIst75ZH/7dcltWA5hPmlRdrqKWwwaweH/mrFmMg4haE7Hz9vEzEdRQkH11eThyffshKdEm5guMvyt3Guafyl3fJRo/frxbu81rpVEj4SJMH4NTKnf67LG2X1Pd6Ldg5yXb5fmXTCWxtmXdBolS+SB7mo40evQY7L777jjppJNs7XfJjdcOaWRfRi+ta665Fg888MAG83hrwmYly4FQQQiDqgdva25fDhnkwllUzNoLzR+/AOM+dhHGf+w7mPSJSzD5uEt4vBjNH/4mmj90IZoOOg31cz6J+m3eg8rGSTY6bCoz/TEv7aBwNtSgHURTjkwd4RQaR6Bi4my2zApKiKVnqqTpeJrXVagoVqD19ZeQ61jFgCjprl6I9nVLqZI5e2YERYJGXQXpcA0qJuyIitpm0rKTJq1C+n92w1xZfrwVyLl8HjlihH3mYdrUqaZOuzzhU72kzHjh6zaNRmplT8QjotKyyEo2VjVa2RsMNS6pe/4O4ua1O/N+S1dvBIuDZ6RFqMHfdfddFg9hsLSo+/ool1a0uO8MOTuSegZZHQTWLa1qkRZAKDyVqjcE0282BsoDxaenp9cG1lz/rnvmv4sUN5nJkyej1j4c5iysXbuOcdbnkV19HRx3LR1VGZrqrmc0Li/kvmS8R2b6KJGvWLbcXngW/lCgH5ImtWmIlnUe+4njcNiRH7D8y1FjUF+96z/1QmCCRJDSNr73vcsxd+48Lx5bLza2HrytsOqhzPcKwEFR4g1mfHnmZ8Miyxy66sYiPXY3YNwuKI6dg9yo2ch6JtO4PXKN04CqeurFbPTRNN++Gee3yMeMndr5xoByGAp1I9A8Y1dUxOsRYuURiTsUkIlRrQ3HEWWFCvesRaZzDfKs2F0rX0co18fwPKnCg2sIMqyEFQ2on7IT411nlXtAzMov/PA8t2pQtqzRvz8MaK3xFDbQD33oQ9bgnOQw0L1PlLZ+mn6bFEG7KRKWwvPzbnAe6lJfatTaZhss8p4PP3ZDQ+lbvWo17v/Xv2yAYjAUDzVo7b40gyq1JnvrnvXnUTofGM9SbCQZiXwkzb3dkpHirJdMR2en6zbw46B48U/Pdce+daPpSrxQWWgCvfLYWXX1tRzqNphiK3c0UOPdNOii3JTQ0d5ufZZ+WQ6G1R/e1jp8+zwuw9DUJH2LSGSuvJUd/ckP570Gpvhqp11t86dd4CURm19bKTY/WZYfrXK4ClKe5SqkrO3/SDLidRwpxCkBmaHrOCUiZ5ggOs5HwsixwRQibpdzFb7WlVtfYMg39Mj6HP3Q14cyxxmGU4iiKjcamLAXks3TkKIqronFBcZBwwTqi8yJEMNpVKWWI7/iBYR6VyG1+FEkir0koJzzy0uYn75cPo6KsduiMGkq0mxUui+jWPXHzLuwjU7pT66QtU8rPPjg/fj7Lf+L7KC1xeUQ8flh+pDat8vOO6O2upYNVPXfNV7Zc3Y1uCClsYiGpkZUVrlda9ZKpeVLgg/Nn8EQOa1rXYdX5r5scdXLYaDNod2VY6juhgwl1T/98Y/W4FVc2pRPcp99cI5lGonF7bssO8zeCeOo1gqKovrgGhvd50GssZuxy35oh/VHH36Imct0iTCHTJvSzMMAw4iw7M30Qw9o106LaG9tRZ9970bEqFTRrhJgiSwgWhnDxCmTbW25kCa5irilnqsqWd2ksT+vnmpJ5UQSWKKyglHQfb0MnHtBobsYSENQzdXAXIYvsT7b2KM/HmZcXivJWoHU2DwSMar3/hSu3XfbE6efebatmRccYTr7/rXipZeBPkZ3w/XXo6+7R56tb7YClJf0JocVPzPSis9KQEaF7z0rgxqH2+fO6o+zsJ5h9bAKpCrhVQiTcOSnb7znNBsFNY5QDBX1o5EYPQNZErdfadRgIoUw8qE8raXZ5jJIda1DuHMFJcxWhiXicOQxAIxDNlKF+sk7IEIVXBC9lNet8iu9xaUWPf7447jk4ktw+hmn44c//KENYmSzaVeZPfNGkESgnX20w89QkHv1S0ri0eaxGinOUbrwJ0s7S+4wGBo0uvPOO2yU1F0zRZKezQHNG0fNocyOVMdHHnnUVg25dLly863ongaiJBUdfPAhqK7WfFnLWpJl2KbC6FxS20Ap2knmauh33nmnbavm483yb334dcm5U92S1qHBMF9KHACv7pkEN3KUzuxa6Vi5cpX1FfpeWj31zhUvfcRtwoTxFu/h1GG5kcSnQTobSBrSCcuacRk7dpz7zrmFSQGAxCwNRCunLE82kC16KSkvNS/3vvvus1VeQ4fz7sZmJcuhMXQu+3f7+1x04w0KpN++Z/5t+J5UNaN2+u48ao6m81086kheRv2jQLZzLdDyGop9JA1GuigipS2LPsnVRtJ1WtmEigmzQRa2p+7TaH6jZgPP50g4WUodSbz4wvO49OKLccpJn8cff/d72/dxwfwF+Nf//csajir0GzZ0LwKFbA7Lly6DPpErtc4lznu5KB20o00q1CC1WYM6/tUHp+/22K7yTKe5GhSUGpwazpNPPYUnn3yCKq76OjMkDk1BcfPxXCSGB8VzwWuv2Woi7Rokv9WO3SwEy/T+dM+mVLn//vtRPaUUZEFITQwb2WuOpeXNoLB1TzsmaXrRbf+8lWozXziUNLXfo9+HubEQ4Vm50Z/XX3ef7bD+XQZtkjvjqzhn6X9NdbV9Y9zAZ+rCUDoVLz9dPnQuvzRtyJaQWrm5pCqmvimHnMudJPIkX7KKh9McStClwtLcTXXPaKoTbyj7zDQ1N+G000/HjBkzWI6aKG/OBkDuVTbqo738+5dj3ty5LnDPDzNbAVyObyb45aajIxz/xO7YpQ+/YTprqha+HRq/QDw/Bl2+PZBeFGGDp8pXPYWSYOMYF8Ni1uZcupppFlkhaa9nDXpXzkM22Q3tbKPv6GjqkI6RQgT5iKbv5FA9dgYi47ajHa0jKo+zIz41kKWLl5gkeeyxx+KXv/yl9UFpO7D6+jrbyeeaa67B62zwfiN7Q9BOe0c7brvtVlvV4Tc6wctNKwLNUNCSyV132w1hplkj4drn0LcjyckfNPONpsSIfDQf85KLv2uSlfo6/Ti9ScwcJP0xAEmUS+j+nHPOweOPPW5+2CCDF5aLhaYr5dlQo7ZxiD6y5eCeyY0auTa0kOSjrfYE54edypJNSNd2c/o2kexZuihZlywRirxn6JrPFU/fjquPGvz685//bH2VyovFixabPXstlnklyH9Jvf4kcEFaw2qfLC2wgdA9TXSvr/N2V+/HIM89aLKD0qJdpNLpPt7x807xlXGQFqEXypixY6y8yqH6MWPbGTjtzNMRY51T/qxfx5y/+vLk4sUL8aOrr0RXp9MsLGpDR+9dh81KllZcjIEapswbQY/tzexnvtjTNyos+/Me0Qg6vom3w4fC0Z6aPKZHT0TF9nuhl6SnD5Cp39IYhkd1F8TYgKv6VqFz5SuI8rkqHBU+GtqnUXdCLpwiYdYgMX1f5Jq1l6ZNZmJASgF/Wfm0iax2yz72Y8fiumuvxdrVa2yARsvyGCjSfSlTrWTv+5dfbo3VGtp6lZmwzCmiu7MTv/3tbylJ/dMIV3Z9Y0mQU56nKRVO22a67WiuktKoZ0tri9nLUdoVGbiG54Pn8odnCUonr82dh29fdBHmvvSyDXS5Yiq3PzRylFwl4Wk6ytlnn22riCS1SEqkQOuRmbOrc41kH3jgAdhnn73NTvlzZeq0adNN6sxSSpXf7pmz4Kdb7vTiuPTSS/HEE08YedhLZAPRVbq1/l9dDhoY6unuwfPPP48TTzwRi5foBRE1klxD4qu0PkCGQzeWtfRTx1SyD2NHj7GPzSl/dVP3uqgyS9V2tXkgFK42eK5vaOCVfBFkbyjjfjUv9dXX5vHc1V3XHTQQyjObjpTQhtoiPufWvQJY7fmSOfSww/GJ4z6JXr40B35JlKC/Kht/Sexdd92B6677Mdpa1lr7cH7Kp3c3lMR3BXyitPLuh1U/Fqj/905BPpd8j8cr0ETpMpUYgZzWkrOCqCmIKGX0velcdyvya1YgmtOOMqpEiqs/MMFT9b/WjEPNpO0QibFB2XPfuOke2rL/e9/7nn2CtIrqV31dHeJ88/tzL2VUgDWUjO745+34AVWgRQtfRyadMvXdPpxlx6w1xNcXLLA+zuuuu84kCc3VG6oSiwwlbWkzYUkykm4l9axbu85Sai4YBz+uDo54dBT5aGXKbbfehq98+cu44/Y7bDNbSVzmWIaEZFNR2FDVmNRPpx3MF1GalKR89tln4dHHHrN0m2qtBimHZRVABCg1VqtONKpswQ9CQ0M99ttvPyNcR6Ql9z50X6PLWkOu3dz/+tcbsZJ57tRyjxStG0HuNS1IeZqzKVILFy7Cz3/xc5xy6im2u9GsmTOVE/Y9HvXbWtcB/3wofBeHkE3VCUva5aXC0ZQh+Smidi5kzxlda86mpGQt+XRw+e1MuV1nX+EozyWhK42qLFb3hoBWPtXV1dKrgRa8XLe+4BNO+DT22HPPfq1C8EP3jbpI9EnjP/7xD3jkkYftBbW1YLN+VkLvOPvAV74TmdeeQnbZs9bgXHnxgdcw1DwLfGvFClVITNwd8W328CZv+0Xk7Oncv2NevG0ohaFfk0aQQ9+qBQh1LEekqOlJGjF09sL6dpD2TkxmEQmRuMjyeu52QJIdNjwdm+egcf+PAZXNrMTq7yzFWhKk+tL0KQSNXvsNTM1ItvTrKj7veW5feuklvPzyy7aZhdTmnp4uI1pN7bj77rtxySWX4J677jIyk39qQL5f7p8/DEZErSVvZ5M46usb2DgKmP/afPzv//6vkYAkHxVNf/brUBZ3H/oioL5Nc9+992IVVXhJp7YDEiVvDXxIXVeXgtT15555FjfddJNNQfnnP2+zdcwmUSpeFhg9tPrA/A054hPhn3XW2bYbkdtf0UXITbZ38dFWfk0kgqeeetIGwtRH69vzoWszlNJFcP/61//ZZ4I1VSollVqEyfhq44jOzg4sXbqE+fwS/n7LLbj26mvwt7//zV4kIobPfvZz1s+7bOlS/O63vzM/3NZwFpINeCloEa6+j3PIe99rT9QX/Mwzz+D222+3stEL0UmD9tjcSOLdj+Wij6WZpO3EOc8obxzcHedQc2P/8pc/YzXz3027cmktQcQH6FMfxxxzDOpY3gMe077an+quun0aKQk//NAj9ulhDaCZZQvQr5uu/7K3N8kX3xLMmbMzRo8aTRYdHO67D9QOrBVuFmhjqjjrTiG1FJ3//Al6H/6FZair7CQcE+slhBSQjWRRkW9GzX5fQM3hXwQqqIqU5b0K1L1PS7ff3qJRXFxjtZCySbTf/wt03nMtqjItyIe1tlhQLDQrU9GX+p2zfkop2T4i+RSS0TrUHPAlNB/GtMTradmv3gpHZyE899xz+NznPmsDOeoLVJ+mvFKl1L+LEVVCSj6SjDR9Ro1QlVgSiEaI9X0cLZ/r6uoxEtWabfushYpdYXpG0ICOCE3boGlk85D3vsfsSOX8641/xde+9jWTALWmXvtbGuGyjJxz54dg/vGZpGjBRsRpNIdPEqDWNdfW11sXgsiprb3NVgZpfmaU9+Re260pihpwUcKVRn+7Nw2iSbr5wqlfwBlnnGFr3434FSx/XJpoUe55SPLF8ac//Qnf+ta3+GJWH2dpqo3gp1+OlCb1g8o/5fm4cWMxccIEm0Ilz0R+GjBZsnS5xVf2Rcj6AJo2ttBuPHvttRfuuvNOnPS5E5UApslKzMJRXiqOkhIvu+x7+NzJn6edog3uXP/Tn9rLwvZp1QvNYu+gcLRm/Jxzz+VL7ByXRm9029nSrztzqVEfb56kvQQnn3QSXnzxeVRYl0DJhiB/NSilr0BecumlaB6pASf3vCx070LfDWrDlVdcYd8Ikj3fproZdGHvMx5VPinmifZU/cYF38CoMaPdfNIh4MIpxan/zPNrS4GrfZsJlg8ujwflia5cFg4Nz3aZFb/YhDdy+e/BxVTv0FysBo3b7EJVeiQrCNUyPvHDtTFtNmiRZNHUdKliHpWzEhUpdRaqRmPEdrshFK+xxiO37tXgwlAl1pplfYzKpBHes79SIJ5NEgsbllRuvWREeFKR1qxZbR/pX7xoITra2mzARJKY7VRjflhsHHRN4y9v02TkffbZhw3LVQ/dW7FyhZsGo/irYQhqsNb6yvzyoWf+KY0kOqmE2mX94Ycfxu2UHjUC/cijD2PevLmUgruNJET0klx9d4qv0uOkGEVTpJG0l4i+ly6i1H1/hNziI4f8USz1opWE+973vc8kOS+pfCx78lNG5+ZID4xMpfqL4JcvW2rzMP956624/bZbcf9992EeJXW9gAT1z7r4FjFh/HiTYuXHihUrbP29zi0+8p8BezlnAyn6KJvyU3NXlbfKY6XPRcW3WYLi1NjQICe048pG1sx7+3PnDqpvRaylNN3V1e0R60AbPvSiHUMycyufSpH0bZvfdKu/xvomnHjiSbYNn7MropQdxkfnss9rvQgrEhWmJUiyTfb1qiI5N+uZwVdlWO/G5oOX45sf6xfhxkOJ8RO0wcx/y5DPpepjfW0jpyI0cob1nQkurPKUqJLJpVNR5IOm5BSLESQ0XYju5UiV3ze+e1VO9Rt+7GMfw8zttnfh8ZEGwpz6zUva16kZ/kgWifCmvkmuvk1JRiJPDTiIbKTauakrzr4qv/nDC/VTKvwTTjgBn/nMZ2xjWUHEKLW5rbXN639yboYFhaU/HUmWIiHFRwQjCTdOtTDhHWORmE1Jku/9EpUXR/1ZYhkXDUScdtppRuilkWQ9l0vZlB8iLx7NP/7xmSTtL3/5y/ZJBI2qOzXWc0Y7vnH3lE8kbcVV8aNElohFGGdJfLRDt3HmqchdzhSGVGTFR9K8BjUkKZOpLRy9DM17I373spGULQnb+v+YtjRfoK18qTmI5rw8KINedtqB3aZ7uYi/KdT1oBeR4qi9PrV/tR8HQUeVi75KGYuXtJ8hoTAZtqZjfeUrp9mUMr1IXQ7wt8g8ZeXUUX/yVy+Bn15/PR599FFvWtW7Fz63vLvAkhFhyKioZIbC+tXt34WqhLKMlSLMipVoxNiZe1rjWb9y85oqqhqCOXM/hnAkjuoJM4GqkazAqrBKwfqxVaPVp0Y/f/LJ1ienzS9kSw2MPvNMb3UvZP7YAJjO+WNHeyDoxlBGYRdtFyJtFvzJT/0XTj/zTOvst+eEGrvUua5up3JK0lO8fPiNTihvgHZu15I2BtqXce1dz10JuijJHk2/e2c/S5LWnFD1l2kivnZPEvmZt4yPOfFMWVCEi6viLHLSd67VlTB9+jRTaS2MIVCKlwZ1tEGH4kcCZaTD2uREdmQUpkXTkaI2xRCByN/Vq9fYS8YtS6RFS5tzpOcNlBD7yZ73lD7tDOQkRqXfPfIhN1W1NZg8lS/Yfr88swFIYtUnINS1ojKQH0OlWVOCmpmfSoPCfiM/Bb1INKdVAz45vUBpX6Tpt0f7cJ31y2vvVO1E34kf/PD7WL58iRJiQbwbsVnJUkqKYpBnJssMGywMRxesxDSiqnJsikRZ3EOViMzcDx1jDgIZx3YWsgamXdkVR6WJRpVHRhJNjqa9aRYa6C4Xq6U97V+kPk7tri5fB6ZF0s17338oPnLsx+zrg+q7c9ur0S8at5kww+1vBApQOeARRUh9gK4fsNzwx+LXm06hoqoSp5GEzvzq2ZgwSd9O91Q2z9i0oRY3bYh3DM4fBUtJllKW+kolOZgETFjDtD9ZtlsGxVUjyyJgTbtxkon8I6nSCHKr+1KhU/RTUtuBB74HV//oWpz4uZNRR1UwFvcH+GifAajrw5axlgdGKO1q3CICScsauLr44ouxyy47W0O3zZwZd2vslo90I8MT+2a7slIkaUTC0vUql8KSLUHSk55rZF7lpZ3a2ygl2sgw01kOSfayL7va+ENQejs6O7Bm9WqLR0k6LiHHuNVU16KhuYlhi5hcvpUw+NrFS+XmCM0rdy/Ofh6rD1UzDkaNHce0agBoYLgDofJxeSKt54QTPoXd99zDppll6A+9NM3HGZW9syvCfOrJJ/Gjq6+2GQ9m8V0Ir+g3D1S89jai2bjsUzGILL3GaL/rV5Z3HjGEG8djzKx9rb9PafEbmox9W4cEqEZfqiBUryfMAhrGGD2q7mqpp/GEWRmYFlVwSSBf+cpXcOihh9oTEaW9KujOSEmDLbzff20uy8HYeM8EHUVWatSzd9wRV1x5JT530on2ZUjFlx6aPcVNnqnBrV2z1lR1NTrB9ytBAtcHyvbYY08cdfRRtv5YpGlpNg+c3f7w+yOneCoVkkDKCIVOZEXx0wixVL7zzjsPV115FYnuINTUaIeefk/srHTlzku5NxDKS/XL7bvvfriSadbndUVeGqEXcftpEmla3FiguiPpXX6qH9qIwLPjQ9KgCFfSrkiztbXFJoKbxmF+yb4XT4YnktJWaDoKKr+WdS1Uw7U01tlxWWc//ahrbKAUmLA4ON8sVp5ZH5oPqVkFbuK+uh3cC07eKp72AuCNypoat6Ze8XVOB8EPo/ypPvMxGueeex7sUx8Mq2y6MR/Lrou/XrEVlXHcfNNN9u12yzum2TLlXYTNSpY+XJYOE57lId0o7zdR/uv9q0qRizaievqelK70jRfFS8Tn5Bt/XqjVDTb+aDRs0mDzDgcC1aMsEW9UPf2RXUkrEyZMMInoS1/6IiWrOvRKtdKgByt4jhXPRsJ51Goi1UO3aFJGsrcCYsx46OnrQ0dXl/mhT+b+4he/wAc++AEjShGdCNeipAQYijbq293TbR32quBq5D5p5EhoanS77LKLTeq+4qorsdPOc4zQ5a5Py+y8dMhoRDQaidvmF5GoRuYpzUhKC0fQ25eyqS568UymhPvFL34Jv//9H/CVL59uq3OUDxYxJXAj4YevfNCqp+23n4nvfvdiXPeT63DAAQeahKkJ3CJO5aefDSo7XftagRJufaH0S9vXqT9QA06a/K7+UMVPUqWmcfX09aK7tw+dXd3Mc2e6unvR2d2D7bbbnnWmwvwRSa9avco+f6sXj7571EV/uxifLu3iRKOpOJqXaQNPtD+cHNDcWK3nl2agc+VtZ2eXlX87w2ijNKsy0rJLLWsclq+qF15eqs927733wpe//CWbqtZvGNeenj4LT4NLmonR15dmHFK4/PLv2wfv9G131SP/BfVuwGadOqTp2hL8w31L0HrrT5F5+HqvIuopK6a9nVRhC8hGs4gXRqLygC+g9ohTvLXULDT+9TO+2Mvcuoruw7v1tkKyhkLO8hhrW4ruX34GXWvnIZbnk7AkMBcrZW8olyC5JlFg5eos1mP62X9HZOwsug1TdacKTiP7Pjk6udTF2qZkEFZMbLlqzM89+6wtq7vz9jtcP5dsK9NobFqMnWqEvGA72ciphAhtkqDNcQ866EAceeSR2Ha77exLgXLnuxdE8s4TBVnAPffeg7POPMum+Zg0QvJQV6GzxbB5cf755+Pzp55i/YuaWvPQQw/j3rvvwfPPPW9zLTUSbqq32Mc5dIbQVCZtNKwBj9122Y0NcG8cfPDBJlUKInF9AGwAvLgKLodK18LAK2djMCS5SrLsIZE89NCDuPfe+/DII49gxfJlNnqr+PZ3K9Con9rPJw2gKb6777EH9tpzT+y73362tFL5r3mtF114Id26aUUiBeWT/vWCU9l8gS+qgw5+D8vGjYTfddedtrLKVXn1jw5MgV4+R3zgSJzw6U9b2hQPxV12N4R1a9faFDARt8rNyElx8duVVYwQ5uy8M85g+WohgQZmLI0D4Oz3w6uTgvzQ3NNLLrnUDWoRzrmIUMbu2D1lpeKw005zcOaZZ9o6d+WPq+ulMPvP5LZ0e7Njs5Klv2gq1rcCa+/+H3Q++msrqMGFpShqL8tosRnxfT+FUYefgFi0tOqlnyzLzt55uP5FNaUQG1Xvzeej5fFfo9pb960+J0lyQjTNShFqB5UsxLc7GiNO+DGqqmuskkjuE1QIsk/6dOd219UVGVUyQXmhUWNJCvPmzbNvoTz00P3WQLUCRJBKqYnbcql+On1qYbfdd6PKPdumI0ldrGRF9YnLz3P53Z/3XkXVIMWf//QnnP/1r5sUKdVSkMzqQ9LOZZddimOP+4Q84x2jBvRSoliyZDFWr1prU4ZeX/g6Vq5aSYmrx4hE8zknTZ5kUvP0KVNJPuNNgqxh3pjUbCkXSjLP4LohlOfVW4XSrjzVh71W0ixZssimXi1auIhkpq8uFa2fTl9snDp9G9vnUWQpo0EdP146qhtC0qXmNdo+mcpnL3JqbSKuWq3rJ+FaTrJs9RKUJKZnNmPBWe9HhnlfW1vrpn/pOY29uN4AKi9JjjqKxI0sGQFfm9G5+hYVD603t8E7PhWZDwdyL8hf5Z3SYPnAf3/zZ4un+ac6od3htR+qdr1qsEHLN0vDloTNSpZqb7kw1dNcNzKLXkOyXd98dhWuHKYaqhhZsKGxOyE6jm/wECuAVSkVsLO/fhV7J6HKIOMqQvpv38DKh29ATZ6VP5zhrdI0jDjJEpEuLC4mMOtjFyO8x6e8huKB0VYKRZZGsu6uwaXQVUzf8Ef//RWtp7fbJl5rMEF7IWpAxKa9sLGqkUjttLd4RJKRKjfzcZDkMjjPfWTY8G+4/me45NJLrNL7ZOmTPD2z6TI/uuYqvO+ww909izEhK4oo3Zl2kMsakdjEbP7JP8WvorLSViyJVIr2bXaWpMXP82foqL3tUN76QakPTp+FENEoCSJMvRS0rZ26XMrzywiB+eLfsyPdmGdyXFaiFkZYZczMsaQyb3jPfxmaP3JY8t7saWDP3JaF8WZE4/tr2oYHl0YXlsXKC0f3hY0lS9+dwlGcnNEzV8Z2bX76CXLHcvvvFmxGsmSwGVbEuDJT5wXkbYTPz8CyTGTjtrXU4XYavq3DGkWWaqM/wf0Or4jfLrhBFr2l+3p6sOZ3Z6C44FbU6rs+YQ32lCpoIl2JXKQP60Zui5mfuhpFfZjMr5CMugpARKnj4FFQPxd09CunX2TlFW1wMZY/Kz/3K6kw+DgUtBzxe5ddht/85jfW6JxdPyw2RqqQmvv3059dj5132YWFUN4wB/nvOVMjUnx1f72wVdaC7g96tCnhq5CKwsCc3TD8tKyXpjfB4DId7N5/5tvz7QwnHN/+QDiyLIfKRP+uXg4//n6cyqHw3D3zkL5tOE3DScOWgk3LLwPATIrpLaoosIHFEgjHKmkqEKaKHVbnv2+0TCsuO42McZURlPWtyA/vd1MnRJN9JNumSPjZ1a8gsugRxKwOKjYDCS8bzaCbJFo3dW/kx+5YqiA8WJXyjoMhW74R5K7clOONngn+vcHHN4MGBxYtWmzquHOhBsCE2otN5+7bLWNGj7U+Ut7oN+vFxTvl3Q2Hr/uSKsseWx65000IL45eGoZjzJV3fCvYkNvy++VhDQdD29W9gcb+NsJfHxty4+47f4eCnr+V8DYnNiNZEiZ9KQo0zDeXvUND+WpSl9woo737wobcvJPwG29FthM9rz6MWKYdcalUuunNc/RNVptuxOowars9kaFkXB7jDRHlhlBeyfzzNzM+hrr3ZkimUmhrbbVRbJccEWIBYUpeUuc0Sqx9L7XMz/qmLDFm0U7LjcELeoMx8B4MdtvvfhOhPK82xrwVDMftvxvGm+Ot+1set/L4vXNx3TzYvGT5b0DF4NHsJodUiEghi3iuG1j7Mnqfv62sr8nES1ryXwQkDUV2xHREx+/oIq5K5BknWzujPlg9FpzLoaFK6PeRDdf4eKNnQ0E77WgPQzfyyniRtcL2MqBhwqSuaqDGph1ZjGk8dtPVekTXf8Gwy+wOhn97iEdbJYZTHuV23sjeW4f83Hh/B8drKLM1YHNwzbsa/sRvbZ6BTCdWPn0fiqteYIVgs/anZNgvYWJjmKpsBg2TdkCqepSmsb/VOrnJoXT6c/QGQ0kVcarrSaPYSupQSXoXJDPAAPTX3gCDEJDlIKiq+OPcFJq8vvAs7yd5z63SyVOqK6SzaLv/7+h79GY0hmI2BcMppnTHN6mMTdzmsSM+BTU77Y9sJSUwBSCGKYMIxScVHbeUQsnlcrYfZjLZS8lSU5YkJWhvRsaSx2I4gliiApOmTOUdysUa3PET4yXIT493OfB5uRkEuRlsArxdGKoAyk2AoRDUwTKIwlRVIoUMIrkeSk9J3kjzgTb31drvXt5fg9DqZ9F67/Vove8GjMqsQLVNr6drT7Lsh9RUsm7tNjuhfuz2iIcrmOOD7GzB0KRsTTTW/DkbCff+yJimlku9qqqowvTp25AoWZV4HSDA1oqALMvgaIzslu9FZukzWH7/T9DyxO9QePUBFOc9jPyLt6P77uuw9M8XoPuhX5IolyFOEk2HE3QroigRoaZiaD6jhMjmHfcGqsdRBY8gq8/iDiAVnqsP0DdbEESW+o615kZqDqfWhmvVSz5X8I556Lstzc3ejjUBVwbYihGQZRlcW9dSxTy6Fs/Dur/9CO03X4XFv/oWFv72Irz+18ux7v9+g+jCh1GdWkuVu4i+SBVSEa0Ll2sq4Tb/k9SZKyJbiKFq6l5o3G4fiqtuJ3UXhk+qHrvwYN2b3uWWAi3D01rfysoK2xNTI+JadigTotHH98eOHeu2GgukygBbOTbvCp4tDsqKFOkyg867f4fO275FNTOGvCbPiwC18oWMZmPX4gb9aDWGjYBrHqJ1cFq/ZD4XQVfD9hh35Fmo2vlQIC6ypH3atT4/Y0gnjTlXDnpSftxcULUQUerbNSuXLzPJ0Y34e89ppIaPGDka++67r+1GHiDA1oyALMuhrAhlkCVZdpEsW/52Hqor47YWWytL1CVpfXZlVKYPjZnqLvXakxiVpR2hOtQffApGHHQSwrUj6YJk4+V0vxDmkeXgAtD15hb5tdLH30hCc8TdZxu8l0QZRP2mggcIsJUjqOXrwc8SbWmhHSdFFjRhyn9h7Zrt7Zxtf96WYQNQRDpeg4qd34fGPQ4jUVbThuhP9nwzNDb8ZNNDUqNIUGvMZcJaV66J6RrxLjMBUQb4T0FQ0wdAdKUscaSmnc+1hZpto2akSWWc4qH6FgvhKI+aRiMiTfN+DoVQDOlsDWpmHIG6930NsRGz6It2wyaxEF5vJo1bsGnBEC40gpyq45ZSKDahmBKlSc8mQfsxLTcBAvxnYEtpl1sQvCyx7ajjJLA41W+ZGKL5GBK5KBJ5SlzFLAqRFNKxFHpIlvGeELpCoxDZ/zg0Hn4Sqps1UVsbtQ4kFMmYg9Vuw5A3Nx98ydKp3gEpBggQkOVgkNy0IYS6L5PhKjM9xQR6CxU8OpPKUzVNAdX6umd3AoXcWPRNez+mfOA0jHnvKciNnWPboQ3I3jLS9GW0foIsJ0qdb2HEGSBAALbZYICnHMqKEFLZDoSefxBr/nUtKhMxaJPcnJ6S4WQjwiyL5IrIUXLsrWrAmJlzgG3fj7r60Xyo71jHkJc0ZuorHZTtzWiX3rkXXAmDrwMECLDFICDLfigbZLRPZRbFPNVsLfPTSHf/SLgyzH5pdAihGIkhFE8A0TgK4QhyRVEhVVjLVW9oR4NDPAt70mX/noH20G4FCBBgC0dAlv1QNojUNNXc7Z/jwHt61J9LIrkyhrMt42hLgz88KXhk6lY+Onvrk6XnvmzqkO99meIeIECALQgBWfbDpyyRpc6c9FdOm0MRmezKhstE99vPgN6pzcMkSvMs/ecBWQYI8G5BQJYDIAlQxOWm+LhzZ3Tl7rwZPNvluWpiJml3PcmSR//UHYYZRoAAATY1ArIcgBJlbQx5lWegzuVmfXci4kFyo285QIAAWzwCsgwQIECAYSDoIgsQIECAYSAgywABAgQYBgKyDBAgQIBhICDLAAECBBgGArIMECBAgGEgIMsAAQIEGAYCsgwQIECAYSAgywABAgQYBgKyDBAgQIBhICDLAAECBBgGArIMECBAgGEgIMsAAQIEGAYCsgwQIECAYSAgywABAgQYBgKyDBAgQIBhICDLAAECBBgGArIMECBAgGEgIMsAAQIEGAYCsgwQIECAYSAgywABAgQYBgKyDBAgQIA3BfD/AUZUIbImQwsKAAAAAElFTkSuQmCC;" vertex="1" parent="1">
          <mxGeometry x="944.62" y="710" width="121.83" height="60" as="geometry" />
        </mxCell>
        <mxCell id="wOMFnB0pq9KEX2PWQIk_-7" value="" style="endArrow=classic;html=1;rounded=0;startSize=97.63759999999999;" edge="1" parent="1">
          <mxGeometry width="50" height="50" relative="1" as="geometry">
            <mxPoint x="824.62" y="700" as="sourcePoint" />
            <mxPoint x="934.62" y="700" as="targetPoint" />
          </mxGeometry>
        </mxCell>
        <mxCell id="wOMFnB0pq9KEX2PWQIk_-8" value="" style="endArrow=classic;html=1;rounded=0;startSize=97.63759999999999;" edge="1" parent="1">
          <mxGeometry width="50" height="50" relative="1" as="geometry">
            <mxPoint x="1084.62" y="701" as="sourcePoint" />
            <mxPoint x="1216.4499999999998" y="701" as="targetPoint" />
          </mxGeometry>
        </mxCell>
        <mxCell id="wOMFnB0pq9KEX2PWQIk_-12" value="" style="rounded=0;whiteSpace=wrap;html=1;fillColor=none;" vertex="1" parent="1">
          <mxGeometry x="660" y="560" width="704.62" height="240" as="geometry" />
        </mxCell>
        <mxCell id="wOMFnB0pq9KEX2PWQIk_-13" value="" style="rounded=0;whiteSpace=wrap;html=1;fillColor=none;" vertex="1" parent="1">
          <mxGeometry x="660" y="520" width="704.62" height="40" as="geometry" />
        </mxCell>
        <mxCell id="wOMFnB0pq9KEX2PWQIk_-14" value="&lt;font style=&quot;font-size: 18px;&quot;&gt;ETL Flow&lt;/font&gt;" style="text;html=1;align=center;verticalAlign=middle;whiteSpace=wrap;rounded=0;" vertex="1" parent="1">
          <mxGeometry x="922.31" y="525" width="180" height="30" as="geometry" />
        </mxCell>
        <mxCell id="wOMFnB0pq9KEX2PWQIk_-16" value="" style="shape=image;verticalLabelPosition=bottom;labelBackgroundColor=default;verticalAlign=top;aspect=fixed;imageAspect=0;image=data:image/png,iVBORw0KGgoAAAANSUhEUgAAAOcAAAD5CAYAAADcKCLLAAAAAXNSR0IArs4c6QAAAARnQU1BAACxjwv8YQUAAAAJcEhZcwAADsMAAA7DAcdvqGQAAG/jSURBVHhe7X0HgGRVmfWp3F2duyfnTBgYGBgyqKgoSJAgQVHMoKISBMWsoGvYFV11ZcX1d9cVYUVAUMkgkvMMYQaGyTl393Su/J/z3fe6q3t6cqrqrtN966X77rvhO/f7bnj3BXIESiihhIJD0NuWUEIJBYYSOUsooUBRImcJJRQoSuQsoYQCRYmcJZRQoCiRs4QSChQlcpZQQoGiRM4SSihQFMUkhKz9Mpr8D3AvENDvjkLJk9vaPTsTVglFBU+ysyxikxt3WDQofHIydjn7sR3GOIBAcEezWTfIid597/GPS8bDQIAvxvkVd75k71R9XiAoaHLmsjlkAjkEMkkgk+A2iEA4bLxSrAMinsiaU87ThULkWrCbkvJkheKXjPnjOV5UuEZZ3W9/FoIh421DFryFRJRIXKgwCeYPpQUplmIqEESU27AnCVZyPFdsKGBykjy5LDKdCay7/w60/O0ukjOAMmlN/gdFQu4ny8IkbATpCIkZiyFaMwTBaBlCkTCi5dzGq5GjC1dWIVZWhbLycqCmEuA1xFiEwQhyvD8bjTBMEt+VtLkgw9efyyFH350zqUvY62DZqHgy/E2yoO7fuBH3rl6NC8ZNwMk1LPegqlpW6lZuxUXQgtacqgcTazdh+Y+uQ/y5RxjbKLLBNEsjw4gHEWSGq76U5uSvHYtAOpelxrNr+mOjI0viJXPSugFQASMZCpDQZYjHK0nYCmQr40AtC7O+FtnaEagcOgHxkcMQqK9GqIyEjlTw8VEjfoDED9IFRGZWEgqTj+p+tg93WjFw0JVuReyfLGG3YNlJeejgzl8bN+P6hUuwLFiGk9JduPXYmaihFAWoNUvk3NPIppFOJLH+nluQ+J+bEG5qJQFTjDXN3GzUpD8byCLYJwU6NAvWg3a7SeFBnQR9YfcZweRCKlZkYiRhRRnC5bUIVNUhVF+PUG0DIkOHIzhiBEJDuF9fh3BNA6JVDchRewcQYdRkYjNAezh/mM0K339sSQPvHiS2ykPlansugXs2teIHC9dhfjaINC2eozNduO+Ew1HLUpQwlMi5h5G1qGWQaNuMtr/ejabf3Ih4spUCnmWRsDbkb5YZ3zfLHcl6YPxwu90wPzrpeezx49/NI26cPz4nGGJmyexVYUsDs4UTK0OuooKmMzVrdRWyJGh49ASExk1G1aRpiI0Zj3B1NTVthKGELD05amy/MpHAlEi6c7DyEDGVlyyjJLPvzg2N+PayZViRCrPSjVh/wjHZBO49/nDTnCVy7iXk2O5MM4bZRAfaHrgFq/7jP9DQ1sT2Jk8GqNuyFHxmvoiWL+Z+ovLPqQMov3jkp/u6gnMb7uQZp7bjLmpX1UKApmw4E7K2KCtq8y/jVb+5AAUkRPM7EkR7nKbwiLGoOPRwVB52KKqnz0Copo7an21dCpE6KUrk3Dn4ZaCyzGRyuHfTJnxl4Soso6WSZblkmJ0sDpyINO45mnmuJlDJrN17UBTl0qwNN/39LmymBi1r2oCwzEeavj6ZusWcB6YViXzR33Fyum236aualxvXKyy4rT1VksBDuy7nBWA1e5AVi/wp7mwHpSrZpp08DeVHHYX6w49CeNQkhKpJVrZjrTfRD35rUNjb8zOAYZLKnxQzOcHdfzS34OuLFuLNDPMvm7W+BKvwuHkHK/U7RU4rdZ4ukXPvwEWQwq6hla5mNN1/Jzb/7r8R37jaOn7YMvTIKFL0yO9Oy3KfG3TYQ3IXC7dxz7GztuOu9TxXZO4JyMxwelFYMscTIbZn2TYNj5yI8sOPpmadhdikqYiMGI4AtW2OAqbOLReCEy4bEFAA7n/QwXJYeci/zkwaD7e14fqFy/B6KoQ0taaGUVxZkJzMqvcxl2476mBUmHgzLy3TiivnioKcPqSHcrk0sh0JtD78MNbd9APEW9exDRdyHgJZJiifFoUJJy5qLzNNoTBy8Tpkh49GYOJkVB93EqpnzkJ46CgEQhqzdcWTy0kjuJQNJku4WzgppsqvNNP+UFMjvrl4EeYly2nKqo3pG7oOQTZ5zgyG8YcjDgSrOk9rFl+mFRU5JagWXf5n0u3oePwJLP3Jl1HX0sGEyLxNcysh9shayLBk9AiMTOhckBqgrAKd9aNRdeqZGHrqexAePobCFrOOLyaOekHCVlzm2e5AlLN2PtuXqQzwcKINV7/2JpaRdpkg2/Y0cF0FpvyxW7jJ4oLyOP7r0ImIU15ETpdnPfldDCgqcgqKriKsjiKQkC1PPojVP/s3VG1YQcUpiVdh5It9AcJyXGaqBEaVSYba343dJsMUwrDM4AokGhpQ8+73ouG9pyM8ZhrbpuXWGcUEFpmY7TqUVSKnxjGfaW3DtW8twLxUlGdCrNBoysqDmbN55OTJD1Y4cpZ54l1qc+4jWIT5o3ZGNkET9+n7senXv0R0xVJeoGnLK66NWNhC7GLotq49KlA7yjSnqa5UpIIBdA4bjqq3nYLak9+H8qkHI1tebm3SkNJnQjdw4PKgBxlWWhlWWk+2tuJri5fipU6182k/kJDOlFUlx42fDdyKnB+riuOm6RMRtVN5F4sIRUlOH2bmZtkGJUHbnvkn1v3yx4ivJ0Hz2p1G0iJNodqZIm2INm+aApkcOx7Rk0/F0DPOQ2TEWITC4QFHTpWVNKWKTBVQiuL5NDXm16kx5yQi6FQbnc0X82jlqvSrMuOhlxUBWlWX1lTglwdNQti0qlBcWlMovhjnwYolEKK5F0f1ie/AmK9ej9ahEynUMZq4mvbsCrlYkVMHl6wDJrQsk0HZqkVI3/7/sPBbV6H1uYeAVNJ6sNVT0tMdUrxQWVnb2/ZzSDBdT7W146rX5+KFTBiJoCZzaFKBfNCjVUxyyivbGLQbCcv890s/72IRoajJqUy3hr5SEQmjfObxGPftH6Bx7FQkQi5pVtBFWDYu3jTcadamQ1kkKZiBTBnKOlOIL5mNNd+6Fiv//cdIb1iDTNYJbBEbQYbuqpTllWKhPUdiXrtwEV63DjGa+Wxj9vBMO57rPsddBhEkqStiES8/ijdPipycDjYDRC8JBcOIHXw4xl91BVKTp9hkdxWOCsx3qpmLAYpmKBtEJB1ENJ1h+5JaMphEikSNJIOoTHQi+fdbsPJ7X0fn3FeRS6UowEygOsqKUiC9foJsFiluX+zowLcWLcO8Dg2fRG24xNJlnWheIVoy+xQoD1VflwXd0JO7qxjzY6CQU04mDv+D4RgqjzgWIz9/HTrHHsRCDZr2ydl1FZd8FwlYm2iWUY6Clg1KeElSakkNp4RyNHOTnQjMfgIrfvo1tDz3CALJFLWorNxi06KKqyNnmr8vtSXw7YWL8WJXEl3qnbZKxyeaflmG3cnjcV5StatXDWvsvV+GyPsUcjFiQJCzGyozcTBagYojjsG4b34bbeOmIxlSW0UTzlm0KmvnuyghMesWNSY2TLKWLZqPTT/8Ljb+7U8ACSty+tMGi4Wk7n1MYHZXF655bTGe6wqgK6SU7ryIqvLSe7+Wfp2QUBQhBhQ5pRU1vBDknyafx6YejCn/cgNyYw5RcaGThS3TdiBBYhehrV7WvBaNN/8A6+/6A3JdTTQNM/bCQHEkN4AU0/BCIolr3piLl3IpdLAkcxm2G3dBRCM0HyryzPtiLfKBpTkJmbdKlOYIZUPlCI85GCO/9lUkZsxEIFRGMVChESwx21PJFWvpqR2mThJNa+RvZXsarX/8LTb/7U5E2psl3l4BF2oCacmQRBouea2zC9e/tRTPJWM2gd29TauhIq+8dgIhasq6cARsERQ1Bhw5fag7IMz2ZlAa9IDDMeLyLyNz0NE0ddwQi5Bm6tNFMNNv66DepCC6zi7+5JIob1yHzbf+Du0P/o1t0BZWQJptVJjk1ChQmvF7nRrzBrYxn22ltterX3S2xlNQlc6uxD2A2qhWzShOc9bHgCWnoKIxUzcYRvkBB2H0dV9F8qCTeFYv5cocVPeC11lU1HDdXOr60KJk8bUb0HH779HywF1AR5spTgl5YZGUec98fyOZxZfmzcWDXWl02jimIutSY/u7AN1VEY97d+t318LZ3xjQ5BRMbCkE2XAM4bEHYuKPfoyOI09CMkgTl8IaT9EMLpbxlR2Aeib19k562QKE738IzQ/ch2xHKxJZaiVeLQSCal50kvGZ19WJa197A08kgUSuAinWLKounSe32RVEGEZ92HUAWuOlSDsaBjw5rVhIThpL1gZL1w3FmGu/hdzRb0MyWolEmIaVFg3z/RLFTFXNKpIL0XxvWbEQsZceRuLRuxBpabTBeRFjfxDUzGsRRWXAHH4tkcK3FizB03rVhJYMgkmeJUu7S2HXUUaxLmMwsiKKuTQHPDlVNioeLUQdCKkdGkBk9DiMvvwa4JiT0RW2riPTnhlpWHlmoe578d0z8EVRL6EnWpuQ27QSeOFJdD78ANDWiAzbpVmtHrEP4YjpKoZsLo232Mb84aJleKQtjY5AlGSlGLLCsA5WloHBT8hOQkqyiqz0uxJkOTmjv/gwCMxav5zdniZTh1l04QmTMOqqa5CbdQq1Z4Vdjkmz8LqWzSzO4hScMGqsL5hOoX3DRkS7OhB58Um03flH5DoaKf8udSLMvoARkwRVlbA4ncPXFryF+1o70BnQJHbnx0VFJN2NnPdurYpEEBJLtZiaOgWLtDQHvubsAzOsTIuGEBoxDtO++1MkTno3NkfVUskiTNUZtcVoihuSdemrZFsH0NmJSLYRlfOfQ/vtf0a2aRPbeGl7HWtfmLgyp/kwLKW7fO7ruL89jE5UOCvFsXJL6PTORk3+AxnUMFwFnVHaTB3vbECFgUFHThWa0xzSLmzrVFRi8hVfQ/nbT0cqVmld+JpgvSuyUWiQaRfoSiDV1aY9ugxiC+eg+f7/AxpX2BstIufeJqiaC/NSOXx9/kI83ZEjaRiXoMYxU56P/qEY71AheH5cqebQoJX/uW+nbZxUrvgw6Mjpw80kIlii4YZRGHrZFci+6wxkwnGkA258TZaRnJZbLDYoyrZ6aDqLZHs7aSk+BBFLJ1D2xhwk7v8b0LyB5zM23rhH+Klw3MacNLfemFmaSuMnS1bhwc0Zaswy5qcqP1cBupj2D3d9+3AhOHNe22GxKKJUy3a+e1im+DAoNacSbcXFH5FP30SJjRyHEZ+5Ern3nY1ESMtCeX64I/NrRwWl0CDtmOroAtKip3pxsyhLdyE672V0/Ok25JpWszJKkZy734trdzMMNyGC4fHZa2jKfmfxQtzT1IpW5aM0Ga/bhPSc1hy2W7cOK4QdgPzRySoaEtUyJq5yctPpixODVnP6UMUqs0sdB+EhwzHmi9ei7KyPIBWWiQukQgHEk1rt3buhyCBhTSVpPmZdj6kSYm+2ZNtQufhVJG79M8KbNpIoelVr19ugCl2fxlA4autlSMwNfOZVC+bijqYutATV+UMt3c02PWfPmpsqyzCf20DNqclBoqXOlchZxFAmOIKGEC6rxahPfw7lZ38YgWgDBTnsXtz2ZarYQMnMSmuSMO5DT9xlcsLSXKF2xFa+io67bkVm3RKSypnzu0ZQ92JW1ltIe1Emi6+9tRgPN2qKXrX5cJnoO2HPkFMEdDtANJXFqHjcxrSLfeZXiZwelBHW5c4CDVTWouGSjyBw7geQjdZSmKlTqHG0PGVA75wV1XtnjDc1Z47mpdJm6VM6+BciS8O5JKKL56Lr3nsQWbOa12T+7gBBdZnO6WPnV79qSa5NpfCzpctwZ0sX2sNRZLw5snqmEdMzQ/akNeKvxq9XG+qj1hXm/RWvkA96cnriYhnh79u3UOpGYsjFn0T4og/RxK22whd5tdhW0YHmpTSnIxwF1ioZbYPWLotkO0nQeei640/IrF5KDao2qPO/NY6KbBae9SYxVJGDYTbmQvjh0qX480a2MfmslDp/NGRjf4T1ntoONdseEj8vjmrPVoSDqPMrIf5ZhetdLzYMenIKW9CNJ2Ti5uqHYMjHL0HFxz6Nzmg5258ZW1c2ysaoX1MXA9wiYCIFt92C2hN/zUGNZjpQvnIu2v/8e+RWzieh0sY73dCfFjUu8pppPyNxDs1033hrPv63sROboc6e/Pv2Xn65Lh+WCclZFQkgzganPVkktecWp5iXyNkPVOPqPyqzL1aPoRd+ApWf+CLS8WHIhrLojLlXzaREi6InV+SxHQnqllDPqdiWCSVRtnYpEnf/BdkVi5DIJt0L271I5qeX95AEsvDVcbY6ncb1Cxbh1qYudOTKbEpedgvN2P/zdweqHFyoObDupEkbQYV6g3is6si9dWQeig4lcvYDvyzNOtJfeQWGnnURKj74MWTjDTyj5SrVNnPCIfQW38KCxc0lpl/YAs3UOuFMmO3QJCKr5qPzr7ciuOwtatWU3dYvQfmjl6XXpdL42fKVuK2xAynE+Ki0e54txrX3YfEzluYwNBJGzEzaHvSOefGgRM6tQEMQ+S5cXYuh534QFZ+8DO3ldYhIXbBKlnmrwi/k2lnx5493tCV0RW1PmbdaRSBCk7ZsxUKk/3IrUotfR4YaNJuhJtJwDP3Iv41lZlNopXr65YqVuGVDMzYGwmyv8jQDs4Wf1b7c68zQK3JKXw7BbBhjIlGUUWOLnltPcXGgRM4dgARSJlKwogYNZ1+Auiu/grbKehNCTzQKFsYNN+i3VZ44QXYCrm2QtqqGWsrWLUPXHX9EcvmbPKsBEj+lamvm0ErxuWHZMvxqvSOmXp52wxdyetpeZ2YP+ChVMKPiUURsxT5LTlGjRM4dgDJJ3y/J6JN84Wo0nPJ+1H7xGmSrx/BKFJ00pZw+KTxIrwfZPjbtucPq3SiKHNug8eYVyN55G5KLXkE2nWIYmmCQxVq6H6xYgZvXbkYH4kiLEIIIsQ9J4b+/qjhHycaGSMjGOAcCSuTcEUiwmVNhEZAmk1ZVaHjn+2nifgbNw0cgmiYBNF2NXkXSHif0FZR9LDgWZWOnO9gBqP2WDWoWUchW9outX4mu++5AasnrNG+T2JDK4aZV6/G7NY32iYQ0298B+s0Pf19rLT2vJhzC8GiESRVZddJtihW0TtR4KGF7UCZJAKyHVtSTqdvVis2PPYhNv/wxws0tWFvVgI3VI+gxjPLOJgxpW4O6ZBtCJuTqMXW1vL4gJuHXGb1tuNdgJcs2ZHUl6g6ahlBZmZl+0n7bgnmxuPVIt94faW8Yg/Dp5+FXlWPw0/WNWMd2t+uIUd7oDVLfvwvBLuwTuLhOj0Tw/w4YgyMqtRaC059yQjFqoRI5dwGqlyW8VvipLrTMfgU333Yfnp1yMuYOP4AnQxjZ2oyxm17DUQufwnFvvYJhiRWIaBUCklMdLyKoaRdjy14Cg5bYlus7n9MmIBiN7hA5+4MWqtb3StbUDMdVhx2Lvw45AMmgXsxibkhTWZD7iox5MFOdqWTCTopF8LsDJ2BCLErtSQvH+TCUyDlI0E1O5lxbNoPbl7bhX18NYkO0gm2vgAlyEBnEMjnE0+04dN0bOO3FW3Hs0icxorUT+uZJhG02faBIbbu9AeOguSAqRgxH7aRxVOjhXSen/WbQEQZuHXskvnro27ApUuUeYj/7gZgCH60cVCPi3Moofn3wZNQGWPGxHCyp5qk4yVmMcd7vMJM2l0FTKoPfLE/gu/MDWKMZRKytIxn3ZoQG4NtJhvXlNXh8/FH41Xu+hl+948t4buxBtvJfWm01GyzfOzDBZPBa9SFUEUNwN5decX1JIUQZ8BRaBXWJlOWDw34ipqBHM40Rxm1SeTlieStJ65LvihElcu4MKIs2gZz/Lekcbl3Wjt/Mz6EpWOU6XZibKc0c0i5NQLWDwjZJPoqVVSPw18PPxL+/5xr87eBT0BIpRygTJYmlgd2AjIYwdhvii8cZk9sgK4xojOd4JDLtgtZ0oCnOBncwy0olrAXRdE5hetd2NdjdhNKoWVsxxm1Kld5G2RIlcg4K6P39FNpyWdy9qgu/WJjD2mw5BVUmFKlo6kVZ6r44bUtLqZfUk+FEKI7XRs3CzSTobUd/CBvLKhBKR8gbarWse0F4T8CEUY9lfIKhEMIxktOPxC5CejcQyCATzGBTtBbNsTIGpyfZ04j9w057ai6NOOM2sTyGkF7gZn76sbHY7Z+o7TZK5NwRsHDtzQq6JN2f13Th+jc6sSJYQWFlXW3DFL2xhTzQS4q5nQ6Fsbp8FH5/wifw2xM+iWVVo2xBMfdamjTo7sOUJLeKVTgSRShig0DdNNo1uC4wrUz4atVQtIY8bezBem33E4K5IKqZf1Mq4l4a3bBWN3Yv4fsNJXLuADQEorV2WtNJ/GFlEt9+PYXGXAMi6TBoUXVDsuqGWnRPb8h0DZPYQoYC3lhei/tnXoRbj7sYS6tH2bzWnN579MPYRYGSZWxR0rxWulAFzeeoPnOwe1D7UvFeHh+BJ4aMJElltO9iJPcwAtSW02JRNARlvyjnXe4rH/ori2JBiZz9wC9ec5pcQBlso9TfujKFG+cHsAkxFjpP8r9XwfsH/cisCbKZXG6sU+vnrK+oxb2Hn4tbjv8IVlfVUnOG6Uc3Z60t6vZ3Dbpdd5dVVDrTemfBZzvB7klhZziMR4ZMxbyqBsbPF51eObB/kE3j6LrKnvYmk+unWNtdSH1BoETOfiBxMx1nE72zaM+l8NcVHfj5mzmszpTzvPtqspxpKu7qHgmBhirk+hcIedR7jpruF0Sa4rSxvA53HHkebjv+E9gUr3L3kRjSVGrT7ezMXXu2tCbJk9EbGlWVPLtzYQiaJ6sKQl9iU16o4lhYORJ/GDUZm2kqW/w0vmlB62c/iRLTW8EIHtNQZzO4VJ/52lIx2vmUFw72U44WA2TMZtGVS+Kh9Vn8y9wMlgWqeUbmHLPN02rbJmN/kE9nEGpyuUjQEqnFn444H/fOuACbymv45DDKUqoAUnySRG3nYYo3FkE4HmN4EtUdg3yqxabvx6jHOcT2sCqgjbE6/Gb0LLxSN5RJl5ksnzse7l6BHs+ENoSSOKyymvnp524f7Odo7ipK5OwX0lkZaswM/rYO+MYLKawKVlu7cSvFv0tw4q0hF2BzNIY7Z16IpyafjJZYOboi0gJRetiFImL0UhpeqKfWZDtxR9Etw7yluz0Z6ER7MIy/DR+He0aNpyaNMl4FIDZWFlpmJYdDaypQpemRWarQIiVifyiRsxdcycqYbKdJe/fqDL7/ahbLA3Geob6U0FIwnTOvJsK7nomu+yLJgLOIY0ndWPzpmA9h7rDDeezmqrpeUN95D90e6FW+axvq3YG5HYEmT0hz8rkSfgp+VyiKpxsm4XcTpmOdzG6bfiifOxiXvQIvPSwEzbR6d10D6zCe8yoNG0KyveJGiZweZPpp1o++gpVgOT+4JoV/n5fG0mwZc0l6RMK4pUBKTHbN8HT3KlwtGpYLhGzW0OsjDsafTvgIlleOIQl03vWK6tuVFoftaFK/IyhSVoZYeVxn6LZ9j0uDOqo0Gd9Bi0/reH7laPxq0gzMrh3N+MnU9/x2+9zHsF5otxvMhFATzOLtdTVaf8FVmrbtU05bFltRoEROHyxwaYuuQBqPbUzjh7OTWJSuoHErQqh093wJ+yEa6WxLTRUJ4qnxb8ffj/kIWqIVPBdChEIo4iqSeptlW5DcapGG8vpaMozFy/3txzyLVDhLDU4zMU2tQyf6Lamqw79OPQ6PDZ2CRNBNZHCDFdsPca/CtybY1jyoIoChYcabhPQnfFgmDAAMenJq3n+aWkJas4v7j27M4auz27EgUGXmpivtfSSM1Aoa72yPhvGnI87Fo9NOQUeIx7EEopmczds1udwGzBqlsFbRpPV7kbcvq6wCWAFEScpEtBMd0RzmVY3Fd6e9DX8fNRmdoTij1rdS2Ed50geqNuwtGGrMMNI4qbae2jPkJZJxMoLun7jtaQxycrJEWY5qruiTeA+s78K3X05gUUozf2gidWvMfVPYEjzNEpJwNUWr8OdZF2Lu8MMYzQgLKkPTllprG1ExIvJ6pDKOUCzGfWm6HYu/PnKkXll9vfTNqgn42ZSj8LdRB6E9VM6TSZtXWxhQKp1xXc8ymlVR7a0ZRPBHV4ynAwCDmpxaOU4LKCco+A9vzOKHczNYmKm0XPHbLs45/6aVzGmMr6/rLRTeLTsFt/6OXhKm4/5ctj/vO+xMNEeHMp5qf7p49Sd8ftw0OaCsphqBiLSJpcLz0QMn2rAxTIVFhUmvTAOieLV2DP5tyizcMWYaNlOD66wNrfC6eS4EMB4ay50Ui+LAuNZ41wl3acvUFi8GLzklaCzgbDaHlzYn8YNX2rAwRfONpLBxvD6lbN5914uUEl93Ph+7IiQSOOdEniCS4XI8O/nteGHs0UjQvE3rgq57/vPhxyEcjSJeXcMKRS9zk5pG0N7QsYLSmyVqn6pvMxEJ4/EhI/GV6e/GPWPGo0XrIvFevRxeSFAaA7kwItw5qrIcY2IiZw8sbW636DHoyKnC1RCB9IG+qvVcC9uYL3RibrrGOkR0xYxBeaQ/zYQJsL0XzGQR0FpB2rctM89z8uuEQjc5vaS/XYcLTVpwac1I3Hn0hVhdU2+TAqzN1Q/cu5VsO5aXIVomge1faxpIOlsUm5FnUxMbYxW4Y/R0XHX4O/DkkInMh3KmpEBFw6yLCBpCGZxeX2uLelmZDkCwTK1UBw00HU8rFXRRcJ/Y2I5vvtqJN5P1ts6PvjYfSFIsUxmkExRcbunZm79GUlCo+cM7eY5E1gB/IExNFqHTRPAwj6PcugFRmyi+u5Dmaki04eLnbsZHnv5fVKWarY2cD3foVgesmTAWtcOHM36aaSrBVXwVj7y4yGJguDJrF8dH4ZaJU3D7qKlYGh9KYqpXmF6YT4UKDTG9uyyFW2ZMR51NwFel1SuFAwKDhpwukdSXFLpULo0nN2Xw7VcTeL2T7bMEkOhMINucQbaDPknKjF6q1qwTaU4zDVX0lGbLLrXCjH9GRFu/1tvXpB65cDmFvLoM4RhJotk+UkT0Y/FgbW+aeQdESosza2W/SU2b8JV7voTjVzyLEOMfyEYYplYjCFl7UNHKlkcx5pCDEC6T5lO49hBCHUluX5pXWrEtHMHsutH4j/Ez8eiICWgJlVvlZO1eprdg9BGjI/O7pz8qgLJsBr+YNAqXDGelyvMyy3W528sAweDRnBJeiVw2hRdaMrhudgdeX1+Ntg1dSDWTmClKAM1I53d3i1pZSgpQ0NV8zcUziNXEEamguVkesrnvGu7PkMy2jAgf3VcbOjAMFo8+oRehHXrWvDtx9X0/RG1yHaLpMpqmSXpR+9hNC6gaNQJ1E8ezopB57ofAOJDAtMmZrCRdFutjDbh39CH4xfhDMLe6ju1OkdnFWRCPLQsKAYxHOO2+TaN8UiV3YLodDxx3FIbzmvI4pAplAGLgk9MXNGqbLh7MbQng649twpOrytG5keRIJSnMZqg6z+Z0w24UuGWp012OdDQ5Wf3r04JBmr1lNUGEamJIV5BYMoNFYnr2n9yDrL0DmgiFLJxxravwhQd+jFPm348KxlsT5LvC+oQCfTLsMYcdjGBFOQvVaRKF6B4viyGKjkgWr9SOxf+MmY6/j5xk6xvZZxN4zYmB+e4vIvsVpvQZH43zxnJJ/Mv4Efj4mOG2npG+SG7557wMKAx4curzd+qRzCCJORvSuPaRNry4MIRkspymEjUPJVGF6n57sKfNOjdO6D2D5miOjJLJG66OIVAZQqgyYsMfmtQjr3pbxbFEMdGL2vr2SBKnzXsAVz74EwxvW81zbDeavyBiQ+owfNpEVgBUMWZDq3Cln4M2P3ZJZR3uHz4Zfxp9EN6oqkNHOGxt1GAmxmdR7wbUsPZQQBLha3ElMxhIYUYY+L9DDsEkdd4pmSSntKdn8wwoDMA0SZg9aulHWoPUfHF9Dl/5yyY8+wbbl0mN3+nbHzJl6VcSYE43+Vp0D4MEkGlp5qXeB01HkWkLIrkmjeTiTiTmtyK1tA25zV3WO6zouAg5raB3QDMox4vjjsLssYeaJhZ0VYSsHzbMebe0u/RrOGZteRX+PHYKvnLQ2/GjA47Hy7XD0RrRukU0FzM0sYPqGlNe5MHCKQy4sV9WMdksqrMJXDJyBEbZEp8aC3YWwkAkpjDANKeSoo++sshYeCo0Tct7fXMC19yxEf9YXqM+HkdGCbBt96Uk6uHcmMB50LGguKhjiYovWE5NOCyGWG05MmHnV9rTqg1q0JMXPYRv3XUthnZ1MplBxGtqUDdtGjUv08T2aRYhdAbLMK9mDH498RA8MGQ8NsUqkAoxBAuOOaPnmupRyNKc+XHieS+P9j8UL/du6YnlYdx8wARMLdPi2OpxZvwGqNYUBhw5TWdQgGXOZeiWt6Vx9V2r8MDCGqSzbuYNjUFX5vnwj/dbbujBirW/zzYqhTFSX45wXQy5GIVQ/To0P0e0bcLn7vkapq55nm2wAKZNGI2h9ax4YlortwxL4kNx++gD8Ve2K5eVD7PJC1o3UOY9bUAGL3LqQM4nJ3d96MDIWQig/s9GURNM4IaxQ/HxkcMQt4pEZel85Ed9IGHAtTktMSSnNOSSrgw1zGr8ZX4YXYEa1rYUeGpSTVcr1CLt1gKUPFNgIgm1Z6QaiNaVI1IRwIhVL2PyEzehsmkJIrkIDq6J4H3ThqG5fhjuHzYVDw2diHm1DeiMlLlwNCRkOZOX5j6H7oScoAsFkD+MAgUU0UwU76zO4VcHTMQYmbTSlt3RK5C47gUMQLOWv9xsSGbxjb8vxx/mxJDIafK2zMKsdbRsM8m6tB/LWj2P+XAKTD8p6zCqCjZh6hv/g7rmOShLhpAIp6AVZKsmTsHi970X8yvHYnNM7VPepaEh6+jxxiAEL+kKt1tbamt54l006OR+ygjT3Gqj622ZAMZmOvC/Mw/GURVxW4pEA59u2oGP7iptQKGIU6VSUqdIj9NcUM0d6MxmccuLjbjr1SokNcYn7UFn7c3tvV2xn+TRhyoO3ylZgazGLLVmbgS5ZBiB9c0oa1tFnwkEgx0mwPoC2OzOFObVUXuWBZ1lwPu11Iq9WaPXTZRdch50uhvd53Uy3+0HWCVB6ulNGKasIp3ClVPG4ehymveMtIaNgia2+zme+wADrMoxMcazq9vxu2dasDkVpHCq40BX9FdcyVU/c44CGqRZpyGPQIA0rGhGOkrSZSrQFQraKgoiaITCmw7o04Je7y7PWVdJHiG3DV/QfbefYI+mlcA0x6n0zxtWjQ8PH+Y0Jq9p4kbveMoNTBQxOXsXjspOrrEjh/96ohULmmpYkFQa6v408KqZStKyBQ5LjNKl4tGnHZLIla9BYPRsJI6ei3Wz2KaOpu01Mk1eb6kbjs53nYJAVT3KQnFqVGkeWgsKpqdxViRg3INJzc3AOyuiuGbcKFSzzGT10OxhmrQzODAg2pxKgCazJ1mC/zO7Gd/8eyc2Z8pdu0tOgm6NN98VeJ2kKKrSCaTZzmxDaOhSBCbMQWDoYqC8DWWtCQx9ug2xZZ0IRqLIHnsWNh56FtKxGDIZCnIyiUSiEyluczTxLUALswigdmYuiaPCwI3TpuCIeAXJqnOkZdDZPsHuCndgYwCRM4vl1Jqn/HwplrdXIK0Z0SRlLsdSNkGXLz+phaJNGB/TkB78OFo3LYnZ8BbCU+YhMOpVasomym0Y2VAakSQNv6VNCLfz3lAIZSPfjuDoi5GLqMsrgqBrXCNLoibaO5Ds6qI96Kfd0z35WcATfXNk32goPtVPqz1O36POYnw2hV8fdiCOiUdRxuv2QgGvKk7aasreYMCA6a3toIb41n2r8fNnokjpda5eKNDCNI1OzaYS0K4vqOWbEJvwEjKTX0Eu3kgCdjj/XjqCzSkk1jaThDIBeS46FA3TLke2bDSthd6T2DUnN5vJINHRhWSiy/b1QSZ7oA/Go2eqvIMqu30Cz6pRtSJiTgqm8R8HHYjjKytYzZiRK2XqvNJpNy/mAxpFT04bXGdxvbS2C+f/tgkruyic1q4s9GJktvchZzDWiOCIN6ktZyNTv4LtSZqtepu7u3IhiVI5pNa0ItuRIvFoGVgSIyhrOBE14z6EznA5w9O0tj7FymKW/kmnkqZJM6kUsumMaVcL1/OvX9vbJ+T0npaLgsY5psez+PqksXhfeY0d6zunIqelvrsoC7lM9yz8Ui9KqFpRW3MztcH/Pd+CTV2VnrDqh04H7kQBgvGSLaeXSUMJBIcsRXjmQwjOfBDJYYtJzCzNN7/V7EFy3MF2ZIraVeqE9+cCKdOEXc0vINO6gIR1c4btLv34zp5HGkdjiFdWobKmDlU1tYhXVNonAqW0rVebzs++vQp7hhO/KE31Q6tj+NqE8XhXRRUCIcafl9SylEa1fOpJyKBBUZNThaYpaQvXJ/DIggAytmKVZ7Llk7JgCOqES2OXbmU/arNIO6JT/onYsbchPf4lpMubKJRJaBpBTl8d83SajZhQTrOdSQRStBUkswrLfknSbDOaN/wT4VTCk2VqHHscf5xHC8ceqzac3kiJRRGpqkBVPYlaX49y7oei7sO/7qatwQLeNfi3MvhgOIyyuhpMaIjimvHDcUoVKw5WShFd9G3ZbcZjYKOozVpFvZ1CetNTjfjuwym2O8uYIs2rZZ1rZVqASWOUZKgFgm0IVq9B+MBnkBn/MtJsV2pZyiCZZcQ1f875q+TF2PRMrG0CutRu5EnPfA/kYtQ01MCBOlSP/SBCQ49GOlBua92mbZGjLetgEdh7jD3DhxGb5m6G2jmtXt8kzV/1+NI5SaHWNs3Mu7oJRPQNyPy6rZ2Wd1U0ejc1GkS8PIpALI5xNNO/OaISZ1SUmSkbMpNcQ0Ty76qe7rDywx8EKHpyLmtL42N/XIMnV8btOGtfwCKc+nD7hQKxQYSKdiE05jXEJj+LXM1yJCMJXtIXStR6llZ1ZLIkMA0arw1LdTYmkNzU1tPzqg0JEqBY6xU43RusPBgVkz+EbGQcYrwnLWKSoCKTnxuS8W3KOT1SMCw8NRs0HJPJpJElYbWShMjqHD3qukLXrgL14i4E9JaN4hcMIhQKIxJmPMtYPuEgyrMZTMim8aXaapxN0zoY0msKUuqOnPq35Ckgb0dVkdDzhIGN4iYn3d8Xt+Nj/7sZjekKHsukVUuFVwqNnBYVkq9iHaKTXkNw0vNIV66jwJn4GYwQpg09OGm3TTQVRGJ1C9ucIogC8+4zUot4EmreG6xEfMTpCI88mWHVkjs0jYOa4Oeg0HVnz1P7AR9oFCGxLBdNRJzz/8haI25AWx0TRlCFzH/FWfMfFDd/tQIdqY4J875xuS58saYS5+gLYSyz7jWOrLLRXw/ck3swWMhZtOmUQIiKf3p2EzoS+pirxE7E1FYuvzj3Iywa/KG5HaxZhNiMB4EDH0aGJJUESoDNMe4Bi38eKLB6xU1t1HSSmovOu+BtCVsfiP/qPNLpbAe61j2JSGIVjzXUorxgMXvZIS95d28dRibn170F4lYcsKEbzUCiJgwFIwiFIwhHfRdFOBKj0zbCNiWv05+/GqH+IiTzsGQWnyUxz60pR6UkUG1gC1+zZuWrN3YovgMQxUlOCppq7XWJDB6el0RSc0r9ElQNXCClqaiEaf4F0YnAkIWIzHoEGDePJifNWEVSkZYWpB8gyRuo4aRyPGczm+hPApvbzAZnhgQ0LdYbmsyv01Y/8SeXWoPWFY+xBdvMO7VCn0fcHQUjrtUjMgzUOTviHysLHkvD80Hmz6JoYBwsuoyEEk4oeVqUSy9Fh73T9ekuXF0Txgdrq1ChysMqJd3tnMHd7m8Mva4PEhQpOWVSZXHP3CZszJVBS1MautfB0XF+0e57SNsF6bIREnPYQsQP+ycCDcsowG580u+tNSeptV0Vhy+GeS6dQ6pdvbD+ffnw0umd15GGYbraXkZy7bMWj/xVDjze7CCM7Vu/yYue9+Pg7WqjBbk61eFMMdPnA8dkunBdTRwfGFINlpr5UiXVHYwe4z2q1xPzopD3pAGP4iQnS0i1+B0vNyMV0oyYQgRjFUogNHIhymc8jtQQasxwG4lC85TaxU2U8GDE6r8oRORMW6epIQlyt4WwBXSBzqSY7VASoXXNA8h0vsFjhq1nkPxbcHtbsCB3PXf17qw0ZiSXxohcApfXluOchmqU81rQS0+v6NjznNNTXUq87KHzLw8WFCU5VVgLNqUwbzXbW6Zt+kvG/ihGipMny7lwEoGRbyE2/VGk6pcgHdIQj12xP5HM7wTpiWvvOOsomCKRqTU1tiBh9u/YKpQfObbzJNbpFWhf9SCbu2vIMd5Li0P3bzeM3YSFbw9y71/Wp0nMyhjOratAJROlb6ZpKc+tCV9etWXoFd+9HfkCQnGSkwX0+JJ2tKUq8gorv9R6C/m+gUQqYwP/auMF6xcjcuhjJOZypCJtvOY6e/xYGi/tID+urk3nOwsySXKybW2eu+/ZFlx4omEgE0a6eR5SG5/h6S5bsU/x224Qu4ieNBGMhiqgMralL6+uwkcb6lDPk2phsp6x/ibpzfzU+9C5vm4woijJ2ZXN4ckF7UipqK3kKBG7YX7tGYhJigyJVLWGGvMZ5OqW8WyGUdNKgF57mF58getfNPPAxKVtEoDS13PftuExhFpLbU+gDR1rHkNg8/OIkvAizPbD2EXosdzosaFMDiNYQtdVlOOS+lrEZe5YB1DQVjRQJ5f3vwV0rq/rRq+DgY2iIqdpFArq6tYkFjcFkAjoA7ESXE8gu91+gAjI+AVibSib/hTSI1+lpmJbUeOQFMYtO3K2D6U1m0iaCtLdFsROB0PNm1mDtmX3IdS20An7XsgiaeokG5jW2cVnDkcal1eV4SN11ai0q71LZpeSMshQXJqTpauvXy3YkMLadn1LU4Pr0g5ygi8COs4Xhb0I7zFmsAUTCE94Hbkx88jVDsbPaUuJ686R00sHyZlLuHcd/dT4252BESe5Gk3Lb0NZYiUL3c+v3YcfH5EymgkgSeu9NpDER6uj+FB1nG1M11KWxu4F3bgriRlEKC5yysxjo+nNDQk0djhtst/QS7DUd0zztX4ZAlP/iVSsBeG0W5bSh8V2B4XR5JbetfJ7LiXN653cJei5miXUhkzXq2ha9icg3WhXZC2rabsrgftRknPxk76MoCbZhU9GI7i0tookVZHZj7V1S9g5FJdZy+JvT2Xw2voMkqyKNY5IdcUrztmc1O7eWwrFXgclTpKpF6Sj7QhPfA25ig02TJDZRWk0YVbfEZMQpPkeUG+t1I6c97idheWId29681voWnU/gqkmC8+5XQiU0DCJH676kuuzCXwmHsZnhw1BNc18tbTt2UoS0+WIyhP5roStQnlXNJD2aekCFq/rojx5mjNPrkxR7csCN8GmVsqWIVC3DJmRb1GzM0sD7bygqXY9Qx9ZmZI7EDcLkj/68FG6S5/4U3juWn5adw5extjsnc3o2vQUEisfQJQaVJPtSTPztTNQVHzjWKlsyKbw6YoQPtvQgLh3XvDnytq+/ZawoygqckpoGxM5LG2U9OaN+Xmyt69L3z61p6gEOxAauQjZCmqjoD4p6MeMcWScbNLBdjSprppypFMyouJ20nubxDsnt8uw9XtFQprJ2WZ0bnoC7Sv/hmiqGSGb97dz0Pil+9guUJlL4iPlIXyirgY19jVbGvlBVkdFJV2Fh+LKPpb76vYg1nRGrZW3bXHfy6AAGmm0bGVsIyJD1vJAnxQUFDNRyXf63bHYypdcNpFBNi1q8t7dTijJJ2LmIq5C4ROC2RYkNz2CllX/h2BmHc+LoPl56sfEgx3yx7Y9qYllMvgwmXpZQx3qgprj7H0vlFs3B7eEXUVRkVOF/eLSzchmY94ZDyYwnttXsOfpU3rcCbPNWbWGQq/xO48IdqTOHAkpKSa3DehqvnJNdyVsKGVPwHGK2ps7/FWsnDbPJZBofA4ti/6AUMcialTN+5VnpcFixK1zAaZVX/aydj7NYL3QXplL4yPhBK4aPQINoSDCzAu9TasXxqO838YyS9hlFBU5M2zPvbmSjU4JjGHPCO+ugYIX7KSAhxAIMz5BDXmoW0S9OXTe+j8ST2t1bYechrzkZJMpJ9o8J/7vHhSSF4ji6MdFr2rRJE22vYLmpb9HZuOziCU322oEej/U+dN9TIs+j8DzGarFLFIYku7Ex6PANSNHoYZ+tVyM2pf2+lt+508Ju4yiIaeMrjbKyfwN+ty66mQVvs7uLzDrAnodi1oyFUImGWcbq5MuxbhSo5pgO+lULNWe3BHIW0Q3qDOIUDA7eu9Ow6vkNN0w07EM7atux+ZVf0SgUwuFJe3zDulAhM+nGUu/apvq8w/16SzOi4fw2SENGGLvYLoO5r0VzcGKIiCnam630ndHJoflm6SRZHbxvKcM9gtsAoSrJIKdNcitPYDWbTU1Rpqxk+bpLao7oji7b6HwWxPQO967Qq/QFVutsLAJnc1Po3HhzciuvBOVibdYzbQyNWzh05vGmFORZhyQXopPNMQxPCQLwYXQo933bmwHE9gkkpQXHjQTyNujYLDmZvvr8TVpnParTUgG3QC/LCf7uvH+gLKNpmsAMcRzrThm5mqEpz2HZ4PPoJ01iY3/0ZuvNfXSsY63R1L5jXQkkVjRzDTTZN5rajMPlocuwtYlpLxV6zFSi2jlBJRVjEIsWm8rMbS1L0O8aQkun3wiPnvw+zGEfrS+kdIlc9bCMWir430Q/wGKgiWnxFpRU+TsZWGW/k0vbMRV9wTYvgnbtSAbODZ+uM/BZzJiakfGQ0mcf0gC3zhtJBoD6/HDVbfhocRLrECinhZ1hNtRUTUhb0kguabVbtwn5NwCXk0iaHlOfd9UY6G0FnKBTlY8KTSgAp+a+D5cPf0C1Idr6F2VZX5clfIiMMwKGAWce66wXYGTkJTu19e0sU2nWpoHjHlf03HfQeZsEPFAFy6akcYNp4/EhLIwZpQNx3fHX4wzI0cgms0iGaaxGM7Z5+ucVtk+lLRchhpZ/LCOmf0BxlW1hB5OCyaAdroW7ncwTqoOw9iILvxqyf345kv/jfXJJiuf3vX8/iqbgYOCJqcjgYRECz/m8MZa9RQKJjWe2z+I5ZK4cEYG33nvCDSUR5EJBRAOhnFgZAR+OOVSnBY7FmXJKKPoBhRsDR136zZhtkJW74V6VY+SvyM37lHogZ6zLFaHEHf47yZe8Jhl05ZJ4vcrHsM3X/w91qSbGE9XOg77PNIDDkVgd6iQNa08hwXrJSl5hb6v2pt6jGkSEob7eoH4zAOz+MopwzGqImyT3yKsPmwOKfeHhirxvQnn4wPRmahN6O0ZUc6Z6BJfDTtsLeY25JL2r27N175CT15L8TsjhppUKwkyLzJMbEckgdvWP4Hvvfy/WJ3YZIuBufHZ/R334kdRNAo0Ha6pM4OWpGxZkxA6Cnt3p9HehhM2mbKxXCfOmNqB750xBONrohYdEVL0tGH3YBBRttMmRofhurHn4azo4ShLxUhKzZxxs2cUfb8dmg871jVpKS+Nqgz2VR20Nbi2v/68fgBpTpm7WZE0gA6auH9c/Q/cMOePWNe1qdtfCbuHoiCnorlicyeLXAIr52MfCQAfqaeWUX+fc2AQP3j/aEyokcbU8/NavnnRUW/t5NgwfH3C2bg4fgwqSFBpTL2t4lt//fb1SD3xXusE6+/6/oZqI6sgJTpsdDCumgXVEUjg1tWP4Ssv/BbLu9bb6oi2Wrxu0X0l7DSKhJxZrGrROJsMyP2DskAKZ07txPVnDcWEygiJ6XVYKQu1NZsvDzwOMb6TykbhO+MuwkfjJ6Oqq4yCKv+uDVokmd8DI6XvBLU9RT5VUDkkcgncvv4pXPHMTVjaud6aIqqHSgTdNRSBfLCAWQMva9RyHT4590VRu2dI6KjzcOqEJL59+jCMqXIrHrjrfQnpbT2IujLvagNVuGbiOfh43dsxNB3vfrfRdaz4Au7fzr0+4RQmJDo9ERUJU0xTKpTCA61z8PUXf4clnetYdqRoycTdJRQ+Oa1cA1jXnDEB6LYJKdg7NF91l8BnMGy9NF2eTuEdkzrxrbOGYGqdPvLK87kYyeV6YX2Xj/zzGkIJRUIYEarCFaNOx8cqT0RVpoICG7KpcK49KRrzV7yU0zuhQiHJdLfW9KFy8Nug3qF2+J/MJPGXDc/gyy/8GovaV/Kc8rOQElMcKArLShP21jclWf4UDl8+uM1fyXyPQpPZuQmjA++ZksCPzxyKg+tj9gEem5i3DWIK+ddEO/2JpKMiDfji6LPwyep3IJ6hPtbXv4JphqlJ83oH0mQbgbC6mGyProjANPgcTAbSeHjDS7jmhf/CvI6VonGJnzuJwicnhTpBsqxrSVCTuX7RvS+zeuUpgXdOzuCGc4fjoJqg9cUqLuZ2AbpLlB4Wqsa1I0/DlQ3vQU0ibpZ6OsJrnraUgspEWAVQhe49y2DvQxZAIpDEIxvn4HNP/QKvti1hJetZPSXsEAqWnM5cYnszm0UHm5utKb0dEfWu7g30VOsxpPD2cR341/c1YFoVaalvfoonu8EV04MktnRyDSrw2eGn4sr6MzCys54moVOZCl7iq69L+9hr1sFehuqVbCCMZCiD59vfwJeevRmvtSy1cdASdgwFS87u3k9uO5JpdGT0DUcZuMTeMI/UxqSGjmVTOGl0J64/YwQOoClro5e2iNjuQamxFAU1kyiChmAlPjHynbis+r0YkWiwa0G2p2UbBEMRmzfsEqq+UH+veKC4qiNP5myKZvvTza/jWrZBX2x5C+lsmh5K7dDtoWDJKYifImlnIo1ESkahCtS7KOypsvXCCQQSOH5MO354zjAcPjxqvaqKhJ5svas63k1YC5ThKOxhJOilJOgX6k9DZaoGATY6NagvE1ffujTb0N3kXBHBRTlrbWlVfEm2r59oeg1XP38znm+ajzTTpjeKSnp06yhgckowNck6h9ZkCMmclibpw8Y9IrBau4BtTLaIThjViV9cMBqHD4khKm3Jf31e0H3WYM9DH5WtDVfgE8Pfhm8OPxt1yVqbmJAOppGriZm1a/6YbHPusGiRYrqea32DbdBf4qmN85BUV5+aL971EnqjoDWngSXX0pnUQnTdxwZXNe8BBBDNpXHi8BT+/dxhmFoTpmbzyMjwJTr62xv0zHhaeQjK8PGhx+Kbw87GuK4hPMOWaXUZcmHXazxwEDRT9/XUUlz93H/iuU1vkp56J7aE/lDA5Oxh3+Zkgq0Wt4br7hck2S2Cq8eC4QVzGcwYmcI331+L6UO0SJXe+udzZMban2Lhtnsa6vZR2zIXCqECcVww7Dh8ftipGJNusOiFKhgPTfdjfGTuCsWtZVxuZgNpvJZYiuue/w2e2DQXqZy+6F3cKdsbKGzNSYFUkTWz7FJm/miIwV1yBHO7OwUS0r85QlvxyCGd+MH763HcCE3JEyn1Sz9GUO15bU67ec9CoUo3hvSsYBi1oXJcNOwYfLnhdIxI1iFSWYZgiCaDTOuQOqZ4x96IyD6DV2i5ENKsFF9sX4CrnvsVHlo/2zqNSuiNgianWwEB6OwKI51WmzM/ul5B7zS0wk+YpMhgZn0zbrpwKE4YEUXEVpVTZdA7TEfLfcEIpyHrQ9X44LATcf3YD2FUYDiCZTHG103514+LiZ/2XUl/4SBLK2VeYgmufP4/8ejaV5DKshbWx5usIi7utO0JFDY55SiN7YksCy5fe+2OcGp1HBJzSDt+ccEwzBxKslI75YIh5ob/BLUw/bB7nrp3IS3qXjerCJbj3Iaj8N3Jl2Bc+QSSNoowhVadU92fPJTbpfQXDuytnFwWS5Or8fmXbsID61+CGjCaMF/cKdszKGhyCiJnRyKJtF7gNYHcFfA+/usF4RANqBkNrfiXMxtw+IgyCnw5n6HWn8jvE3FfEbJ/yHyNZ0M4o/owfGPahZhQNcbyITTAXmLWR4UztGIybIMuTazEV1/8f3hg46skqOvFHezt0IInZ4ZKLJFmWzOnl7R2ts+0R5jVcoyynXNodQtuOKsOJ40vg9aCtjFHXnN/frtO5Nx/BNWT1Q6tDsZwzpCjcP0hH8a46DCmRB/odX4c9m8lsvtwidFLACrZN7pW4Lpnb8JfVj2FrmyS1Sg1qFVIgxMFTU5NMk+SnV3qzDNB3Fly8h7jZ5iky2BqXTv+44Oj8Q4SMxLQGxXy40LuEfPeR/sNjIIqiiqQoPWz8Ivjr8bU6DgENL+Y11R/7IlJEYUB9+qcPhGxKLUC175wM/5v1bNI5LRylMjL30GoRQtbc8qWk+bU65M7CytVFXuYGjOLA6q68OsLhuOoETHTSrmAhFzJF+E9z5J6c4UDW/YkGMF7aw7Fr47/LA6JTDQd79br9bX8wEE6mMH63CZ87eX/wu1LH0OSGtSIqQ8JDzKCFjg5WVg0a5JpfTdEnSE66ZNpa0TiOStEbvkfRBLT6pvxL+dUYeaoMLJaxKf7Ni1BySxwARcs3JgrcEzNQfjJcZ/BcdGDEdWXswnrOtnltnihgaWci1j5rc+ux7df/QP+sOJxtJOgPS8A7Kz1VLwobHKyPFLZLFoz6r9T4eSTqO8xjySnLDszktiO0ay7idXt+NYZ9XjXhHJbutLGLKkx/e8uax7r/m5jbhciJ+NZFojg+IYD8OPjPonTaOqW5WI0fbO8zISrMToQSMok2JAWK8xV6Q24Yc5/45ZFD6El18XzOZthZBXSIEDBk1PFkGK7s3dHCKHjfjSevblinUdpTKxsxU8/MBSnT4ohro8O8breMLFpBaaNpDXdfQUPRl5t0EgwiiNrp+DGYy/D56achyHZeluxwffTrWCKFioQJYIEZWWzKtuI77z+B9z01t2spDtl69jfYOBnYZOT0BKunRl9lJVqkLVmt3Lw1WQepF0DKGOicpgU34zffGgIThkXRxk1pnsXlNd1m/Nu5St++0EWOlx8rd8ZE6LD8O3pF9DMvQIHhCchmilnuqhbLIOKJUXbg3RkBmuDTfi3N2/Df731N+vFtVfRaFHJDWQUODkzLABpzhBJ5ajnqCXXnxBqgl8KU6pb8ONzGnDCcNWzLEx1/FjnT8/dxQgXdwomd6Qh48EILhg2C7e/86v45OhTMDI0zIz1/vOmOKG0ympqDnTiJ/P/gpsW/R2N6Q5b0kWZMJBN3NB3CG+/AJFFY2cOd76ewurN6mH1JrJJSv1CMdPWvb2hRZsnVLbgG6fV4rQDKhCJaAhF3iWyGsO0O8yktW2eKx546eCPVVbMk4ZwFU4YczAOqB2LbFcGzR1N6ELCWRsB5Y1P2OJLq4pKZrv67TqyCby6foH1FxzSMAnlbIPr26Lm0yvTgYQC/sqYkMPCpiQuvrUFr6yiTpR5KiEz0400NTPX6VOdGx1tw799oB7vnVSOeET+1LZ0bUynN/uBgiricvWLTzODNfVtXddmvLDpTdy64CE8ueFVNIdkOUi/MJFeWotzSMJFXm/n1AeqcOmE03DVjA+gKhRHmMRUX0KRF+UWKHhyvrUpiQ/euhmvrw0gFdCizKwpPXLqelgvbfBcfUwTDIbjtEllbJFRGMlGFZSI6QjaG36ii7kw/TR0E1RbOumSLpr3s1vn4//NvR/3r3kZTWhjnugaTX36scWtixEqe5KxOleGyyacgasPvQhDwpU9VpHbDAgUPDnnb0rh/FsaMW99iO2MGE/JVFOUuaVJo0nsY+MZfP+0Cpw1PYZwWB1CMoekVeVP+1uSU9T2oWvFWKhKnV94opumuuVTLk2ztiObwoLW5bhr4RO4f+3zWJXZhKZMe8+3kooKjLRHTpVtTa4Kn5l8Fr548LkYEq1EWE2cAcTOAicn8OaGBM79QxPeaoyQUJqgLs3pOgIC2SwmxlvxlffU4KJDq1AWYqGF2L5kAZmRY+XYP/XyyVmkOkTJM9cDVUjeLpHhgcYLpU2zNHlXJTbg+Y1v4bG1r+LlxgVY0rEerZkOZFjJWVhBNho0OGxheHmW05Jj2ncBu97gLbGV03sYVgWxfP3yDKIuG8cnJ5yOS2e8H+MidaysCbtcrKXag4ImpyI2f30CZ/9vMxY227oBVjimFemqA134ydlleP+BVaiJavlKJ0RuDFN369gvyMEJv3BdzoikObSku7CmsxFL21fj+cb5eHrN63izdSU2ppuRZBtV94jU+nNC7uUrfx2070I2v94Z79Q+gnuY+hyqQ+U4f9hJ+Masj2JUpBasowk1Z3piXIwoaHKq7fTm+i6c83uSc7PGKcOIsJbPsHavCbWTmLU4f3o5yoNdvBbvLoyeMtFOcRfQ3oC+Qq2xQo2LakWCjmwH1qVbMLdpKR5dMQfPr19IrboWnbkEUuEksnrfVdmohrwvLX1UpX33Zb9IEjVpKIfKVBTnjXoHvj7r49Sg9WY9WekXMUELmpwpujfWd+K832/G4s0xZjZNVrY5G+JpfOvUGC6ZHkY8Uk6hkLZkMoKisz90UMLW4Be5mfYSYjvkD//Vs9uaTWBVxxq83rQMczYuxbzNS7CwYzVa051I5FIkbRKpbIaGssZceROds4b1t49h0xe1k0N5LoaPjDoFXzv0YgyL1yMq7e/3FBUhCpycOcwjOc//fQsWtZCcjOmweCeuOTmOTxxWiXLW6pGwZsYQAS1UbEsy52nOEvqDX+T6lUY0ftkZgtfUrtRfklsNlSZJxsbUZqxub8Ky9g1Y2rYOq9s2YnXHRqzrbMLGXCtN5U500FxOZlIsN9K2J0DvOe6ZeU/aKfi3b7kCPiOoc4orXUW2DBeMfBe+OvNDGB+to4nLyrpIBaJgyalopQIZvLUugYt+34r5LeWoQQu+/r5KXHJkFeojAZpnOS/zvZt2seAHK6Q5/RzztxKGXvNu+nBKbVZ1HyWyWoU/gbZEOzamWkjeNjQlW9Dc0Yr1mc1YTyKvbG1EU7odLYkWtKZaree4K5Mm2VM2QcLWBFagViHwEV5Bquw17OPiwnM8NnLaZcXOb/G6Sf+ubezOKoyqbAW+NOkDuPrwCxHTio08V4wELWjNmebfxpYUvnTXajy2OIhvnVGDD82sRmUwyZh7c2Ut00tm7L5Gt9CISGxqmBixKNQUEfFk9ubS+nRRlho4g85MEptTHWimhm0hYZu6ROBGbOhqQTuJ3ZVOoaMrgU2JNnSkutAZSKKDbV5VAp3UxskUNbJevmbYoq1tSUw9S8QWNW21fP5FUxF885AP4wvTz0bYZlIxaiVy7kF4hZ4IBNGeTKE9HcCIcq2bZ3UtM9v1IrpMl8tPRvEVRDHDREjZz2z3NlZKAVv3iefovF1C2k1TMbUn3zqfQ9ojt7b6U1tWBE+SnIl0GhltaV6rAyud1SLjJLNIK01MYqe5VY+DUBetwFHDDkK1vqPq1dslcu5RsIAYtUCWRcf2ZJrmq0Y6VZ6KsK8xezJdZ+2K50rYl9iaGOm8/0ab4Hb5a+Umfec0m/ShYKWocjc/nn8e26LaXvH6Pu1QmtFucmfUJtWK/XqJXvOwg3ZRj7OQigoFbdYqs62Lnn9ZZq5GOXtncd8Mt+JyuyUUDDzubLVkdH57QiiOmaga+dy+45sXqgUgcuqMDigtXqBFyEtDQZOzhBIGM0o9KSWUUKAokbOEEgoUJXKWUEKBokTOEkooUJTIWUIJBYoSOUsooUBRImcJJRQoSuQsoYQCRYmcJZRQoCiRs4QSChQlcpZQQoGiRM4SSihQlMhZQgkFihI5SyihQFEiZwklFCgG2fucSmpPcltb2+ha9YouymJlqK2tQSikxauL9O3cPYSOjna88uorWL9uPerq6nDMMcciFot5V0vYVxiU5FSSm5qa8L3vfw9Llyy1N+XLysrx5S9/GTNmHG4+i3FZiz2DHBYuXICf/OQnWLduLSoqK3H99d/DhPETBnGe7B8MQrM2YMtXvP766xS+ddzPIpPJoL2tFf949BEkk1o9fhDVV1sggKxW47LFPpRX3M9linapj2LGICOnJCyAzs4uvPLKq+jq6mIG5BAOBm35/ldpyrW1t9GP07CDFbZivreglrSl05iDO0/2Bwah5syhsXET5s173bRmKBzBYYcdRgEMomVzC5556mk7v3OC6Auuc9I2fd3Oor8wfLcj6O8+ue3B/Fka3BKkDk6D9oTRs+1xO4Le9/QOs4S+GGTklCBk8eb8N7F+w3qabxkcNH06zjn3PIRJUsnIfff+3WRnR+Slt3A5p/Bz+qQeTcPuazsQVj78+7JZhcV9bvPP7yicfy8+nvPD3DboJ8BnestKCn5Y2WyazQB9+kLhKawdrcjkZ0unfBIUrxJ6I/QdwtsfFEinU/jv//5vI6dM2csuvQxjRo3BG2+8YRq1vb0d0w85FMOGDd9qB4gEtbOzEytXrsTGjRsRi0URiYTt3tWrV+PFF1/A7Dmz8eabb2D92rUkfsiuh8PqCXamYl/4hOnq6sSGDRvw2muv4eWXXzJTe9HiRfYc3S8XiUS2GjcfqVSK6WnEYt774osvYs7s2XjrrbeY7nV2XeFEo1o1f8v4KB+efeZZdLS1I8q0vfPkd6KiIo7Gpka8MW8eZr/8MuP1KpYsWYpEImHhRKMRBNk8UDL6T5/Og236FDZt2sS8eRMvvfQSmxdzsGjhQmze3IxQKGRhabu99A0GDLqlMRctWoSvfvU6Cm8So8eMsl5JKYg777gDd955F8mbxklvezsu//wXTIAlJH0FRVn23HPP4Rc//wUy1L4f+MAHcMghh+Duu/+C115/DR3trbbEuX9vRUUFjjxyFk4/4yyMGz9+C5JKa0gbrVixHPfffz+F9kUK62Yqpx6NGQoFUVlTg5kzj8CZZ5yJ8eMmIMhzfSG/IvcjjzyCp556ChvWr0eaRLXmtrQca6SKikpMmTIV7373KTjiiCOM7CKEf/8CkvinN96I9evXobKyAldf8yUsXboUDz/8ENasXuM0uZZSZ/wjtDjGjhuNM898P4466iiSq8xImp9nvrZWBfPoo4/iyScfZ7zWWV7rvJSo8mTI8GE49pjjcOqpp2Ho0KHd+TdYMag0pwThtttuw4IFC23/9NNPp5Y8BOEQSUgLf/bsOdRcCbS1d5igVVVVbUVAckbyJ598AhkKmO6X0L05fz5S6STi5eUU0hiFMkfSZU1brFixwtyBBx2I6upqhtE7XF372c9+hjnUJB18fjQWw7gxYzFy1CjE43GLUzvdMpJEwz9HH3MMysrKvLsdlCZppf/5n/82cmq4SETSGGV1VbX5T7JS6kp0GcleffU1I9KUKVO6KwyhkWE8+8wzpjnVL6RwHnvsnzzfiCiJXBYvt5XWM+mMVU7S0LI8RowYgTGMsyOnF5ghQKKvx+9+9zvLJ1U8et6okaMwZvRoG8bq6Ozg+RYsWLgAb81fgEMPPZQVQ6W7e5ASdFCRs62tDT//+c9t6KS6ugYXX3wx6uvrTQNUUnhfpum3kYIpTTNs2DBMmzbNBGNL4chi2bKleP65Z9VVgvXr1qG1rRVjx47Dpz91KS7+8MU49bTTcPwJJyBlxFxuX+baRM0Rool7yCHTKcBOUylskerGG39qhBcbdP2r130VZ5x5Jt7+9rfjXe96N446+mi73tzcjE2NG01xzZihjiwXN4Uha+Due/6Chx95GOlMipVGCO9576n4zGc/i7PPPhvvPuU9OPzww2z8UiROJLssHYr3mDFjLByhqWkTnnnmKTPTs6xclD4R+9xzz8WnPn0p43UW3vXud2P4iOHUsgvsI0OJriRN1bfwzne+00zT/CxLsDK455678Y9/PGZ5rybD1VdfhfPPv4D+T7b0HXDgAVjKuFj6Nm00zTpr1lEk8fZN+IGKQdMhJOGVmZdMJq2wDzrwIDQ0DOEVtZMCKKe2O+6448y8S9CP2lQi8/ZggkO7eMKECbjmmmtw7HHHYsiQYeZkOl7+hS/gnPPOpzUZpKWbxeOP/9NpNOtMcS0KaZKF1OaRSBTTp0/H5z//RYwcOZoar9xcebwC48dPwGc+81lU0MzkA3H/ffeb0Od38GyiZnvwwQeNANJeH/nIJfjUpz5J8o1FFbW1NPYhbE9feeVVpi1Z7aCltQVPPPG4zZTqHznU1TXgii9eifPOuwCjRo9BXUMDRlJLvu+006G6vYbmttDc1IwHHnjAnq04+tiwcQMrjEcszbJGvvH1b1AzHsY8jyNCM1jpO/zwI/BZpk+VoszcN9+cb+1tP22DEYOGnBrT/Oc//2lkUs0+47AZvcxWOZmyMgG1v2TxEqxatcq7uy8keO7LLRIdmXjnnXeutWF1bw8CJHvY2qSjKdS6p6WlzTp6pH1NCulkvn2SJLrkkkvwsY99jMQe0t0pIicBVTh1dfUYPUrhBCw9a9au4vUe4VUnUivD1+fhJ02cTLP9fSSKwnDXFabc0KHDrYfatVmzpklbSVKfCPl0kP9ZR83CITNmdMeJRiu3QTueOHEi3ve+97l40D3++ONeOC6P1Dx94vEnGD7b0CSn4jRm7BgXTl7bVPtTpx6AE44/ycJWZSFyptlM6B2jwYNBQU4Ji0xC9aRK09TW1uLggw/2aniKEQVETp0QRx55pO03b262WURqV21Ze/cQUFeiNPkOnzmzOxwf/r4qg+OOO15n7Pg1tvXcNReu2qwyB0+jKTxp0qTucPqGJRMzSu3KK3ZObVMHF868efP4664de+yxRh5BwTinay7cw2gSf+qTn8JHL/k4zjrrLFTXVPekU1tvV21DdUKp08gL2kGNUZ5QHiqsmLV/c1i7dq314HaD3tSOVngh+pV14sNPo+8U32PYlrZPBJLIy5Yv86wXLzKDDAOcnBqby1jt++JLz6O9o5XaIkACTGAbaxSv92gvOXFVNbvOZ9hme5rtrs4unwD50Mfl5NxXz6ZMnmqdNvmC1hfTpk2hNPI5dOs3bOAZZb0c/XrenambteGeNWvckMzdd9+FX/3HL/GVa6/Bd779Lbbx5rtnk0AaI9RX2BSAnmnTEb1xw3HjxpuQy3U/Jw+K73vecyrOZPvxxBNPQkW8st94q83XMKSh32sOQbZH4xaezHaNg7a1t/C88lbxzGLtqpX0lUO8vMzawerNNkfidbT3dtVVlchl0vRPk7tpM7o6NZ1S8R98GOCpdoKq3sQ333iDhZ6hcATxjne8w2rpLTUiiTZlMtuP441Ey5cts86c/mCUcJz2el+FrQkwTCvLs+5Rp4eQL/BqJ65ZswZ//OMtuOqqK/HFK76A7//L96yH8x+PPoqlS5egmenI0l838qKvtGhs06LA835P57bipDyQU+eU4rI1Aga3SkyH/Hvt8V4FoTipt9i0H/c72ttxLdvll112mY0vX3rZp3HppXSf/lS3u+ZLX7IKSiEpPYN5csIAJ6fr7FmxfCVWrljpnQE2tzTjmWeeNvf000/lOXdumIgkLUYtcO99f2cYeYQwSGcybEkiXX67ry98oRUB/Mz2O6UECV9HRwcefPAB61y54867jKTl1DLjx4/DjBmH4PgTjsNZ7z8L5190gbXX+oOFx2jYlv99O2W2jh3x46BU+q7vbcoCkdh7vAfuKR4yU3XNqwxkKoc0KUPjq9zKZPad2vxqdlRWV6GqpsauD1YM+EkIIsJvbr4Zjzz8EAXHTQwIhqkpulPtOnX8Q80aymVlCqfNb4zm2r//7OfUfMN41YmdskydS//+7z/jqSyOO+ZYXPvlr9D/1gnx5hvz8I2vf80eNGLUSPz8l/9BnwHTmHfffTf+9Kc/WVutvq4eJ550Ao44YqZpW/XOlpeVU6BDaGlpxc9uvBFz5861OHz3u9db76sEX7juuuswfz7NXh7fcMMNNjFiZ6FwFyyYj5/+5Cc2NqkJC9czrAkTJ5mh6kNP9FO6fPlyfO/679jwjAh6069/jSFefqnyufCi85FOJZmOOL7whS+ikqaru9nlvV9pOfAC4yATubyiAuPGjkMsOjjfJe2dLwMIEjKRTC8OP/f8c04YKDiyuNLpDFIkhTnup9Nq59H5xxnqRdX2lMaujk48TiJqQkFPPaat5/i/du06t2vOO+85iwcDUs+vexUL1hvrBFuzedbjvvvuZSWSsJe9P/HJT+BDH/qQTcYfNWoUaqprbEKDikpmXoteDu+ORw90zpmyfB5ppI4Z14bt67cnbqvZrtXUQJFQlcSW8O71brEs9Fx/sGe5fw+KSw4N9Q2W95qMMWHCRBx66AxWHHKH4lA6bXvcITjkUJ6nn0msECJ5kyMGGwYsOYUsheXZ556xbnwJx4iRo3D+BRfiA+dfgPPPv9D2nbsAF8jZOe1fiGOOPc7MLmm3Rx5+xEzPHkHX1nUGqeNi1YpVWLNaZHDX3cb5UaeIpua98KKGT3Qmh2lTp3meSJDVq2w+rfyNHD7cZsY4MjoaSAvy37YtLS02Na8/yIxVT6//XP+tG3fcF2xPL1/Gtu0VbONdjR//6EfWmeRDz7LH270uHoK/13OmB91Z0/08Fw9d0JiqoqLyeOnll82v8tX/yw81lUrbTCi5NPe3fNLgwYAmp0xTDdYbhShwZ5xxOkl5Pi668IO46CI6217U2+nchRfhvPPO90xZdeA04Y15bzihNfjCJPHL2RS2O++60zo+HEF5llvtSlvOn/8mZs9+2c5rWOXIWUfydoolnd/hISFNMb4ybV0Y7hlqM8slEkncddfdVklsDUcffbQbp2V6n3/hBSxbtszCd3FxTnyR4P/lL39BimHqKZo/23cq4M5BuaA/VTG9oXHWk056m1U4you//vWvVsF0x8eD9jV2e++99+J7N3wP3//+9/HYY25G0WDFgCan5tAuX77SiCBTUqaiJpBbH4VHjv4cfzB69CgbYNexCCPTWO1XB4842vJ6OpvGM88+jT//+XYzX2U2Z2gaa67o87zvppt+xTCoHen9wIMOwthx47jvhFNzS+MiBvfVEfTwww93TwiQE7k0Pqte2+eff9579paQX5nBMhflR2Ogv/zlLzHnldk2HKTX4+Q0PfHvf78XLzz/ooVUFoti5szDUVNTZeFY+rvR/7P6gzrH5LJ9blF4mk/sT4WUCf2bm39j7VQRT+lTD7QqQE3xu/322+2VPk201/Xe8RlcGLBza1Xov//9700ISDkblD/++BOsR9BhG4XOSzbUwjBefnm2tUXlZsyY4Q2b5EwraW4tRQvDho+wYYKFCxfhmWeeselwmuB933334Z//fMym6wVYI6izR7OARo3RDBlXL8bjFehku3YuNbPGNxctWowXXnjO1vGZN28uHnzwIesw0gQDCaqe72vXk09+J4YOGy4GWFjqBdX0N3UYSTu2tGxm/F/GU08+xTBfwD/+8Q/89W/3UIvPtgn+St9BBx9sbdzyeJwhuHA0wf3pp5+xNEnj6Tm1dbXdz+kLVUJql2vyurT2mWeeaW/i+NBk+YaGoZYGvWqn9rBeY1u6ZImR8Oknn7CKTXHUKhXCrFmzbC6vNPpgJeiA1Zwa29T7iypYDZBrlouGJ1ySt5ds0jkYwuFHHInK6hoeBk2gRHQHDaS4SQjUw9aG/OhHP06TsgybmzebwC1atNCm1+kNEE2900T7C2guH3LoYQgGQk7N6G5eO49tYAm0VgBMUsOuWLbcI9JfTVuqF1Rzfz/+8Y/j4IOnMz6sOBSGJs8zfUqj7w488EAbR3TjqkF0tLZj5fIVeIWEfHXOK9a21JspMq+PP/EkXPWla1BVReLRrw9VJEq/eoFz6r6m6zFA+0cwqDd7NF4qy0SdOH4+q0kRsrb0pZdeai8aqH2slwAe+8ejuP3/brVhpBUrVlqFWlVVaaS84oorrCIarMQUBqzmlEkkjaXXmGTOHn/88TbRemcgTSQBkRYdP368hdPQ0MArmqCwHM89+6x4jAk0f9Ve1aR1zVeV/+rqKtQ31GPkiJGmBS655GNWQUjYdD2fUHK6d7o3pVAvb1fX1NiylHpbRFP/JNjqyZQAK16TJ0+2NOVrFn87fPhwnHDCCUYEPUu9uOoJbmB8RowcicMPO5za8mKrEER6pUHID0ftP70YcMC0A2zOsSwO/3pfSItLmytvNC1SU/D0XB+6T24kn604a06z3s6pYryqmE9D2eTQ5PzjaNl87GMft7jnP29rzx3oGLDjnEqW35mgwpXQ72whKww/HD8MOZ2TGfczb5xTHR5XXnGV+dH7m+3tbRTWLjsWeaS5nTZx6BsPVwR0/E9n1FvZZu1bPUsVit539IXd2mh0fnyE/PBcWO6c/KUYjsxNvU6mc5oDq3FTafO+8fCPFYbu1Vbn+ntOPsw/0+26hFyToK9fP16C9kXmTotXmv6DzCO9gaMXtV06t/aswYRBtxLCnoCyLH8SgiPnlRQoCbGESlnaO1tl2pVQws7AVYkl7CSyRko3zUhkdO0qkVM1vtvquMeVUMLOokTOPYCSAVbC3kCJnLsKKs1Si6CEvYkSOXcRGvA/YuYR1jupFexKRC1hT6PUIbRL6Jl6Zr/c99ubJZSwp1AiZwklFChKZm0JJRQoSuQsoYQCRcmszUN+Vqj92Pd463D+9L6iTUHgoRvv3N02aM/zXVx6wssPuncR9n5mqR1cvCiRMw+asqY5pX6WaA6rnE+0rQu6PrmQtE8qaJV0EWTcuPG2Fs7uoeftSL3N8eprr+HRRx6xN2K0wnw6nbZnXPHFK3DAAQfYO5Bz575h83G//rWvo66+rkTOIkaJnHnQWyf33HNP93ubEvIzzjije3L5tsi5cuUq/OAHP8D69WtNg17ykY/i/e8/27u+q9D8Vq2DlMAtt9yCBx58wOak9kQjYC9Xf+lL1+DII47E5Zd/FmvWrENNTS3+9V//1a2eXkLRYtC3OVU3yUlr6lMGelVLq5bLabWArS0L0htBmxyvdySlzbQsiSZ155uluwZNXs/ZO6VaZ0gvbGuhr4MPOghnn/1+nHvuObjg/AswcYJeCieVtRaIXuImqbUKfQnFjUFPTmlDkVNv6GuFd+37WlJLgmipDN/ftqCXkt03QwIIh9xCzHuCnHruI48+glQ6xaOgLQD9la98FR/64IfpLqZ2fr/7GJPzbVuhRM3iR6m3VlqG2kbLQW7ctJ77WZTHYygrj+oda1vJQO297UHvjf7oRz/Cbbf9iSboH/Gud57Cs7ubvVk+u92+uqWXs7VagWYlVVRWWltYr3K517Ocb5sIgZD5LdGz+FEiJyENqeU8OrnN0Lx997veZS8+a8m4RhLjpRdfNI26LUjDiTBqA8r570BuDb453Rd9z6n9694npXamRq6priXtFLbTqs67rzOp9bcTz32F7eWXDz8fdtT/YEKJnBTrpiZ9tMgt1KxveZx66qmYdeSRiEbC9iLwA/ffZy8rb0uAdE3tTWlZv+2ZD10X0XRdnToinF5QtheiUynrJZbTedd+1XESXZ0JKVCEbHqghWThaDU+Xdc2afsJZPlMW51+G0pT8ZDTc+3TgwsXYs6cObaukD72pBUE/Ret+0Ln/HgqDvaCdT/+FH+l3/fbnx9B5/XpBuWHnMLcmt/BiEHdW6ukS/uoI+im//wVj7M46qgj8ZUvX4cVy5fjxp/ciFWrVtvSkd/81rcxZapbQa4/SKi1oJgWqdKC1N/97ncwZuxY76q7rtXw9AVoLdOh3lR1NmmpSH26T0IsE1VfGtNyHr/97W8tfiJKuy0knbb1htyqCiHpSC9k1rDU0gGSUqv2aXFsLa3ybzfeiCFDtI5QDxSWsHLlStx5551mLYgUahqTJggxXC3MddLbTrKvfmvZET+9iosqkauvvtqGi7RW0Wc+85l+1/kROR966CH8+c9/tvv03dKDDjrIu9oDXdOaRt/85jct7JNOOsk+aLx7y3QOHAx6zakV7x79h/uwaygYIDlON5KMGj0a4yZMYA4F0EGt9Oxzz3cL95ZwX5Vev24NWpqb0NzUiHVr13rXHHR99eqV9p0WfRzppZdfxLe+9Q089PCDWMv7dF4LealjSouJaYGy5s1NaG3ZjKz3rZYMiadPMjQ1b7aPIWk5yc3009zciCb6S0mTkSiOuD5hVPc6J62qpTqvv+G7ePzxx2yxbVt4ml5FcC381ci433nXHfje92+gJl1g92hJTalvWRFqn2/2Po+oOAoiWT7aWRHpOZsaN9DPRhL1AQujrz9xWv7Wb1jHyqsF0WjE8r4Eh0FPzmXLl2LRwgUmKKPHjDaNoK8mRCIxnHDCiWxHRqgJsiaMIk//kAb2Bc8RoXu3GzzgM/Qcud/+129sBff6ujpMmTwZBx5woGkXLSSmOEiLnMTnH33UUaYtdbNWzNMXoU86kdfkTjoRJ57ou5PcYl301+uxXnxUsWhpyl//501o3KjP1gdsLdmzzjoTn/70p/GJT3zCPoKrdXT1vZNlS5fgxp/eaOO3PrRAtBbfEsmkPRVeX8IJWipz8WJ9Ql/54r4bqu+dar8Hagak8Jw+3c/zZeVltEymIjyIP1zUF4OanBKse+7+G7UaNUNOgneSfZtDZpoERt/r0IC+/GmxaM3M6U8YjXW5IMWNxNBuwFvsqpuwArOaF/U9Tcmovk0pgl1zzbXd7tprr8XJJ59sJL388stx+ecvx0c//nFb71YQSfUF7c9/4fPOff4LdJ+nX7rPfc5MzK0hQbP5v26+2TSvFhs7/vgTcdVVV+GDH7wI73rXyTjllFPw0Y9+FF/44hdJ2gN5RxBr16zDLX/8AysnTcqQ1ZCzjyxFItJuWVtou7/8mDtvrj3HiVcQbe1teGv+fKsgevzre6Lr6TZwz63pO27cGMsbPacEl3uDEhISmYZaBFqCUltTh5mHz3RLMpqPgC0pqW95ClpB/eWXvDaaCU++AOkO3/no60dw1zU/QEtbXkqNJY05bNhwG6uUk/ZT5eD3+saoLf0JBTrvfyavt4va1tqevSqEHugT7mprKqRRbNOef975NoNIq/A56NP2IfveyjnnnIPqKo3Zkmhz57JS6vlG6ZCGodaWVuXz1lvzra0oyDz2Tdcnn3ySZ7RecAXjEzQtq5XnnXks89o5rchv3+5kpEaMGI5hQ4dZOCU4DDJy+oSRcGTx7LPPWK+ihHrqtKkYPnwEr7khCr+TQ5pMn4XX7JuX57xMjdBs93YrAINE1WkW3SXd6PSjC8PB9Ko5nX/ve09zwkvi+c8S/Gfnn+tG74d6yH+O4tHXD6/x1JzZc+xIcZdmHjpsKJ/hij//mXJTaV6OGq0vf0vjJjB//lvck183XKTPzMsK6OrstE4lX6sqD2Sqa7V6Hb/nPaewAuBzeKR1frWOsB9X5bvMXVV2IWryWbOOYjlII/tpKWEQak5HTH0aUJ0iOo6wnTODAldZWcVrEg4niMJwarXDDj/MhHbD+nXd38bsDZ+cdLwkM80Jfr6g+cSkLzZqR44czcs9fhR+/+h5lvZ6P1r3+E7XeNGu53vStWC39tP0v+HUUtK0Pff2xEMVlb6bUltbbR1RMkVlfuq64ijtejgtjLKY2rdBPProw/ZcOfrAU08/AX01TWvjHkF/73jb2yxb1qxaTTPZdZIpHBF1xfIVdqy2tL7x0pNnLi6DHcqNQQeRY8mSJVjvzZutra2z1dQlmFuAcnLaqadaT66Y8dBDDzpB7CU/uibn7XqaZGvQvepc0VaCunVi9mDrofWBgrLg/DvUGZTx5vqKXG44pueZWz5b2lEmvYaEspm09RgLfsWlr6+J4ApCHWXSlnqOKr1HH3nUOpRGjx5JS2QY26gn8plBtLa20oxdgEza9TyrV3rN2jWWl+PGjeuepL8jeTFYMMjI6YRL2mDOnFdsSEBttAnjx2H0KJpxFBQHbd2+SDRt6hSMGjXSTi14S18uW9Hj1aBwpRfVKaRdadKeMPqFCeH2BdGnufFCe9u/pQ80zON/VtBpuH4roV6Q5g95nVcB61V1JrmDPhMxceJ47rkJEZrIoHvUubNy+Uoj55TJE+2VNX2OQu1rl+dz7Nsx2tf3ZDQJQnFRb7O2JWL2xqDUnJoR9Oprr5hGEfTtzEs+rInkHzT3QXMX0V1o28suuxSrVqykYGeRSifx4AMP2n1O4PvBrnBoKxA5umGdPVt55jagjwArGMVX2o/c2D66yaxhpWivx6oDSu+PxspoGjNcfWxJ/mazXasOIk0iOHj6oYiEIwjQDD7mmGPtvoXUnOocUjvzlVdesfiIlPoC3I5aEIMJg4ycEja9e7mczrV3cuk0Ta00NYCmkHUiwfaSc11IUYjkdE2a0PQIhVCf/mu2zg3JsKSW0h7QBHo6Htrkc8vaLYVt54SQ2sT7C+o5etRWoTD79yACRNnGlPbVpwx7f6V7S2SoKdvbnKmqeysrKnkv0+PFXec0FqsPEWn6nb7mpsn5LzBfdI9mQE2dOs3dw3jNOvoYxCuq0Ml8ff75Z/n8NmpbdTLlTKvmz0QqoQeDipySR2lLfedEPY2SZQ0dzDriSJtLO+vIWZg1i9tZ2s7CkXnusMMOR02teyVMHxp68aWX8gScgiXJ9w5F5O6D3UJPGLsTmgRf7TrFU5XTunVrvSGhLaE0ydyUdaHkqQNoBE1TO8iDztV5r6qpzfnC889ZuMpfTSZoyJs6qNUaJk+ZDH1a8IknnsB8klmVmybpH3vsMeZnW5XFYMWgIacKX66jowsvvzTbSTvd577wBXzhqivxRborzF2FK6+8stvZuSuvwlVXX2Xml3o79WWsp59+2jSQg2p9r81pu94kBHO7A4Xi/UmzKOxdhHpOVdjSdPPmzrPZTn0J4fIoi8WLF2P1mtXUkPpKWsy0W1/ItD1q1lEIMV5tra009R+wcWMR8Njjjzft6kNjtwcfcqjNvFqyeCn+fs9fLSk6f6S3IHffuJQwiMjpm01a6aC1rY3CIdPsIEwYN8Eme+sdSXPc1/hjPF5lplg5txXcVlVV23cyXU8nsHrVKhvU7xdeR8o2yWn2744IZJ6fHIvL2L819F+c6oA5gpaBNJhIsHLVStxxxx32hozf7hZ0TcMmd915pxFO0Kf3Rc6+ZqeOjz7qaPcGCtuZygtpY02aOPTQQ3pVJNK+0w6YRsuj1vzPn/+mXR8/YRxq7QX1EvrDoCGnoM6KB1jDm6CxZj/5ne/yckA/kibPWVvJQWcMPDdVs3mGj0SaTcxNjY02iC7B92F+SR4qH++o+25CPbn+FD8RbkeI2RPKDvFYsIrBT4+gdmIQsbJyXPbZzyFeWWGB/fPxf9jk9kcffQRz5symexn3/u2v+OG/fB9vvjmfWi5As3UIPvaJTyIU1qf689PiYqWZQiNGjmaL20sXt7OOPpZt0ZpuMlslxbiPHjkSI4bR1GXmSDvrqmZHlXkzovqSv4RBRE5pBXVcrFmzxgilKXP6hLv7RJ8Tth63xcb8yAx717vfbcfSAJodY9PP8kFBNHIqzD5azqfkjvIsH71D6g/y4UhphOiGI6fifwTb1hdf/GGbJqj8ePONN/Cf//mf+NGPfmCLk/3ud7/DKmpV3T5mzFhc9pnP2CqCFtwWEVDHUAgnaZIB4QZaAni3lz8WC+WBd2+d2p1s38tUlm99LHfaAQcgEnVfsHZlUEI+BhU51Y2vnkENeGtsbciQISa4OwqFobcyJkyYYPfKXPM1ZzQSpVYdjiEMe9iI4Rg6lFoiT96i0bBN7G4Yok/Rj0JdnSPItqDrZRRihVs3pMHCdOsUbQnFQ2+0KH1jxo6xuPWFzok8X/7ydXjbSe+wiQYyazX2mEx1IcM/fSpfb6pcd91XMHPmzO2SRhPmlR8i/MwjZlovbt90KQy93fP2t5+MsWPHMY5DcfD0Q2yaYImUW8egetlab+5nKIxWq7MGV6fFzgiHssono7a6VwKvrY6lTdXhIgRDQZtp04Ms0mn3bqTC0dihr9G2DoZJLZPTigkMW3NQjXT93OPHzeLFv1DYtwh6kF/U2k+nk9i4aQMaNzVaXmi+bW1NrWlE16HTU3H1F0+Fkf9c3eN3BPnbfChvNOOId3lJcPEcRDpipzCoyNlfUrdNji3RNwz/fp3Pv6bzvcPuue627vq2ny8xpl8/WLUn5b+fW3rFywW/zbB9//lvsfQKwx7Sc//Wwsq/R/u+v37906sR03ZZyfFYvbv5zymhB4N6mZIShP6Kv0SWQkCJnCWUUKAoGfsllFCgKJGzhBIKFCVyllBCgaJEzhJKKFCUyFlCCQWKEjlLKKFAUSJnCSUUKErkLKGEAkWJnCWUUKAokbOEEgoUJXKWUEKBokTOEkooUJTIWUIJBYoSOUsooSAB/H+Max4ed433iwAAAABJRU5ErkJggg==;" vertex="1" parent="1">
          <mxGeometry x="961.28" y="340" width="102.05" height="110" as="geometry" />
        </mxCell>
        <mxCell id="wOMFnB0pq9KEX2PWQIk_-17" value="" style="endArrow=classic;html=1;rounded=0;exitX=0.5;exitY=1;exitDx=0;exitDy=0;" edge="1" parent="1" source="wOMFnB0pq9KEX2PWQIk_-16">
          <mxGeometry width="50" height="50" relative="1" as="geometry">
            <mxPoint x="900" y="520" as="sourcePoint" />
            <mxPoint x="1012" y="510" as="targetPoint" />
          </mxGeometry>
        </mxCell>
        <mxCell id="wOMFnB0pq9KEX2PWQIk_-18" value="&lt;font style=&quot;font-size: 18px;&quot;&gt;Blob Storage&lt;/font&gt;" style="text;html=1;align=center;verticalAlign=middle;whiteSpace=wrap;rounded=0;" vertex="1" parent="1">
          <mxGeometry x="663.87" y="750" width="147.74" height="20" as="geometry" />
        </mxCell>
        <mxCell id="wOMFnB0pq9KEX2PWQIk_-19" value="&lt;font style=&quot;font-size: 18px;&quot;&gt;Databricks&lt;/font&gt;" style="text;html=1;align=center;verticalAlign=middle;whiteSpace=wrap;rounded=0;" vertex="1" parent="1">
          <mxGeometry x="922.31" y="570" width="147.74" height="20" as="geometry" />
        </mxCell>
        <mxCell id="wOMFnB0pq9KEX2PWQIk_-20" value="&lt;font style=&quot;font-size: 18px;&quot;&gt;Azure Data Lake Gen 2&lt;/font&gt;" style="text;html=1;align=center;verticalAlign=middle;whiteSpace=wrap;rounded=0;" vertex="1" parent="1">
          <mxGeometry x="1160" y="630" width="196.54" height="20" as="geometry" />
        </mxCell>
        <UserObject label="&lt;img src=&quot;https://image.pitchbook.com/6u6feRksErPUB1XOmGmpiDOJ4UY1595425192373_200x200&quot; alt=&quot;Kaggle 2025 Company Profile: Valuation, Investors, Acquisition | PitchBook&quot;&gt;" link="&lt;img src=&quot;https://image.pitchbook.com/6u6feRksErPUB1XOmGmpiDOJ4UY1595425192373_200x200&quot; alt=&quot;Kaggle 2025 Company Profile: Valuation, Investors, Acquisition | PitchBook&quot;&gt;" id="wOMFnB0pq9KEX2PWQIk_-21">
          <mxCell style="text;whiteSpace=wrap;html=1;" vertex="1" parent="1">
            <mxGeometry x="380" y="580" width="30" height="40" as="geometry" />
          </mxCell>
        </UserObject>
        <mxCell id="wOMFnB0pq9KEX2PWQIk_-22" value="" style="endArrow=classic;html=1;rounded=0;" edge="1" parent="1">
          <mxGeometry width="50" height="50" relative="1" as="geometry">
            <mxPoint x="590" y="690" as="sourcePoint" />
            <mxPoint x="650" y="690" as="targetPoint" />
          </mxGeometry>
        </mxCell>
      </root>
    </mxGraphModel>
  </diagram>
</mxfile>
